<svg xmlns="http://www.w3.org/2000/svg" xmlns:xlink="http://www.w3.org/1999/xlink" fill="none" version="1.1" width="75" height="72.00048828125" viewBox="0 0 75 72.00048828125"><g><g><path d="M0,0L26.9336,0L26.9336,11.0449L26.9336,71.9993L16.1602,71.9993L16.1602,27.4087L11.1878,27.4087L11.1878,56.0452L0,56.0452L0,16.3633L16.1602,16.3633L16.1602,11.0454L0,11.0454L0,0ZM31.9062,0L74.9999,0L74.9999,11.0454L59.2536,11.0454L59.2536,16.3633L74.9999,16.3633L74.9999,26.9996L59.2536,26.9996L59.2536,71.9993L47.6515,71.9993L47.6515,26.9996L31.9062,27L31.9062,16.3633L47.6515,16.3633L47.6515,11.0454L31.9062,11.0454L31.9062,0ZM31.9062,27L43.094,27L43.094,65.4544L31.9062,65.4544L31.9062,27ZM63.3975,27L74.9999,26.9996L74.9996,65.4544L63.3975,65.4544L63.3975,27ZM11.1878,71.7337C11.1878,65.5548,6.17884,60.5459,0,60.5459L0,72.0004L11.1878,72.0004L11.1878,71.7337Z" fill-rule="evenodd" fill="#0BD47E" fill-opacity="1"/></g></g></svg>