<svg xmlns="http://www.w3.org/2000/svg" xmlns:xlink="http://www.w3.org/1999/xlink" fill="none" version="1.1" width="24" height="24" viewBox="0 0 24 24"><defs><clipPath id="master_svg0_1994_70134"><rect x="0" y="0" width="24" height="24" rx="0"/></clipPath></defs><g clip-path="url(#master_svg0_1994_70134)"><g><path d="M13.06066,12L17.5297,16.469C17.671,16.610300000000002,17.75,16.801099999999998,17.75,17C17.75,17.4142,17.4142,17.75,17,17.75C16.801099999999998,17.75,16.610300000000002,17.671,16.469,17.5297L12,13.06066L7.53079,17.529899999999998C7.38968,17.671,7.198912,17.75,7,17.75C6.585786,17.75,6.25,17.4142,6.25,17C6.25,16.801099999999998,6.3290176,16.610300000000002,6.46967,16.4697L10.93934,12L6.46967,7.53033C6.3290176,7.38968,6.25,7.198912,6.25,7C6.25,6.585786,6.585786,6.25,7,6.25C7.198912,6.25,7.38968,6.3290176,7.53048,6.469824L12,10.93934L16.4692,6.4701319999999996C16.610300000000002,6.3290176,16.801099999999998,6.25,17,6.25C17.4142,6.25,17.75,6.585786,17.75,7C17.75,7.198912,17.671,7.38968,17.5303,7.53033L13.06066,12Z" fill-rule="evenodd" fill="#000000" fill-opacity="0.8999999761581421" style="mix-blend-mode:passthrough"/></g></g></svg>