<svg xmlns="http://www.w3.org/2000/svg" xmlns:xlink="http://www.w3.org/1999/xlink" fill="none" version="1.1" width="24" height="24" viewBox="0 0 24 24"><defs><clipPath id="master_svg0_2252_092691"><rect x="0" y="0" width="24" height="24" rx="0"/></clipPath></defs><g clip-path="url(#master_svg0_2252_092691)"><g><path d="M6.25,7L6.25,8Q6.25,8.07387,6.264411,8.14632Q6.278822,8.21877,6.30709,8.28701Q6.335359,8.355260000000001,6.376398,8.41668Q6.417437,8.478100000000001,6.46967,8.53033Q6.521903,8.58256,6.583322,8.6236Q6.644742,8.66464,6.712987,8.692910000000001Q6.781233,8.72118,6.853682,8.73559Q6.9261315,8.75,7,8.75L17.5,8.75Q17.573900000000002,8.75,17.6463,8.73559Q17.7188,8.72118,17.787,8.692910000000001Q17.8553,8.66464,17.9167,8.6236Q17.978099999999998,8.58256,18.0303,8.53033Q18.0826,8.478100000000001,18.1236,8.41668Q18.1646,8.355260000000001,18.1929,8.28701Q18.2212,8.21877,18.235599999999998,8.14632Q18.25,8.07387,18.25,8L18.25,7Q18.25,5.4467,17.151600000000002,4.348351Q16.0533,3.25,14.5,3.25L10,3.25Q8.4467,3.25,7.348351,4.348351Q6.25,5.4467,6.25,7ZM7.75,7.25L16.75,7.25L16.75,7Q16.75,6.068020000000001,16.090989999999998,5.40901Q15.43198,4.75,14.5,4.75L10,4.75Q9.06802,4.75,8.40901,5.40901Q7.75,6.068020000000001,7.75,7L7.75,7.25Z" fill-rule="evenodd" fill="#27CE79" fill-opacity="1" style="mix-blend-mode:passthrough"/></g><g><path d="M1.25,12.5L1.25,19Q1.25,19.724899999999998,1.762566,20.2374Q2.27513,20.75,3,20.75L21,20.75Q21.7249,20.75,22.2374,20.2374Q22.75,19.724899999999998,22.75,19L22.75,12.5L22.75,9Q22.75,8.27512,22.2374,7.762557Q21.7249,7.25,21,7.25L3,7.25Q2.27513,7.25,1.762566,7.762554Q1.25,8.27512,1.25,9L1.25,12.5ZM2.75,13.46058L2.75,19Q2.75,19.1036,2.82322,19.1768Q2.89644,19.25,3,19.25L21,19.25Q21.1036,19.25,21.1768,19.1768Q21.25,19.1036,21.25,19L21.25,13.46058L12.4246,15.66692Q12,15.77317,11.5755,15.66696L2.75,13.46058ZM21.25,11.91442L12.0605,14.21179Q12,14.22692,11.9394,14.21175L2.75,11.91442L2.75,9Q2.75,8.89644,2.82322,8.82322Q2.89644,8.75,3,8.75L21,8.75Q21.25,8.75,21.25,9L21.25,11.91442Z" fill-rule="evenodd" fill="#000000" fill-opacity="0.8999999761581421" style="mix-blend-mode:passthrough"/></g><g><path d="M13.25,11.5Q13.25,11.56141,13.24398,11.62252Q13.237960000000001,11.68363,13.22598,11.74386Q13.214,11.80409,13.19618,11.86286Q13.17835,11.92162,13.15485,11.97835Q13.13135,12.03509,13.1024,12.08925Q13.07345,12.1434,13.03934,12.19446Q13.00522,12.245519999999999,12.96626,12.29299Q12.92731,12.34046,12.88388,12.38388Q12.84046,12.42731,12.79299,12.46626Q12.745519999999999,12.50522,12.69446,12.53934Q12.6434,12.57345,12.58925,12.6024Q12.53509,12.63135,12.47835,12.65485Q12.42162,12.67835,12.36286,12.69618Q12.30409,12.714,12.24386,12.72598Q12.18363,12.737960000000001,12.12252,12.74398Q12.06141,12.75,12,12.75Q11.93859,12.75,11.87748,12.74398Q11.81637,12.737960000000001,11.75614,12.72598Q11.695908,12.714,11.637144,12.69618Q11.57838,12.67835,11.521646,12.65485Q11.464912,12.63135,11.410754,12.6024Q11.356597,12.57345,11.305537,12.53934Q11.254478,12.50522,11.207008,12.46626Q11.159539,12.42731,11.116116,12.38388Q11.072694,12.34046,11.033737,12.29299Q10.99478,12.245519999999999,10.960663,12.19446Q10.926546,12.1434,10.897598,12.08925Q10.868651,12.03509,10.8451506,11.97835Q10.8216505,11.92162,10.8038246,11.86286Q10.7859986,11.80409,10.7740184,11.74386Q10.7620382,11.68363,10.75601909,11.62252Q10.75,11.56141,10.75,11.5Q10.75,11.43859,10.75601909,11.37748Q10.7620382,11.31637,10.7740184,11.25614Q10.7859986,11.195908,10.8038246,11.137144Q10.8216505,11.07838,10.8451506,11.021646Q10.868651,10.964912,10.897598,10.910754Q10.926546,10.856597,10.960663,10.805537Q10.99478,10.754478,11.033737,10.707008Q11.072694,10.659539,11.116116,10.616116Q11.159539,10.572694,11.207008,10.533737Q11.254478,10.49478,11.305537,10.460663Q11.356597,10.426546,11.410754,10.397598Q11.464912,10.368651,11.521646,10.3451506Q11.57838,10.3216505,11.637144,10.3038246Q11.695908,10.2859986,11.75614,10.2740184Q11.81637,10.2620382,11.87748,10.25601909Q11.93859,10.25,12,10.25Q12.06141,10.25,12.12252,10.25601909Q12.18363,10.2620382,12.24386,10.2740184Q12.30409,10.2859986,12.36286,10.3038246Q12.42162,10.3216505,12.47835,10.3451506Q12.53509,10.368651,12.58925,10.397598Q12.6434,10.426546,12.69446,10.460663Q12.745519999999999,10.49478,12.79299,10.533737Q12.84046,10.572694,12.88388,10.616116Q12.92731,10.659539,12.96626,10.707008Q13.00522,10.754478,13.03934,10.805537Q13.07345,10.856597,13.1024,10.910754Q13.13135,10.964912,13.15485,11.021646Q13.17835,11.07838,13.19618,11.137144Q13.214,11.195908,13.22598,11.25614Q13.237960000000001,11.31637,13.24398,11.37748Q13.25,11.43859,13.25,11.5Z" fill="#27CE79" fill-opacity="1" style="mix-blend-mode:passthrough"/></g></g></svg>