<svg xmlns="http://www.w3.org/2000/svg" xmlns:xlink="http://www.w3.org/1999/xlink" fill="none" version="1.1" width="24" height="24" viewBox="0 0 24 24"><defs><clipPath id="master_svg0_2252_092709"><rect x="0" y="0" width="24" height="24" rx="0"/></clipPath></defs><g clip-path="url(#master_svg0_2252_092709)"><g><path d="M3.25,21L3.25,3Q3.2500000596046,1.2499999403954,5,1.25L15,1.25C15.4142,1.25,15.75,1.585786,15.75,2L15.75,6.25L20,6.25C20.4142,6.25,20.75,6.58579,20.75,7L20.75,21Q20.75,21.7249,20.2374,22.2374Q19.7249,22.75,19,22.75L5,22.75Q4.27513,22.75,3.762566,22.2374Q3.25,21.7249,3.25,21ZM4.75,21Q4.75,21.25,5,21.25L19,21.25Q19.25,21.25,19.25,21L19.25,7.75L15,7.75C14.5858,7.75,14.25,7.41421,14.25,7L14.25,2.75L5,2.75Q4.89645,2.75,4.82322,2.82322Q4.75,2.8964499999999997,4.75,3L4.75,21Z" fill-rule="evenodd" fill="#000000" fill-opacity="0.8999999761581421" style="mix-blend-mode:passthrough"/></g><g><path d="M20.5297,6.46904L15.53048,1.469824C15.38968,1.3290176,15.198912,1.25,15,1.25C14.585786,1.25,14.25,1.585786,14.25,2C14.25,2.198912,14.3290176,2.3896800000000002,14.46967,2.53033L19.46904,7.5297L19.46904,7.5297C19.61032,7.67098,19.801090000000002,7.75,20,7.75C20.41421,7.75,20.75,7.41421,20.75,7C20.75,6.80109,20.67098,6.61032,20.5297,6.46904L20.5297,6.46904Z" fill-rule="evenodd" fill="#000000" fill-opacity="0.8999999761581421" style="mix-blend-mode:passthrough"/></g><g><path d="M12,14.75C13.51878,14.75,14.75,13.51878,14.75,12C14.75,10.48122,13.51878,9.25,12,9.25C10.48122,9.25,9.25,10.48122,9.25,12C9.25,13.51878,10.48122,14.75,12,14.75ZM12,10.75C12.69036,10.75,13.25,11.30964,13.25,12C13.25,12.69036,12.69036,13.25,12,13.25C11.30964,13.25,10.75,12.69036,10.75,12C10.75,11.30964,11.30964,10.75,12,10.75Z" fill-rule="evenodd" fill="#07C160" fill-opacity="1" style="mix-blend-mode:passthrough"/></g><g><path d="M7.25,18Q7.25,16.03248,8.64124,14.64124Q10.03248,13.25,12,13.25Q13.96752,13.25,15.35876,14.64124Q16.75,16.03248,16.75,18C16.75,18.41421,16.41421,18.75,16,18.75C15.58579,18.75,15.25,18.41421,15.25,18Q15.25,16.6538,14.2981,15.7019Q13.3462,14.75,12,14.75Q10.6538,14.75,9.7019,15.7019Q8.75,16.6538,8.75,18C8.75,18.41421,8.41421,18.75,8,18.75C7.585786,18.75,7.25,18.41421,7.25,18Z" fill-rule="evenodd" fill="#07C160" fill-opacity="1" style="mix-blend-mode:passthrough"/></g></g></svg>