<svg xmlns="http://www.w3.org/2000/svg" xmlns:xlink="http://www.w3.org/1999/xlink" fill="none" version="1.1" width="24" height="24" viewBox="0 0 24 24"><defs><clipPath id="master_svg0_2252_092410"><rect x="0" y="0" width="24" height="24" rx="0"/></clipPath></defs><g clip-path="url(#master_svg0_2252_092410)"><g><path d="M8,5.06066L11.4697,8.53033C11.6103,8.67098,11.8011,8.75,12,8.75C12.4142,8.75,12.75,8.41421,12.75,8C12.75,7.80109,12.671,7.61032,12.5303,7.46967L8.53033,3.46967C8.23744,3.1767766,7.76256,3.1767766,7.46967,3.46967L1.46967,9.46967C1.1767766,9.76256,1.1767766,10.23744,1.46967,10.53033L11.4697,20.5303C11.6103,20.671,11.8011,20.75,12,20.75C12.1989,20.75,12.3897,20.671,12.5303,20.5303L14.5298,18.5308L16.5308,16.5298L18.5303,14.5303C18.8232,14.2374,18.8232,13.7626,18.5303,13.4697C18.3897,13.329,18.1989,13.25,18,13.25C17.8011,13.25,17.6103,13.329,17.4697,13.4697L16,14.9393L15.0305,13.9698C14.8897,13.829,14.6989,13.75,14.5,13.75C14.0858,13.75,13.75,14.0858,13.75,14.5C13.75,14.6989,13.829,14.8897,13.9697,15.0303L14.9393,16L14,16.9393L13.0305,15.9698C12.8897,15.829,12.6989,15.75,12.5,15.75C12.0858,15.75,11.75,16.0858,11.75,16.5C11.75,16.698900000000002,11.829,16.889699999999998,11.9697,17.0303L12.9393,18L12,18.9393L3.06066,10L8,5.06066Z" fill-rule="evenodd" fill="#000000" fill-opacity="0.8999999761581421" style="mix-blend-mode:passthrough"/></g><g><path d="M10.61413,13.6431L8.114128000000001,12.14312C7.897053,12.01287,7.76033,11.78191,7.750558853,11.52895C7.750558853,11.52895,7.75,11.5,7.75,11.5C7.75,11.36407,7.7869434,11.23069,7.85688,11.11413C7.88843,11.06155,7.926309,11.01303,7.96967,10.96967L7.96967,10.96967L11.46921,7.47013L11.46921,7.47013L11.46921,7.47013L15.46967,3.46967C15.61032,3.3290176,15.80109,3.25,16,3.25C16.198909999999998,3.25,16.38968,3.3290176,16.53033,3.46967L22.5303,9.46967C22.8232,9.76256,22.8232,10.23744,22.5303,10.53033L18.5303,14.5303C18.2374,14.8232,17.7626,14.8232,17.46967,14.5303L14,11.06066L11.53033,13.5303C11.28698,13.7737,10.90924,13.8202,10.61413,13.6431ZM10.88374,12.0556L9.70956,11.3511L12.529869999999999,8.53079L12.529869999999999,8.53079L12.529869999999999,8.53079L16,5.06066L20.9393,10L18,12.93934L14.53033,9.46967C14.38968,9.32902,14.19891,9.25,14,9.25C13.80109,9.25,13.61032,9.32902,13.46967,9.46967L10.88374,12.0556Z" fill-rule="evenodd" fill="#27CE79" fill-opacity="1" style="mix-blend-mode:passthrough"/></g></g></svg>