<svg xmlns="http://www.w3.org/2000/svg" xmlns:xlink="http://www.w3.org/1999/xlink" fill="none" version="1.1" width="24" height="24" viewBox="0 0 24 24"><defs><clipPath id="master_svg0_2252_092768"><rect x="0" y="0" width="24" height="24" rx="0"/></clipPath></defs><g clip-path="url(#master_svg0_2252_092768)"><g><path d="M12,10.75C14.62335,10.75,16.75,8.62335,16.75,6C16.75,3.37665,14.62335,1.25,12,1.25C9.37665,1.25,7.25,3.37665,7.25,6C7.25,8.62335,9.37665,10.75,12,10.75ZM12,2.75C13.79493,2.75,15.25,4.20507,15.25,6C15.25,7.79493,13.79493,9.25,12,9.25C10.20507,9.25,8.75,7.79493,8.75,6C8.75,4.20507,10.20507,2.75,12,2.75Z" fill-rule="evenodd" fill="#000000" fill-opacity="0.8999999761581421" style="mix-blend-mode:passthrough"/></g><g><path d="M2.25,22Q2.249999880791,17.96143,5.10571,15.10571Q7.96143,12.250000178814,12,12.25Q16.038600000000002,12.249999880791,18.8943,15.10571Q21.75,17.96143,21.75,22C21.75,22.4142,21.4142,22.75,21,22.75C20.5858,22.75,20.25,22.4142,20.25,22Q20.25,18.58275,17.8336,16.16637Q15.4173,13.75,12,13.75Q8.58275,13.75,6.166370000000001,16.16637Q3.75,18.58275,3.75,22C3.75,22.4142,3.4142099999999997,22.75,3,22.75C2.585786,22.75,2.25,22.4142,2.25,22Z" fill-rule="evenodd" fill="#000000" fill-opacity="0.8999999761581421" style="mix-blend-mode:passthrough"/></g><g><path d="M9.414348416931153,19.96851904632568C9.259281636931153,19.774689046325683,9.210165416931153,19.516689046325684,9.283165616931152,19.279439046325685L11.283161416931152,12.779436046325683C11.356211416931153,12.542043046325684,11.542041416931152,12.356210046325684,11.779431416931153,12.283165946325683C11.969551416931152,12.224668546325683,12.175121416931152,12.244090616325684,12.350911416931153,12.337159346325684C12.526711416931153,12.430228046325684,12.658341416931153,12.589319046325684,12.716831416931152,12.779436046325683L14.716831416931154,19.279439046325685C14.789831416931152,19.516689046325684,14.740721416931152,19.774689046325683,14.585651416931153,19.96851904632568L12.585651416931153,22.468499046325682C12.551051416931152,22.511799046325685,12.511771416931152,22.55109904632568,12.468521416931152,22.585699046325683C12.145071416931152,22.844399046325684,11.673101416931152,22.791999046325685,11.414351416931153,22.468499046325682L9.414348416931153,19.96851904632568ZM12.000001416931152,20.79941904632568L10.833521416931152,19.341319046325683L12.000001416931152,15.550279046325684L13.166471416931152,19.341319046325683L12.000001416931152,20.79941904632568Z" fill-rule="evenodd" fill="#07C160" fill-opacity="1" style="mix-blend-mode:passthrough"/></g></g></svg>