<svg xmlns="http://www.w3.org/2000/svg" xmlns:xlink="http://www.w3.org/1999/xlink" fill="none" version="1.1" width="24" height="24" viewBox="0 0 24 24"><defs><clipPath id="master_svg0_2252_092746"><rect x="0" y="0" width="24" height="24" rx="0"/></clipPath></defs><g clip-path="url(#master_svg0_2252_092746)"><g><path d="M3,15.75C2.585786,15.75,2.25,16.085786,2.25,16.5L2.25,19.5Q2.249999821186,20.43199,2.909013,21.091Q3.5680199999999997,21.75,4.5,21.75L7.5,21.75C7.91421,21.75,8.25,21.41421,8.25,21C8.25,20.58579,7.91421,20.25,7.5,20.25L4.5,20.25Q4.18933,20.25,3.96967,20.03034Q3.75,19.810670000000002,3.75,19.5L3.75,16.5C3.75,16.085786,3.4142099999999997,15.75,3,15.75Z" fill-rule="evenodd" fill="#000000" fill-opacity="0.8999999761581421" style="mix-blend-mode:passthrough"/></g><g><path d="M21,15.75C20.58579,15.75,20.25,16.085786,20.25,16.5L20.25,19.5Q20.25,19.810679999999998,20.03034,20.03034Q19.810679999999998,20.25,19.5,20.25L16.5,20.25C16.085786,20.25,15.75,20.58579,15.75,21C15.75,21.41421,16.085786,21.75,16.5,21.75L19.5,21.75Q20.432000000000002,21.75,21.091,21.091Q21.75,20.432000000000002,21.75,19.5L21.75,16.5C21.75,16.085786,21.41421,15.75,21,15.75Z" fill-rule="evenodd" fill="#000000" fill-opacity="0.8999999761581421" style="mix-blend-mode:passthrough"/></g><g><path d="M19.5,2.25L16.5,2.25C16.085786,2.25,15.75,2.585786,15.75,3C15.75,3.4142099999999997,16.085786,3.75,16.5,3.75L19.5,3.75Q19.810670000000002,3.75,20.03034,3.96967Q20.25,4.18933,20.25,4.5L20.25,7.5C20.25,7.91421,20.58579,8.25,21,8.25C21.41421,8.25,21.75,7.91421,21.75,7.5L21.75,4.5Q21.75,3.5680199999999997,21.091,2.909014Q20.432000000000002,2.2500000596046,19.5,2.25Z" fill-rule="evenodd" fill="#000000" fill-opacity="0.8999999761581421" style="mix-blend-mode:passthrough"/></g><g><path d="M7.5,3.75L4.5,3.75Q4.18934,3.75,3.96967,3.96967Q3.75,4.18934,3.75,4.5L3.75,7.5C3.75,7.91421,3.4142099999999997,8.25,3,8.25C2.585786,8.25,2.25,7.91421,2.25,7.5L2.25,4.5Q2.249999821186,3.5680199999999997,2.909011,2.909011Q3.5680199999999997,2.25,4.5,2.25L7.5,2.25C7.91421,2.25,8.25,2.585786,8.25,3C8.25,3.4142099999999997,7.91421,3.75,7.5,3.75Z" fill-rule="evenodd" fill="#000000" fill-opacity="0.8999999761581421" style="mix-blend-mode:passthrough"/></g><g><path d="M17.600383876800535,9.050303788452148Q18.290183876800537,9.970033788452149,18.217183876800537,10.991303788452148Q18.151483876800537,11.909723788452148,17.530583876800538,12.53063378845215L12.530563876800537,17.53063378845215C12.389913876800538,17.67128378845215,12.199153876800537,17.75030378845215,12.000233876800536,17.75030378845215C11.801323876800538,17.75030378845215,11.610563876800537,17.67128378845215,11.469903876800537,17.53063378845215L8.947423876800537,15.00811378845215L6.469910876800537,12.53063378845215Q5.848940176800537,11.909793788452149,5.783354106800537,10.991213788452148Q5.710441476800537,9.970033788452149,6.400237876800537,9.050303788452148Q7.123333876800537,8.086175788452149,8.417413876800538,7.942389288452149Q9.572873876800537,7.814004788452149,10.416263876800537,8.376264788452149Q10.646523876800536,8.529764788452148,10.992183876800537,8.81030378845215Q11.534303876800537,9.250303788452149,12.000233876800536,9.250303788452149Q12.466253876800536,9.250303788452149,13.008423876800537,8.810240788452148Q13.353983876800537,8.529758788452149,13.584193876800537,8.376276788452149Q14.427603876800537,7.814004788452149,15.583133876800536,7.942388688452149Q16.877283876800536,8.086174788452148,17.600383876800535,9.050303788452148ZM16.40038387680054,9.950303788452148Q16.06668387680054,9.505343788452148,15.417493876800537,9.433213788452148Q14.805023876800536,9.365163788452149,14.416283876800538,9.624323788452148Q14.244633876800536,9.738763788452149,13.953723876800536,9.974883788452148Q12.998383876800538,10.750303788452149,12.000233876800536,10.750303788452149Q11.002183876800537,10.750303788452149,10.046903876800538,9.974973788452148Q9.755933876800537,9.738813788452148,9.584213876800536,9.624343788452148Q9.195453876800537,9.365173788452148,8.583063876800537,9.433213788452148Q7.9339638768005365,9.505333788452148,7.600233876800537,9.950303788452148Q7.246523876800537,10.421923788452148,7.279543876800537,10.884383788452148Q7.305273876800538,11.244723788452148,7.530563876800537,11.469963788452148L10.008093876800537,13.947463788452149L12.000243876800537,15.939633788452149L16.469883876800537,11.469973788452148Q16.695183876800535,11.244673788452149,16.72098387680054,10.884303788452149Q16.754083876800536,10.421843788452149,16.40038387680054,9.950303788452148Z" fill-rule="evenodd" fill="#07C160" fill-opacity="1" style="mix-blend-mode:passthrough"/></g></g></svg>