<svg xmlns="http://www.w3.org/2000/svg" xmlns:xlink="http://www.w3.org/1999/xlink" fill="none" version="1.1" width="24" height="24" viewBox="0 0 24 24"><defs><clipPath id="master_svg0_2252_092731"><rect x="0" y="0" width="24" height="24" rx="0"/></clipPath></defs><g clip-path="url(#master_svg0_2252_092731)"><g><path d="M3.25,21L3.25,3Q3.2500000596046,1.2499999403954,5,1.25L15,1.25C15.4142,1.25,15.75,1.585786,15.75,2L15.75,6.25L20,6.25C20.4142,6.25,20.75,6.58579,20.75,7L20.75,21Q20.75,21.7249,20.2374,22.2374Q19.7249,22.75,19,22.75L5,22.75Q4.27513,22.75,3.762566,22.2374Q3.25,21.7249,3.25,21ZM4.75,21Q4.75,21.25,5,21.25L19,21.25Q19.25,21.25,19.25,21L19.25,7.75L15,7.75C14.5858,7.75,14.25,7.41421,14.25,7L14.25,2.75L5,2.75Q4.89645,2.75,4.82322,2.82322Q4.75,2.8964499999999997,4.75,3L4.75,21Z" fill-rule="evenodd" fill="#000000" fill-opacity="0.8999999761581421" style="mix-blend-mode:passthrough"/></g><g><path d="M20.5297,6.46904L15.53048,1.469824C15.38968,1.3290176,15.198912,1.25,15,1.25C14.585786,1.25,14.25,1.585786,14.25,2C14.25,2.198912,14.3290176,2.3896800000000002,14.46967,2.53033L19.46904,7.5297L19.46904,7.5297C19.61032,7.67098,19.801090000000002,7.75,20,7.75C20.41421,7.75,20.75,7.41421,20.75,7C20.75,6.80109,20.67098,6.61032,20.5297,6.46904L20.5297,6.46904Z" fill-rule="evenodd" fill="#000000" fill-opacity="0.8999999761581421" style="mix-blend-mode:passthrough"/></g><g><path d="M8.5,18.25C8.085786,18.25,7.75,17.91421,7.75,17.5L7.7500000596046,15.5C7.75,15.30109,7.8290176,15.11032,7.96967,14.96967L12.96967,9.96967C13.11032,9.8290175,13.30109,9.749999880791,13.5,9.75C13.69891,9.7500000596046,13.88968,9.8290177,14.03033,9.96967L16.03033,11.96967C16.32322,12.26256,16.32322,12.73744,16.03033,13.03033L11.03033,18.03033C10.88968,18.17098,10.69891,18.25,10.5,18.25L8.5,18.25ZM10.18934,16.75L9.25,16.75L9.25,15.81066L13.5,11.56066L14.43934,12.5L10.18934,16.75Z" fill-rule="evenodd" fill="#07C160" fill-opacity="1" style="mix-blend-mode:passthrough"/></g></g></svg>