<svg xmlns="http://www.w3.org/2000/svg" xmlns:xlink="http://www.w3.org/1999/xlink" fill="none" version="1.1" width="24" height="24" viewBox="0 0 24 24"><defs><clipPath id="master_svg0_2252_092720"><rect x="0" y="0" width="24" height="24" rx="0"/></clipPath></defs><g clip-path="url(#master_svg0_2252_092720)"><g><path d="M9.14938,8.827964Q6.34741,8.25,3,8.25C2.585786,8.25,2.25,8.585786,2.25,9L2.25,20C2.25,20.4142,2.585786,20.75,3,20.75Q9.992180000000001,20.75,11.41761,22.4726C11.42891,22.4865,11.44071,22.5,11.45296,22.5131C11.58979,22.6589,11.78426,22.75,12,22.75C12.21574,22.75,12.4102,22.6589,12.547,22.5131C12.5593,22.5,12.5711,22.4865,12.5824,22.4726Q14.0078,20.75,21,20.75C21.4142,20.75,21.75,20.4142,21.75,20L21.75,9C21.75,8.585786,21.4142,8.25,21,8.25Q17.6526,8.25,14.8506,8.827964Q13.0484,9.199717,12,9.66696Q10.95164,9.199717,9.14938,8.827964ZM12.75,10.97632L12.75,20.4849Q14.0388,19.807299999999998,16.1435,19.5075Q17.7229,19.2825,20.25,19.2541L20.25,9.75769Q17.4912,9.814869999999999,15.1537,10.297039999999999Q13.624,10.61256,12.75,10.97632ZM11.25,10.97632Q10.37603,10.61256,8.846350000000001,10.297039999999999Q6.50882,9.814869999999999,3.75,9.75769L3.75,19.2541Q6.27707,19.2825,7.85649,19.5075Q9.961210000000001,19.807299999999998,11.25,20.4849L11.25,10.97632Z" fill-rule="evenodd" fill="#000000" fill-opacity="0.8999999761581421" style="mix-blend-mode:passthrough"/></g><g><path d="M12,10.75C14.62335,10.75,16.75,8.62335,16.75,6C16.75,3.37665,14.62335,1.25,12,1.25C9.37665,1.25,7.25,3.37665,7.25,6C7.25,8.62335,9.37665,10.75,12,10.75ZM12,2.75C13.79493,2.75,15.25,4.20507,15.25,6C15.25,7.79493,13.79493,9.25,12,9.25C10.20507,9.25,8.75,7.79493,8.75,6C8.75,4.20507,10.20507,2.75,12,2.75Z" fill-rule="evenodd" fill="#07C160" fill-opacity="1" style="mix-blend-mode:passthrough"/></g></g></svg>