<svg xmlns="http://www.w3.org/2000/svg" xmlns:xlink="http://www.w3.org/1999/xlink" fill="none" version="1.1" width="16" height="16" viewBox="0 0 16 16"><defs><clipPath id="master_svg0_2252_141423"><rect x="0" y="0" width="16" height="16" rx="0"/></clipPath></defs><g clip-path="url(#master_svg0_2252_141423)"><g><path d="M14.6666984375,12.600390625C14.9980984375,12.600390625,15.2666984375,12.331790625,15.2666984375,12.000390625L15.2666984375,2.000390625C15.2666984375,1.669019625,14.9980984375,1.400390625,14.6666984375,1.400390625L1.3333984375,1.400390625C1.0020274375,1.400390625,0.7333984375,1.669019625,0.7333984375,2.000390625L0.7333984375,12.000390625C0.7333984375,12.331790625,1.0020274375,12.600390625,1.3333984375,12.600390625L3.7333984375,12.600390625L3.7333984375,13.667090625C3.7333984375,13.998390625,4.0020284375,14.267090625,4.3333984375,14.267090625C4.4265484375,14.267090625,4.5184084375,14.245390625,4.6017284375,14.203690625L7.8083784375,12.600390625L14.6666984375,12.600390625ZM14.0666984375,11.400390625L7.6667284375,11.400390625C7.5735884375,11.400390625,7.4817184375,11.422090625,7.3983984375,11.463690625L4.9333984375,12.696190625L4.9333984375,12.000390625C4.9333984375,11.668990625,4.664768437499999,11.400390625,4.3333984375,11.400390625L1.9333984375,11.400390625L1.9333984375,2.600390625L14.0666984375,2.600390625L14.0666984375,11.400390625ZM11.3332984375,6.400390625L4.6666484375,6.400390625C4.3352784374999995,6.400390625,4.0666484375,6.669020625,4.0666484375,7.000390625C4.0666484375,7.331760625,4.3352784374999995,7.600390625,4.6666484375,7.600390625L11.3332984375,7.600390625C11.6646984375,7.600390625,11.9332984375,7.331760625,11.9332984375,7.000390625C11.9332984375,6.669020625,11.6646984375,6.400390625,11.3332984375,6.400390625Z" fill-rule="evenodd" fill="#FFFFFF" fill-opacity="1" style="mix-blend-mode:passthrough"/></g></g></svg>