<svg xmlns="http://www.w3.org/2000/svg" xmlns:xlink="http://www.w3.org/1999/xlink" fill="none" version="1.1" width="16" height="16" viewBox="0 0 16 16"><defs><clipPath id="master_svg0_2252_141432"><rect x="0" y="0" width="16" height="16" rx="0"/></clipPath></defs><g clip-path="url(#master_svg0_2252_141432)"><g><path d="M14.4236244140625,5.909455L14.4236244140625,5.909455C14.5328244140625,6.018505,14.6000244140625,6.168585,14.6000244140625,6.334375C14.6000244140625,6.665745,14.3314244140625,6.934375,14.0000244140625,6.934375L2.0000244140625,6.934375C1.6686534140625,6.934375,1.4000244140625,6.665745,1.4000244140625,6.334375C1.4000244140625,6.003005,1.6686534140625,5.734375,2.0000244140625,5.734375L12.5515244140625,5.734375L9.5757644140625,2.758635C9.4632344140625,2.6461170000000003,9.4000244140625,2.493505,9.4000244140625,2.334375C9.4000244140625,2.003004,9.6686544140625,1.734375,10.0000244140625,1.734375C10.1591544140625,1.734375,10.3117644140625,1.7975891,10.4243844140625,1.910207L14.4236244140625,5.909455ZM14.2664244140625,9.066405L2.2663814140625,9.066405C1.9350114140625,9.066405,1.6663814140625,9.335035000000001,1.6663814140625,9.666405000000001C1.6663814140625,9.832095,1.7335394140625,9.982095,1.8421184140625,10.090675L5.8419244140625,14.090475C5.9546444140625,14.203175,6.1072544140625,14.266375,6.2663844140625,14.266375C6.5977544140625,14.266375,6.8663844140625,13.997775,6.8663844140625,13.666375C6.8663844140625,13.507275,6.8031644140625,13.354675,6.6904444140625,13.241975L3.7149144140625,10.266405L14.2664244140625,10.266405C14.5977244140625,10.266405,14.8664244140625,9.997775,14.8664244140625,9.666405000000001C14.8664244140625,9.335035000000001,14.5977244140625,9.066405,14.2664244140625,9.066405Z" fill-rule="evenodd" fill="#FFFFFF" fill-opacity="1" style="mix-blend-mode:passthrough"/></g></g></svg>