<svg xmlns="http://www.w3.org/2000/svg" xmlns:xlink="http://www.w3.org/1999/xlink" fill="none" version="1.1" width="44" height="44" viewBox="0 0 44 44"><defs><clipPath id="master_svg0_2252_141442"><rect x="0" y="0" width="44" height="44" rx="8"/></clipPath></defs><g clip-path="url(#master_svg0_2252_141442)"><g><path d="M0,36L0,8C0,3.58172,3.58172,0,8,0L36,0C40.4183,0,44,3.58172,44,8L44,36C44,40.4183,40.4183,44,36,44L8,44C3.58172,44,0,40.4183,0,36Z" fill="#07C160" fill-opacity="1"/></g><g><path d="M30.603584355163573,8.456890106201172L26.768484355163576,14.422630106201172L37.69268435516357,36.348690106201175L30.332384355163573,36.348690106201175L22.662184355163575,20.77579010620117L12.667614355163575,36.348690106201175L5.307284355163574,36.348690106201175L22.584684355163574,9.425352106201172L21.771184355163573,8.456890106201172L30.603584355163573,8.456890106201172Z" fill="#FFFFFF" fill-opacity="1"/></g></g></svg>