<svg xmlns="http://www.w3.org/2000/svg" xmlns:xlink="http://www.w3.org/1999/xlink" fill="none" version="1.1" width="44" height="44" viewBox="0 0 44 44"><defs><clipPath id="master_svg0_2252_141437"><rect x="0" y="0" width="44" height="44" rx="8"/></clipPath></defs><g clip-path="url(#master_svg0_2252_141437)"><g><path d="M0,36L0,8C0,3.58172,3.58172,0,8,0L36,0C40.4183,0,44,3.58172,44,8L44,36C44,40.4183,40.4183,44,36,44L8,44C3.58172,44,0,40.4183,0,36Z" fill="#07C160" fill-opacity="1"/></g><g><path d="M36.72428113250732,22.945128356933594L34.942281132507325,35.6126283569336L16.115381132507324,35.6126283569336L17.897281132507324,22.945128356933594L36.72428113250732,22.945128356933594ZM8.173941132507323,23.100028356933592L9.103661132507323,16.514508356933593L6.469441132507324,16.514508356933593L7.011781132507324,12.834348356933594L9.607261132507325,12.834348356933594L10.072131132507323,9.619048356933593L9.142401132507324,8.495628356933594L16.812681132507322,8.495628356933594L16.192781132507324,12.834348356933594L18.013481132507323,12.834348356933594L17.471181132507326,16.514508356933593L15.689181132507324,16.514508356933593L14.991881132507324,21.395528356933596L16.851381132507324,20.930728356933592L16.309081132507323,24.998228356933595L14.410881132507324,25.463128356933595L13.248691132507323,33.753128356933594Q13.093731132507324,34.876628356933594,12.222121132507324,35.593228356933594Q11.350501132507326,36.3099283569336,10.265821132507323,36.3099283569336L3.796481132507324,36.3099283569336L6.818091132507324,32.82342835693359L7.592861132507324,27.128828356933592L4.9199011325073245,27.787428356933592L5.462241132507324,23.758628356933592L8.173941132507323,23.100028356933592ZM37.808881132507324,18.722628356933594Q37.653981132507326,19.846028356933594,36.801681132507326,20.620828356933593Q35.94948113250732,21.395528356933596,34.826081132507326,21.395528356933596L29.480181132507326,21.395528356933596L32.036881132507325,18.877528356933595L32.889181132507325,12.873088356933593L28.705381132507323,12.873088356933593L25.063981132507323,21.628028356933594L18.788281132507322,21.628028356933594L22.429681132507323,12.873088356933593L19.524381132507322,12.873088356933593L20.027981132507325,9.192922356933593L39.16478113250732,9.192922356933593L37.808881132507324,18.722628356933594ZM29.596381132507325,32.08742835693359L30.332381132507326,26.741528356933593L23.436881132507324,26.741528356933593L22.700881132507323,32.08742835693359L29.596381132507325,32.08742835693359Z" fill="#FFFFFF" fill-opacity="1"/></g></g></svg>