<svg xmlns="http://www.w3.org/2000/svg" xmlns:xlink="http://www.w3.org/1999/xlink" fill="none" version="1.1" width="44" height="44" viewBox="0 0 44 44"><defs><clipPath id="master_svg0_2719_013003"><rect x="0" y="0" width="44" height="44" rx="4"/></clipPath><clipPath id="master_svg1_2719_097073"><rect x="0" y="0" width="44" height="44" rx="2.949414014816284"/></clipPath><linearGradient x1="0.5" y1="0" x2="0.5" y2="1" id="master_svg2_2113_80152"><stop offset="0%" stop-color="#C0F5CC" stop-opacity="1"/><stop offset="100%" stop-color="#8EDEA0" stop-opacity="1"/></linearGradient></defs><g clip-path="url(#master_svg0_2719_013003)"><rect x="0" y="0" width="44" height="44" rx="4" fill="#FFFFFF" fill-opacity="1"/><g clip-path="url(#master_svg1_2719_097073)"><g><rect x="0" y="0" width="44" height="44" rx="2.949414014816284" fill="#E6F7EA" fill-opacity="1"/></g><g><path d="M30.79999921875,19.0666015625Q30.79999921875,19.2826315625,30.78989921875,19.4984015625Q30.77969921875,19.7141615625,30.75939921875,19.9291515625Q30.73909921875,20.1441415625,30.70869921875,20.3578015625Q30.67839921875,20.5715015625,30.63799921875,20.7834015625Q30.59759921875,20.9953015625,30.54729921875,21.204801562500002Q30.49699921875,21.4144015625,30.43689921875,21.6211015625Q30.37679921875,21.8278015625,30.30699921875,22.0312015625Q30.23729921875,22.2346015625,30.15809921875,22.4342015625Q30.07879921875,22.6338015625,29.99029921875,22.8291015625Q29.90179921875,23.0244015625,29.80419921875,23.2149015625Q29.70659921875,23.4054015625,29.60019921875,23.5907015625Q29.49379921875,23.7760015625,29.37869921875,23.9556015625Q29.26369921875,24.1352015625,29.14039921875,24.3088015625Q29.01709921875,24.4823015625,28.88569921875,24.6493015625Q28.75439921875,24.8163015625,28.61539921875,24.976301562499998Q28.47629921875,25.136401562499998,28.32989921875,25.2891015625Q28.18359921875,25.4419015625,28.03019921875,25.5870015625Q27.87679921875,25.732001562500002,27.71669921875,25.8691015625Q27.55669921875,26.0061015625,27.39039921875,26.1348015625Q27.22409921875,26.2635015625,27.05199921875,26.3835015625Q26.87989921875,26.5035015625,26.70229921875,26.6146015625Q26.52469921875,26.7257015625,26.34209921875,26.8275015625Q26.15949921875,26.9293015625,25.97239921875,27.0217015625Q25.78519921875,27.1141015625,25.59399921875,27.1967015625Q25.40269921875,27.2794015625,25.20779921875,27.3522015625Q25.01289921875,27.4250015625,24.81479921875,27.4877015625Q24.61659921875,27.5504015625,24.41579921875,27.6029015625Q24.21499921875,27.6554015625,24.01189921875,27.6975015625Q23.80889921875,27.7397015625,23.60409921875,27.7714015625Q23.39929921875,27.8031015625,23.19329921875,27.8242015625Q22.98729921875,27.8454015625,22.78049921875,27.8560015625Q22.57369921875,27.8666015625,22.36669921875,27.8666015625Q22.15969921875,27.8666015625,21.95289921875,27.8560015625Q21.74609921875,27.8454015625,21.54009921875,27.8242015625Q21.33399921875,27.8031015625,21.12929921875,27.7714015625Q20.92449921875,27.7397015625,20.72139921875,27.6975015625Q20.518399218749998,27.6554015625,20.31759921875,27.6029015625Q20.11669921875,27.5504015625,19.91859921875,27.4877015625Q19.72049921875,27.4250015625,19.52559921875,27.3522015625Q19.33069921875,27.2794015625,19.13939921875,27.1967015625Q18.948099218750002,27.1141015625,18.76099921875,27.0217015625Q18.57379921875,26.9293015625,18.39119921875,26.8275015625Q18.20869921875,26.7257015625,18.03109921875,26.6146015625Q17.853499218750002,26.5035015625,17.681399218750002,26.3835015625Q17.50919921875,26.2635015625,17.342999218750002,26.1348015625Q17.176699218750002,26.0061015625,17.016599218750002,25.8691015625Q16.85659921875,25.732001562500002,16.70319921875,25.5870015625Q16.54979921875,25.4419015625,16.40339921875,25.2891015625Q16.25699921875,25.136401562499998,16.11799921875,24.976301562499998Q15.97899921875,24.8163015625,15.84762921875,24.6493015625Q15.71628921875,24.4823015625,15.59296921875,24.3088015625Q15.46963921875,24.1352015625,15.35461921875,23.9556015625Q15.23960921875,23.7760015625,15.13316921875,23.5907015625Q15.02673921875,23.4054015625,14.92914921875,23.2149015625Q14.83155921875,23.0244015625,14.74303921875,22.8291015625Q14.65451921875,22.6338015625,14.57529921875,22.4342015625Q14.49606921875,22.2346015625,14.42632921875,22.0312015625Q14.35657921875,21.8278015625,14.29648921875,21.6211015625Q14.23638921875,21.4144015625,14.18608921875,21.204801562500002Q14.13577921875,20.9953015625,14.09538921875,20.7834015625Q14.05500921875,20.5715015625,14.02462921875,20.3578015625Q13.99424921875,20.1441415625,13.97395921875,19.9291515625Q13.95366921875,19.7141615625,13.94350921875,19.4984015625Q13.93334921875,19.2826315625,13.93334921875,19.0666015625Q13.93334921875,18.8505715625,13.94350921875,18.6348015625Q13.95366921875,18.4190415625,13.97395921875,18.2040515625Q13.99424921875,17.989061562499998,14.02462921875,17.7753715625Q14.05500921875,17.5616815625,14.09538921875,17.349801562499998Q14.13577921875,17.1379315625,14.18608921875,16.9283715625Q14.23638921875,16.7188215625,14.29648921875,16.5120915625Q14.35657921875,16.3053715625,14.42632921875,16.1019715625Q14.49606921875,15.898571562499999,14.57529921875,15.6989915625Q14.65451921875,15.499401562500001,14.74303921875,15.304111562500001Q14.83155921875,15.1088315625,14.92914921875,14.9183115625Q15.02673921875,14.7277915625,15.13316921875,14.5425015625Q15.23960921875,14.3572015625,15.35461921875,14.1775815625Q15.46963921875,13.9979615625,15.59296921875,13.8244515625Q15.71628921875,13.6509315625,15.84762921875,13.4839415625Q15.97899921875,13.3169515625,16.11799921875,13.1568815625Q16.25699921875,12.9968215625,16.40339921875,12.8440615625Q16.54979921875,12.691311562500001,16.70319921875,12.546231562500001Q16.85659921875,12.4011515625,17.016599218750002,12.2641115625Q17.176699218750002,12.1270615625,17.342999218750002,11.998371562500001Q17.50919921875,11.8696915625,17.681399218750002,11.7496715625Q17.853499218750002,11.6296515625,18.03109921875,11.5185915625Q18.20869921875,11.4075315625,18.39119921875,11.3056915625Q18.57379921875,11.2038595625,18.76099921875,11.1114955625Q18.948099218750002,11.0191315625,19.13939921875,10.9364615625Q19.33069921875,10.8537915625,19.52559921875,10.7810135625Q19.72049921875,10.7082365625,19.91859921875,10.6455265625Q20.11669921875,10.5828165625,20.31759921875,10.5303265625Q20.518399218749998,10.4778355625,20.72139921875,10.4356915625Q20.92449921875,10.3935465625,21.12929921875,10.3618482625Q21.33399921875,10.3301503625,21.54009921875,10.3089759625Q21.74609921875,10.2878015625,21.95289921875,10.2772015625Q22.15969921875,10.2666015625,22.36669921875,10.2666015625Q22.57369921875,10.2666015625,22.78049921875,10.2772015625Q22.98729921875,10.2878015625,23.19329921875,10.3089759625Q23.39929921875,10.3301503625,23.60409921875,10.3618482625Q23.80889921875,10.3935465625,24.01189921875,10.4356915625Q24.21499921875,10.4778355625,24.41579921875,10.5303265625Q24.61659921875,10.5828165625,24.81479921875,10.6455265625Q25.01289921875,10.7082365625,25.20779921875,10.7810135625Q25.40269921875,10.8537915625,25.59399921875,10.9364615625Q25.78519921875,11.0191315625,25.97239921875,11.1114955625Q26.15949921875,11.2038595625,26.34209921875,11.3056915625Q26.52469921875,11.4075315625,26.70229921875,11.5185915625Q26.87989921875,11.6296515625,27.05199921875,11.7496715625Q27.22409921875,11.8696915625,27.39039921875,11.998371562500001Q27.55669921875,12.1270615625,27.71669921875,12.2641115625Q27.87679921875,12.4011515625,28.03019921875,12.546231562500001Q28.18359921875,12.691311562500001,28.32989921875,12.8440615625Q28.47629921875,12.9968215625,28.61539921875,13.1568815625Q28.75439921875,13.3169515625,28.88569921875,13.4839415625Q29.01709921875,13.6509315625,29.14039921875,13.8244515625Q29.26369921875,13.9979615625,29.37869921875,14.1775815625Q29.49379921875,14.3572015625,29.60019921875,14.5425015625Q29.70659921875,14.7277915625,29.80419921875,14.9183115625Q29.90179921875,15.1088315625,29.99029921875,15.304111562500001Q30.07879921875,15.499401562500001,30.15809921875,15.6989915625Q30.23729921875,15.898571562499999,30.30699921875,16.1019715625Q30.37679921875,16.3053715625,30.43689921875,16.5120915625Q30.49699921875,16.7188215625,30.54729921875,16.9283715625Q30.59759921875,17.1379315625,30.63799921875,17.349801562499998Q30.67839921875,17.5616815625,30.70869921875,17.7753715625Q30.73909921875,17.989061562499998,30.75939921875,18.2040515625Q30.77969921875,18.4190415625,30.78989921875,18.6348015625Q30.79999921875,18.8505715625,30.79999921875,19.0666015625ZM5.86669921875,46.9330015625L38.13339921875,46.9330015625L38.13339921875,45.4663015625C38.13339921875,36.556101562500004,30.91019921875,29.3330015625,21.99999921875,29.3330015625C13.08983921875,29.3330015625,5.86669921875,36.556101562500004,5.86669921875,45.4663015625L5.86669921875,46.9330015625Z" fill="url(#master_svg2_2113_80152)" fill-opacity="1"/></g></g><rect x="0.25" y="0.25" width="43.5" height="43.5" rx="3.75" fill-opacity="0" stroke-opacity="1" stroke="#F2F2F6" fill="none" stroke-width="0.5"/></g></svg>