<svg xmlns="http://www.w3.org/2000/svg" xmlns:xlink="http://www.w3.org/1999/xlink" fill="none" version="1.1" width="20" height="20" viewBox="0 0 20 20"><defs><clipPath id="master_svg0_1795_032320"><path d="M0 0C0 0 0 0 0 0L20 0C20 0 20 0 20 0L20 20C20 20 20 20 20 20L4 20C1.7908610006768266 20 0 18.209138999323173 0 16Z"/></clipPath></defs><g clip-path="url(#master_svg0_1795_032320)"><path d="M0 0C0 0 0 0 0 0L20 0C20 0 20 0 20 0L20 20C20 20 20 20 20 20L4 20C1.7908610006768266 20 0 18.209138999323173 0 16Z" fill="#000000" fill-opacity="0.5"/><g><path d="M11.060581953125,10.000654375L14.696911953125,13.636984375C14.837571953125,13.777644375,14.916581953125,13.968404375,14.916581953125,14.167314375C14.916581953125,14.581534375,14.580801953125,14.917314375,14.166581953125,14.917314375C13.967671953125,14.917314375,13.776911953125,14.838304375,13.636251953125,14.697644375L9.999921953125,11.061314375L6.363581953125,14.697644375C6.222931953125,14.838304375,6.032163953125,14.917314375,5.833251953125,14.917314375C5.419037953125,14.917314375,5.083251953125,14.581534375,5.083251953125,14.167314375C5.083251953125,13.968404375,5.162269553125,13.777644375,5.302921953125,13.636984375L8.939261953125,10.000654375L5.302921953125,6.364314375C5.162269553125,6.223664375,5.083251953125,6.032896375,5.083251953125,5.833984375C5.083251953125,5.419770375,5.419037953125,5.083984375,5.833251953125,5.083984375C6.032163953125,5.083984375,6.222931953125,5.163001975,6.363731953125,5.303808375L9.999921953125,8.939994375L13.636251953125,5.303654375C13.776911953125,5.163001975,13.967671953125,5.083984375,14.166581953125,5.083984375C14.580801953125,5.083984375,14.916581953125,5.419770375,14.916581953125,5.833984375C14.916581953125,6.032896375,14.837571953125,6.223664375,14.696911953125,6.364314375L11.060581953125,10.000654375Z" fill-rule="evenodd" fill="#FFFFFF" fill-opacity="1" style="mix-blend-mode:passthrough"/></g></g></svg>