<svg xmlns="http://www.w3.org/2000/svg" xmlns:xlink="http://www.w3.org/1999/xlink" fill="none" version="1.1" width="32" height="32" viewBox="0 0 32 32"><defs><clipPath id="master_svg0_2719_011017"><rect x="0" y="0" width="32" height="32" rx="0"/></clipPath></defs><g clip-path="url(#master_svg0_2719_011017)"><g><path d="M30.6663078125,8.62667L30.6663078125,30.6667C30.6663078125,31.403,30.0694078125,32,29.3330078125,32L2.6663378125,32C1.9299608125,32,1.3330078125,31.403,1.3330078125,30.6667L1.3330078125,1.33333C1.333007659912,0.596954,1.9299618125,0,2.6663378125,0L22.0397078125,0L30.6663078125,8.62667Z" fill="#FC5A5A" fill-opacity="1" style="mix-blend-mode:passthrough"/></g><g><path d="M22.0400390625,7.29333L22.0400390625,0L30.6667090625,8.62667L23.3733690625,8.62667C22.6369920625,8.62667,22.0400390625,8.02971,22.0400390625,7.29333Z" fill="#C8403F" fill-opacity="1" style="mix-blend-mode:passthrough"/></g><g><path d="M22.2871,27C20.4947,27,18.901600000000002,23.8838,18.0482,21.864C16.6263,21.2578,15.06151,20.7098,13.55404,20.3345C12.2168,21.2292,9.96925,22.5565,8.2342,22.5565C7.15321,22.5565,6.384914,22.008,6.100443,21.0561C5.872866,20.2768,6.0722234,19.7288,6.2998,19.4402C6.754954,18.80545,7.69394,18.48782,9.11629,18.48782C10.25418,18.48782,11.70475,18.69003,13.32646,19.094C14.37878,18.343780000000002,15.43109,17.478160000000003,16.3701,16.55483C15.94314,14.53505,15.48799,11.27431,16.6545,9.773895C17.2235,9.0527742,18.105600000000003,8.821942,19.157899999999998,9.139105C20.3245,9.485354,20.7509,10.20694,20.8934,10.75493C21.3768,12.71701,19.157899999999998,15.37158,17.65,16.9297C17.991300000000003,18.286070000000002,18.418300000000002,19.6997,18.959,20.9984C21.121000000000002,21.9794,23.6808,23.4221,23.9657,25.0093C24.0795,25.5573,23.9083,26.0767,23.4819,26.5097C23.1118,26.8269,22.7136,27,22.2871,27ZM19.6413,22.6142C20.7227,24.836199999999998,21.7468,25.8749,22.2871,25.8749C22.3726,25.8749,22.4864,25.8458,22.6571,25.7013C22.856,25.4996,22.856,25.3551,22.8273,25.2397C22.7136,24.662599999999998,21.8032,23.7106,19.6413,22.6142ZM9.11629,19.642C7.72215,19.642,7.3239,19.9882,7.21011,20.1327C7.18143,20.1904,7.06764,20.334899999999998,7.18143,20.7389C7.2669999999999995,21.0851,7.49458,21.4314,8.2342,21.4314C9.14451,21.4314,10.45308,20.9116,11.98922,19.9882C10.87956,19.7574,9.91235,19.642,9.11584,19.642L9.11629,19.642ZM14.74882,19.4693C15.65913,19.7288,16.5977,20.0464,17.4797,20.392699999999998C17.166600000000003,19.5557,16.910800000000002,18.69003,16.6832,17.85349C16.0512,18.4077,15.40625,18.946460000000002,14.74882,19.4693ZM18.2763,10.14923C17.9631,10.14923,17.735500000000002,10.26464,17.5362,10.49548C16.939,11.24568,16.8821,13.15005,17.3373,15.573789999999999C19.0728,13.69805,20.0113,11.9668,19.7837,11.04347C19.7551,10.89943,19.6413,10.49548,18.8447,10.26464C18.6172,10.17785,18.4469,10.14923,18.2758,10.14923L18.2763,10.14923Z" fill="#FFFFFF" fill-opacity="1" style="mix-blend-mode:passthrough"/></g></g></svg>