<svg xmlns="http://www.w3.org/2000/svg" xmlns:xlink="http://www.w3.org/1999/xlink" fill="none" version="1.1" width="36" height="36" viewBox="0 0 36 36"><defs><clipPath id="master_svg0_1795_027944"><rect x="0" y="0" width="36" height="36" rx="0"/></clipPath></defs><g clip-path="url(#master_svg0_1795_027944)"><g><path d="M15.0849,28.804578125L3.31351,28.804578125C3.31351,28.804578125,0,28.804578125,0,25.063078125L0,6.132278125C0,2.392578125,3.31291,2.392578125,3.31291,2.392578125L23.0973,2.392578125C23.0973,2.392578125,26.412,2.392578125,26.412,6.134088125L26.412,19.729078125C25.4876,19.377278125,24.4876,19.200278125,23.4107,19.200278125C21.102,19.200278125,19.1049,20.032778125,17.471,21.672178125C15.8112,23.310878125,15.0068,25.288178125,15.0068,27.604078125C15.0068,28.014678125,15.0333,28.415078125,15.0849,28.804578125ZM11.5349,10.721978125C10.7533,10.146308125000001,9.77605,10.866038125,9.77605,12.019768125L9.77605,19.177378125C9.77605,20.328778125,10.7545,21.052078125,11.5361,20.475178125L16.3929,16.896378125C17.1744,16.316478125,17.1744,14.880078125,16.3929,14.300778125L11.5349,10.721978125ZM35.5818,25.732378125C35.3189,25.840478125,35.0614,25.840478125,34.8873,25.624378125L29.0742,20.083878125C28.9002,19.868978125,28.8131,19.654678125,28.8131,19.443978125L28.8131,10.592318125C28.8131,10.378018125,28.9002,10.059868125000001,29.0742,9.952428125L34.8873,4.406498125000001C35.0986,4.167588125,35.4173,4.124368125,35.6683,4.3002481249999995C35.9294,4.406498125000001,36.0164,4.727638125,36.0164,5.045188125L36.0164,24.986278125C36.0128,25.317578125,35.8405,25.612378125,35.5812,25.731778125L35.5818,25.732378125ZM23.4107,21.601378125C25.0782,21.601378125,26.4859,22.195578125,27.6534,23.366778125C28.8203,24.537278125,29.4134,25.950278125,29.4134,27.604078125C29.4134,29.257778125,28.8389,30.670278125,27.6534,31.841378125C26.4859,33.011978125,25.0596,33.606778125000005,23.4107,33.606778125000005C21.7617,33.606778125000005,20.3535,33.012578125000005,19.1679,31.841378125C18.001,30.670878125,17.4079,29.257778125,17.4079,27.604078125C17.4079,25.950278125,17.9824,24.537878125,19.1679,23.366778125C20.3355,22.196178125,21.7617,21.601378125,23.4107,21.601378125ZM25.8118,28.804578125C26.1326,28.811278125,26.4412,28.681678125,26.6611,28.448078125C26.9013,28.222978125,27.0123,27.922778125,27.0123,27.604078125C27.0123,27.285278125,26.9013,27.003778125,26.6611,26.760078125C26.4412,26.526478125,26.1326,26.396878125,25.8118,26.403478125L24.6112,26.403478125L24.6112,25.202978125C24.6112,24.884278125,24.5002,24.602678125,24.2601,24.358978125C24.0401,24.125378125,23.7315,23.995778125,23.4107,24.002378125C23.0908,24.000878125,22.7842,24.129578125,22.5613,24.358978125C22.3212,24.584078125,22.2101,24.884278125,22.2101,25.202978125L22.2101,26.403478125L21.0096,26.403478125C20.6888,26.396878125,20.3802,26.526478125,20.1602,26.760078125C19.9201,26.985178125,19.809,27.285278125,19.809,27.604078125C19.809,27.922778125,19.9201,28.204378125,20.1602,28.448078125C20.4003,28.691778125,20.677,28.804578125,21.0096,28.804578125L22.2101,28.804578125L22.2101,30.005178125C22.2101,30.323878125,22.3392,30.624078125,22.5613,30.849178125C22.8014,31.092878125,23.0781,31.205678125,23.4107,31.205678125C23.7305,31.207278125,24.0372,31.078478125,24.2601,30.849178125C24.5002,30.624078125,24.6112,30.323878125,24.6112,30.005178125L24.6112,28.804578125L25.8118,28.804578125Z" fill="#D2D5E2" fill-opacity="1" style="mix-blend-mode:passthrough"/></g></g></svg>