<svg xmlns="http://www.w3.org/2000/svg" xmlns:xlink="http://www.w3.org/1999/xlink" fill="none" version="1.1" width="12" height="12" viewBox="0 0 12 12"><defs><clipPath id="master_svg0_2719_013049"><rect x="0" y="0" width="12" height="12" rx="0"/></clipPath></defs><g clip-path="url(#master_svg0_2719_013049)"><g><path d="M1.93414,1.93414Q0.25,3.61827,0.25,6Q0.25,8.38173,1.93414,10.06586Q3.61827,11.75,6,11.75Q8.38173,11.75,10.06586,10.06586Q11.75,8.38173,11.75,6Q11.75,3.61827,10.06586,1.93414Q8.38173,0.25,6,0.25Q3.61827,0.25,1.93414,1.93414Z" fill-rule="evenodd" fill="#333333" fill-opacity="1" style="mix-blend-mode:passthrough"/></g><g><path d="M6,3.25C5.585789999999999,3.25,5.25,3.585786,5.25,4L5.25,5.25L4,5.25C3.585786,5.25,3.25,5.585789999999999,3.25,6C3.25,6.414210000000001,3.585786,6.75,4,6.75L5.25,6.75L5.25,8C5.25,8.41421,5.585789999999999,8.75,6,8.75C6.414210000000001,8.75,6.75,8.41421,6.75,8L6.75,6.75L8,6.75C8.41421,6.75,8.75,6.414210000000001,8.75,6C8.75,5.585789999999999,8.41421,5.25,8,5.25L6.75,5.25L6.75,4C6.75,3.585786,6.414210000000001,3.25,6,3.25Z" fill-rule="evenodd" fill="#FFFFFF" fill-opacity="1" style="mix-blend-mode:passthrough"/></g></g></svg>