<svg xmlns="http://www.w3.org/2000/svg" xmlns:xlink="http://www.w3.org/1999/xlink" fill="none" version="1.1" width="36" height="36" viewBox="0 0 36 36"><defs><clipPath id="master_svg0_2719_010949"><rect x="0" y="0" width="36" height="36" rx="12"/></clipPath></defs><g clip-path="url(#master_svg0_2719_010949)"><g><path d="M-0.00048828125,24L-0.00048828125,12C-0.00048828125,5.37258,5.37209171875,0,11.99951171875,0L23.99951171875,0C30.62691171875,0,35.99951171875,5.37258,35.99951171875,12L35.99951171875,24C35.99951171875,30.6274,30.62691171875,36,23.99951171875,36L11.99951171875,36C5.37209171875,36,-0.00048828125,30.6274,-0.00048828125,24Z" fill="#E5FCF4" fill-opacity="1"/></g><g><path d="M22.348825,14.061365C22.628925,14.061365,22.906025,14.082215,23.180925,14.113415C22.433625,10.632155000000001,18.712425,8.046875,14.465195,8.046875C9.717295,8.046875,5.828125,11.283045,5.828125,15.392675C5.828125,17.765555,7.122275,19.711975000000002,9.284905,21.223875L8.420845,23.821775000000002L11.440055000000001,22.307775C12.520904999999999,22.521675000000002,13.387985,22.741475,14.465195,22.741475C14.737085,22.741475,15.005175,22.728075,15.271885,22.707375C15.103305,22.130175,15.005175,21.525375,15.005175,20.897675C15.005175,17.123645,18.245725,14.061365,22.348825,14.061365ZM17.644025,11.544415C18.381825,11.544415,18.979125,12.142515,18.979125,12.880265C18.979125,13.617865,18.381825,14.215965,17.644025,14.215965C16.906425,14.215965,16.308325,13.617115,16.308325,12.880265C16.308325,12.142515,16.906425,11.544415,17.644025,11.544415ZM11.600445,14.242745C10.862835,14.242745,10.265495,13.644645,10.265495,12.906894999999999C10.265495,12.170045,10.862835,11.571954999999999,11.600445,11.571954999999999C12.338194999999999,11.571954999999999,12.935525,12.170045,12.935525,12.906894999999999C12.935525,13.644645,12.338194999999999,14.242745,11.600445,14.242745ZM30.171625,20.821875C30.171625,17.368895000000002,26.716425,14.553275,22.834625,14.553275C18.725025000000002,14.553275,15.488855,17.368895000000002,15.488855,20.821875C15.488855,24.280775,18.725025000000002,27.088975,22.834625,27.088975C23.695025,27.088975,24.562725,26.872175,25.426625,26.655975L27.795825,27.953775L27.146525,25.794775C28.880525,24.494875,30.171625,22.769775,30.171625,20.821875ZM20.577725,19.853175C20.052525,19.853175,19.626825,19.428175,19.626825,18.902275C19.626825,18.377675,20.052525,17.951345,20.577725,17.951345C21.103125,17.951345,21.528624999999998,18.377675,21.528624999999998,18.902275C21.528624999999998,19.428175,21.103125,19.853175,20.577725,19.853175ZM25.326325,19.908075C24.800425,19.908075,24.375425,19.481675,24.375425,18.956375C24.375425,18.431175,24.800425,18.006245,25.326325,18.006245C25.851025,18.006245,26.277325,18.431175,26.277325,18.956375C26.277325,19.481575,25.850925,19.908075,25.326325,19.908075Z" fill="#07C160" fill-opacity="1" style="mix-blend-mode:passthrough"/></g></g></svg>