<svg xmlns="http://www.w3.org/2000/svg" xmlns:xlink="http://www.w3.org/1999/xlink" fill="none" version="1.1" width="22" height="20" viewBox="0 0 22 20"><defs><clipPath id="master_svg0_2252_138840"><rect x="0" y="0" width="22" height="20" rx="0"/></clipPath></defs><g clip-path="url(#master_svg0_2252_138840)"><g><path d="M21.45007265625,9L19.25007265625,7L19.25007265625,4.25C19.25007265625,3.375,18.56257265625,2.75,17.60007265625,2.75L15.26257265625,2.75C14.85007265625,2.75,14.43757265625,2.625,14.16257265625,2.25L12.51257265625,0.75C11.82507265625,0.125,10.86257265625,0.125,10.17509265625,0.75L8.52509265625,2.25C8.11260265625,2.5,7.70010265625,2.75,7.28760265625,2.75L4.95009265625,2.75C3.98760265625,2.75,3.30010265625,3.375,3.30010265625,4.25L3.30010265625,6.375C3.30010265625,6.75,3.16259265625,7.125,2.75010265625,7.375L1.10009765625,9C0.41259765625,9.625,0.41259765625,10.50005,1.10009765625,11.12505L2.75010265625,12.62505C3.02509265625,12.87495,3.30010265625,13.25005,3.30010265625,13.62495L3.30010265625,15.75005C3.30010265625,16.62505,3.98760265625,17.25005,4.95009265625,17.25005L7.28760265625,17.25005C7.70010265625,17.25005,8.11260265625,17.37505,8.38760265625,17.75005L10.03759265625,19.25005C10.72507265625,19.87505,11.68757265625,19.87505,12.37507265625,19.25005L14.02507265625,17.75005C14.30007265625,17.50005,14.71257265625,17.25005,15.12507265625,17.25005L17.46257265625,17.25005C18.42507265625,17.25005,19.11257265625,16.62505,19.11257265625,15.75005L19.11257265625,13.62495C19.11257265625,13.25005,19.25007265625,12.87495,19.66257265625,12.62505L21.31257265625,11.12505C22.13757265625,10.50005,22.13757265625,9.5,21.45007265625,9ZM11.27507265625,14.00005L7.15010265625,6L9.21259265625,6L11.27507265625,10.125L13.33757265625,6L15.40007265625,6L11.27507265625,14.00005Z" fill="#000000" fill-opacity="0.20000000298023224" style="mix-blend-mode:passthrough"/></g></g></svg>