<svg xmlns="http://www.w3.org/2000/svg" xmlns:xlink="http://www.w3.org/1999/xlink" fill="none" version="1.1" width="16" height="19.9990234375" viewBox="0 0 16 19.9990234375"><g><g><path d="M11.7143,7.55859L11.7143,5.03981C11.7143,3.18869,10.4905,1.30434,7.99406,1.30933C5.58008,1.31414,4.25035,3.18869,4.25035,5.03981L4.25035,7.55859L11.7143,7.55859ZM2.9364,7.55859L2.9364,5.03981C2.93642,2.26911,5.20156,0,7.99409,0C10.7866,0,13.0518,2.25716,13.0518,5.03981L13.0518,7.55859L15.0602,7.55859C15.5792,7.55859,16,7.97788,16,8.49508L16,15.807C16,18.1239,14.1063,19.9989,11.7813,19.9989L4.20676,19.9989C1.8817,19.9989,0,18.1119,0,15.807L0,8.49508C0,7.97788,0.42077,7.55859,0.939807,7.55859L2.9364,7.55859ZM8.60603,15.646L8.60603,14.1025C8.9967,13.8784,9.25789,13.459,9.25791,12.9742C9.25791,12.2512,8.67734,11.6726,7.95175,11.6726C7.22608,11.6726,6.64562,12.2511,6.64562,12.9742C6.64562,13.46,6.90784,13.8802,7.2999,14.1039L7.2999,15.646C7.2999,16.0039,7.59378,16.2967,7.95297,16.2967C8.31215,16.2967,8.60603,16.0039,8.60603,15.646Z" fill-rule="evenodd" fill="#000000" fill-opacity="0.20000000298023224" style="mix-blend-mode:passthrough"/></g></g></svg>