<svg xmlns="http://www.w3.org/2000/svg" xmlns:xlink="http://www.w3.org/1999/xlink" fill="none" version="1.1" width="20" height="18" viewBox="0 0 20 18"><g><path d="M18.3404,4.44864L14.7621,4.44864C14.6676,5.63103,13.6395,6.56228,12.3841,6.56228L7.61588,6.56228C6.36067,6.56228,5.33267,5.63103,5.23801,4.44864L1.65977,4.44864C0.746877,4.44864,0,5.16611,0,6.04299L0,16.4059C0,17.2827,0.746877,18,1.65977,18L18.3404,18C19.2531,18,20,17.2827,20,16.4059L20,6.04299C20,5.16611,19.2531,4.44864,18.3404,4.44864ZM5.06074,7.31906C6.09199,7.31906,6.92793,8.13356,6.92793,9.13852C6.92793,10.1436,6.09199,10.9577,5.06074,10.9577C4.02949,10.9577,3.1935,10.1436,3.1935,9.13852C3.1935,8.13356,4.02949,7.31906,5.06074,7.31906ZM8.49461,13.8146C8.49461,14.4723,8.06408,14.7818,7.37945,14.7818L2.88555,14.7818C2.20087,14.7818,1.77612,14.4723,1.77612,13.8146L1.77612,12.1553C1.77612,11.4979,3.02548,10.9961,3.71017,10.9961C3.71017,10.9961,3.90931,10.999,4.00293,11.0428C4.09655,11.0865,4.76413,11.5112,5.06074,11.5112C5.35749,11.5112,6.10715,11.0935,6.20845,11.0428C6.30963,10.9915,6.4414,11,6.4414,11C7.12603,11,8.49458,11.4979,8.49458,12.1553L8.49461,13.8146L8.49461,13.8146ZM13.6567,14.6772L10.5648,14.6772C10.327,14.6772,10.0087,14.408,10.0087,14.0793C10.0087,13.7505,10.3538,13.4811,10.5917,13.4811L13.6207,13.4811C13.8589,13.4811,14.158,13.7505,14.158,14.0793C14.158,14.408,13.8948,14.6772,13.6567,14.6772ZM17.3108,12.3334L10.6719,12.3334C10.2154,12.3334,10.0001,12.0646,10.0001,11.7359C10.0001,11.4071,10.2154,11.1377,10.6719,11.1377L17.3108,11.1377C17.7673,11.1377,17.9535,11.4071,17.9535,11.7359C17.9535,12.0646,17.7673,12.3334,17.3108,12.3334ZM17.3194,10.014L10.6803,10.014C10.224,10.014,10.0087,9.74505,10.0087,9.41634C10.0087,9.08749,10.224,8.81818,10.6803,8.81818L17.3194,8.81818C17.7759,8.81818,17.962,9.08749,17.962,9.41634C17.962,9.74505,17.7759,10.014,17.3194,10.014ZM14.1392,3.96236C14.1392,5.06176,13.2115,5.95307,12.0669,5.95307L7.9246,5.95307C6.78007,5.95307,5.85228,5.06176,5.85228,3.96236C5.85228,2.86527,6.77642,1.97551,7.9177,1.97203C7.92825,0.881254,8.85161,0,9.98971,0C11.1275,0,12.051,0.881254,12.0616,1.9719C12.0633,1.9719,12.0651,1.97177,12.0669,1.97177C13.2115,1.97177,14.1392,2.86308,14.1392,3.96236ZM9.99583,1.03807C9.31401,1.03807,8.76133,1.56896,8.76133,2.22394C8.76133,2.8788,9.31398,3.40969,9.99583,3.40969C10.6776,3.40969,11.2302,2.8788,11.2302,2.22394C11.2302,1.56896,10.6776,1.03807,9.99583,1.03807Z" fill="#000000" fill-opacity="0.20000000298023224" style="mix-blend-mode:passthrough"/></g></svg>