<svg xmlns="http://www.w3.org/2000/svg" xmlns:xlink="http://www.w3.org/1999/xlink" fill="none" version="1.1" width="18" height="21" viewBox="0 0 18 21"><g><g><path d="M17.6128,2.982L17.1105,2.9715C17.0895,2.9715,15.0907,2.9295,13.0291,2.1105C10.9151,1.2705,9.54419,0.3045,9.53372,0.294L9.23023,0.0735C9.16744,0.021,9.08372,0,9,0C8.91628,0,8.83256,0.0315,8.76977,0.0735L8.46628,0.2835C8.44535,0.294,7.08488,1.26,4.9814,2.1C2.91977,2.919,0.92093,2.961,0.9,2.961L0.387209,2.9715C0.167442,2.982,0,3.1395,0,3.3495L0,11.844C0,16.296,5.85,21,9,21C12.15,21,18,16.296,18,11.8545L18,3.36C18,3.15,17.8221,2.982,17.6128,2.982ZM12.5686,11.991C12.4414,12.1197,12.2679,12.1917,12.0872,12.1905L9.6907,12.1905L9.6907,14.427C9.6907,14.805,9.38721,15.12,9.01047,15.12C8.82209,15.12,8.65465,15.0465,8.52907,14.9205C8.40076,14.7929,8.32909,14.6188,8.33023,14.4375L8.33023,12.201L5.91279,12.201C5.53605,12.201,5.23256,11.8965,5.23256,11.508C5.23256,11.319,5.30581,11.1405,5.4314,11.025C5.55698,10.899,5.72442,10.8255,5.91279,10.8255L8.3093,10.8255L8.3093,10.1325L6.60349,10.1325C6.22674,10.1325,5.92326,9.828,5.92326,9.4395C5.92326,9.2505,5.99651,9.072,6.12209,8.9565C6.24767,8.8305,6.41512,8.757,6.60349,8.757L7.77558,8.757L6.0907,7.056C5.95465,6.9195,5.89186,6.741,5.89186,6.573C5.89186,6.3945,5.95465,6.216,6.0907,6.09C6.36279,5.817,6.79186,5.817,7.06395,6.09L9,8.0325L10.936,6.0795C11.0721,5.943,11.25,5.88,11.4174,5.88C11.5953,5.88,11.7628,5.943,11.8988,6.0795C12.1605,6.3525,12.1709,6.783,11.8988,7.056L10.214,8.7465L11.386,8.7465C11.7628,8.7465,12.0663,9.051,12.0663,9.4395C12.0663,9.6285,11.993,9.807,11.8674,9.9225C11.7402,10.0512,11.5667,10.1231,11.386,10.122L9.66977,10.122L9.66977,10.815L12.0663,10.815C12.443,10.815,12.7465,11.1195,12.7465,11.508C12.7674,11.697,12.6942,11.865,12.5686,11.991Z" fill="#000000" fill-opacity="0.20000000298023224" style="mix-blend-mode:passthrough"/></g></g></svg>