<svg xmlns="http://www.w3.org/2000/svg" xmlns:xlink="http://www.w3.org/1999/xlink" fill="none" version="1.1" width="20" height="20" viewBox="0 0 20 20"><defs><linearGradient x1="0.2594238221645355" y1="0.197509765625" x2="0.748242199420929" y2="0.833300769329071" id="master_svg0_3662_062126"><stop offset="0%" stop-color="#FFCE8B" stop-opacity="1"/><stop offset="51.64144039154053%" stop-color="#F1F0F2" stop-opacity="1"/><stop offset="93.12421679496765%" stop-color="#FFCB86" stop-opacity="1"/></linearGradient></defs><g><g><path d="M17.6603,4.42265Q17.7738,4.48819,17.8778,4.56799Q17.9818,4.64779,18.0745,4.74049Q18.1672,4.83318,18.247,4.93718Q18.3268,5.04118,18.3923,5.1547Q18.4578,5.26822,18.508,5.38933Q18.5582,5.51044,18.5921,5.63706Q18.626,5.76368,18.6431,5.89365Q18.6603,6.02361,18.6603,6.1547L18.6603,13.8453Q18.6603,13.9764,18.6431,14.1064Q18.626,14.2363,18.5921,14.3629Q18.5582,14.4896,18.508,14.6107Q18.4578,14.7318,18.3923,14.8453Q18.3268,14.9588,18.247,15.0628Q18.1672,15.1668,18.0745,15.2595Q17.9818,15.3522,17.8778,15.432Q17.7738,15.5118,17.6603,15.5774L11,19.4226Q10.8865,19.4882,10.7654,19.5384Q10.6443,19.5885,10.5176,19.6224Q10.391,19.6564,10.2611,19.6735Q10.1311,19.6906,10,19.6906Q9.86891,19.6906,9.73895,19.6735Q9.60898,19.6564,9.48236,19.6224Q9.35574,19.5885,9.23463,19.5384Q9.11352,19.4882,9,19.4226L2.33975,15.5774Q2.22622,15.5118,2.12222,15.432Q2.01822,15.3522,1.92553,15.2595Q1.83284,15.1668,1.75304,15.0628Q1.67324,14.9588,1.6077,14.8453Q1.54215,14.7318,1.49199,14.6107Q1.44182,14.4896,1.40789,14.3629Q1.37397,14.2363,1.35686,14.1064Q1.33975,13.9764,1.33975,13.8453L1.33975,6.1547Q1.33975,6.02361,1.35686,5.89365Q1.37397,5.76368,1.40789,5.63706Q1.44182,5.51044,1.49199,5.38933Q1.54215,5.26823,1.6077,5.1547Q1.67324,5.04118,1.75304,4.93718Q1.83284,4.83318,1.92553,4.74049Q2.01822,4.6478,2.12222,4.56799Q2.22622,4.48819,2.33975,4.42265L9,0.57735Q9.11352,0.511807,9.23463,0.461642Q9.35574,0.411477,9.48236,0.377549Q9.60898,0.343622,9.73895,0.326511Q9.86891,0.309401,10,0.309401Q10.1311,0.309401,10.2611,0.326511Q10.391,0.343622,10.5176,0.377549Q10.6443,0.411477,10.7654,0.461642Q10.8865,0.511807,11,0.57735L17.6603,4.42265Z" fill="url(#master_svg0_3662_062126)" fill-opacity="1"/><path d="M18.6603,6.1547Q18.6603,6.02361,18.6431,5.89365Q18.626,5.76368,18.5921,5.63706Q18.5582,5.51044,18.508,5.38933Q18.4578,5.26823,18.3923,5.1547Q18.3268,5.04118,18.247,4.93718Q18.1672,4.83318,18.0745,4.74049Q17.9818,4.6478,17.8778,4.56799Q17.7738,4.48819,17.6603,4.42265L11,0.57735Q10.8865,0.511807,10.7654,0.461642Q10.6443,0.411477,10.5176,0.377549Q10.391,0.343622,10.2611,0.326511Q10.1311,0.309401,10,0.309401Q9.86891,0.309401,9.73895,0.326511Q9.60898,0.343622,9.48236,0.377549Q9.35574,0.411477,9.23463,0.461642Q9.11352,0.511807,9,0.57735L2.33975,4.42265Q2.22622,4.48819,2.12222,4.56799Q2.01822,4.6478,1.92553,4.74049Q1.83284,4.83318,1.75304,4.93718Q1.67324,5.04118,1.6077,5.1547Q1.54215,5.26823,1.49199,5.38933Q1.44182,5.51044,1.40789,5.63706Q1.37397,5.76368,1.35686,5.89365Q1.33975,6.02361,1.33975,6.1547L1.33975,13.8453Q1.33975,13.9764,1.35686,14.1064Q1.37397,14.2363,1.40789,14.3629Q1.44182,14.4896,1.49199,14.6107Q1.54215,14.7318,1.6077,14.8453Q1.67324,14.9588,1.75304,15.0628Q1.83284,15.1668,1.92553,15.2595Q2.01823,15.3522,2.12222,15.432Q2.22622,15.5118,2.33975,15.5774L9,19.4226Q9.11352,19.4882,9.23463,19.5384Q9.35574,19.5885,9.48236,19.6224Q9.60898,19.6564,9.73895,19.6735Q9.86891,19.6906,10,19.6906Q10.1311,19.6906,10.2611,19.6735Q10.391,19.6564,10.5176,19.6224Q10.6443,19.5885,10.7654,19.5384Q10.8865,19.4882,11,19.4226L17.6603,15.5774Q17.7738,15.5118,17.8778,15.432Q17.9818,15.3522,18.0745,15.2595Q18.1672,15.1668,18.247,15.0628Q18.3268,14.9588,18.3923,14.8453Q18.4578,14.7318,18.508,14.6107Q18.5582,14.4896,18.5921,14.3629Q18.626,14.2363,18.6431,14.1064Q18.6603,13.9764,18.6603,13.8453L18.6603,6.1547ZM10.5,1.44338L17.1603,5.28868Q17.6603,5.57735,17.6603,6.1547L17.6603,13.8453Q17.6603,14.4227,17.1603,14.7113L10.5,18.5566Q10,18.8453,9.5,18.5566L2.83975,14.7113Q2.33975,14.4227,2.33975,13.8453L2.33975,6.1547Q2.33975,5.57735,2.83975,5.28868L9.5,1.44338Q10,1.1547,10.5,1.44338Z" fill-rule="evenodd" fill="#CB731E" fill-opacity="1"/></g><g><path d="M13.98388546875,8.3369140625Q14.10357546875,8.3369140625,14.20800546875,8.3408203125Q14.31273546875,8.3445601425,14.40283546875,8.3554687625Q14.49259546875,8.3666891625,14.58984546875,8.3857421625Q14.68708546875,8.4044432625,14.80664546875,8.4570310625Q14.92632546875,8.5093940625,15.00097546875,8.6250000625Q15.07578546875,8.7409480625,15.07617546875,8.9648440625Q15.07617546875,9.2341400625,14.97851546875,9.7734340625L14.84423546875,10.5283240625Q14.79187546875,10.8200540625,14.73193546875,10.9511740625Q14.67208546875,11.0820840625,14.55224546875,11.1757840625Q14.43255546875,11.2692840625,14.02099546875,11.3886740625L12.80175546875,11.7333940625Q12.55490546875,11.8007240625,12.43554546875,11.8486340625Q12.31585546875,11.8972540625,12.25976546875,11.9501940625Q12.20366546875,12.0025540625,12.16992546875,12.0771440625Q12.13625546875,12.1519540625,12.09863546875,12.3691440625L11.95654546875,13.1689440625L14.50732546875,13.1689440625L14.16357546875,14.0000040625L10.90185546875,14.0000040625L11.19335946875,12.3388640625Q11.28312546875,11.8451540625,11.36181646875,11.6699240625Q11.44036146875,11.4941340625,11.56005846875,11.3847640625Q11.67974646875,11.2762940625,11.90429546875,11.1904340625Q12.12871546875,11.1044040625,12.62255546875,10.9628940625L13.45996546875,10.7236340625Q13.766655468749999,10.633864062499999,13.85644546875,10.5546840625Q13.946215468750001,10.4761440625,13.98388546875,10.2597640625L14.07373546875,9.7509740625Q14.12609546875,9.451754062500001,14.12597546875,9.3837940625Q14.12597546875,9.2416600625,14.02099546875,9.2011720625Q13.91626546875,9.1600290625,13.61718546875,9.1601560625L11.89697246875,9.1601560625L11.74707046875,8.3369140625L13.98388546875,8.3369140625Z" fill="#7B4903" fill-opacity="1"/></g><g><path d="M6.43484375,7.0595703125L7.98484375,12.1095703125L8.04484375,12.1095703125L9.67484375,7.0595703125L11.53484375,7.0595703125L9.06484375,13.999570312500001L6.87484375,13.999570312500001L4.46484375,7.0595703125L6.43484375,7.0595703125Z" fill="#7B4903" fill-opacity="1"/></g></g></svg>