<svg xmlns="http://www.w3.org/2000/svg" xmlns:xlink="http://www.w3.org/1999/xlink" fill="none" version="1.1" width="20" height="20" viewBox="0 0 20 20"><defs><clipPath id="master_svg0_1994_72569"><rect x="0" y="0" width="20" height="20" rx="0"/></clipPath></defs><g clip-path="url(#master_svg0_1994_72569)"><g><path d="M0.916748046875,10.0003221875Q0.916748046875,13.7626921875,3.577188046875,16.4231921875Q6.237688046875,19.0836921875,10.000078046875,19.0836921875Q13.762448046875,19.0836921875,16.422948046875,16.4231921875Q19.083448046875,13.7626921875,19.083448046875,10.0003221875Q19.083448046875,6.2379321875,16.422948046875,3.5774421875Q13.762448046875,0.9169921875,10.000078046875,0.9169921875Q6.237678046875,0.9169921875,3.577198046875,3.5774321875Q0.916748046875,6.2379221875,0.916748046875,10.0003221875Z" fill-rule="evenodd" fill="#07C160" fill-opacity="1" style="mix-blend-mode:passthrough"/></g><g><path d="M14.916748046875,7.5C14.916748046875,7.698912,14.837728046875,7.88968,14.697078046875,8.03033L14.697078046875,8.03033L9.697078046875,13.03033C9.556428046875,13.17098,9.365658046875,13.25,9.166748046875,13.25C8.967838046875,13.25,8.777068046875,13.17098,8.636418046875,13.03033L6.136713046875,10.53063L6.136713046875,10.53063C5.995765646875,10.38968,5.916748046875,10.19891,5.916748046875,10C5.916748046875,9.58579,6.252534046875,9.25,6.666748046875,9.25C6.865660046875,9.25,7.056428046875,9.32902,7.197078046875,9.46967L9.166748046875,11.43934L13.635958046875,6.9701319999999996L13.635958046875,6.9701319999999996C13.777068046875,6.8290176,13.967838046875,6.75,14.166748046875,6.75C14.580958046875,6.75,14.916748046875,7.085786,14.916748046875,7.5Z" fill-rule="evenodd" fill="#FFFFFF" fill-opacity="1" style="mix-blend-mode:passthrough"/></g></g></svg>