<svg xmlns="http://www.w3.org/2000/svg" xmlns:xlink="http://www.w3.org/1999/xlink" fill="none" version="1.1" width="16" height="16" viewBox="0 0 16 16"><defs><clipPath id="master_svg0_1795_221240"><rect x="0" y="0" width="16" height="16" rx="0"/></clipPath></defs><g clip-path="url(#master_svg0_1795_221240)"><g><path d="M2.33349609375,13.5L14.33349609375,13.5C14.60959609375,13.5,14.83349609375,13.7239,14.83349609375,14C14.83349609375,14.2761,14.60959609375,14.5,14.33349609375,14.5L2.33349609375,14.5C2.05735409375,14.5,1.83349609375,14.2761,1.83349609375,14C1.83349609375,13.7239,2.05735409375,13.5,2.33349609375,13.5ZM10.21110609375,1.646622L10.21110609375,1.646622C10.40669609375,1.4511136,10.72328609375,1.451183,10.91849609375,1.646488L13.35349609375,4.082520000000001C13.54859609375,4.27777,13.54859609375,4.59423,13.35349609375,4.78947L6.45920609375,11.6868C6.36542609375,11.7806,6.23821609375,11.8333,6.10556609375,11.8333L3.66650609375,11.8333C3.39036609375,11.8333,3.16650609375,11.6094,3.16650609375,11.3333L3.16650609375,8.906600000000001C3.16650609375,8.774090000000001,3.21909609375,8.64701,3.31273609375,8.55326L10.21110609375,1.646622ZM4.16650609375,9.11353L10.56500609375,2.70736L12.29289609375,4.436L5.89839609375,10.8333L4.16650609375,10.8333L4.16650609375,9.11353Z" fill-rule="evenodd" fill="#FFFFFF" fill-opacity="1" style="mix-blend-mode:passthrough"/></g></g></svg>