<svg xmlns="http://www.w3.org/2000/svg" xmlns:xlink="http://www.w3.org/1999/xlink" fill="none" version="1.1" width="20" height="20" viewBox="0 0 20 20"><defs><clipPath id="master_svg0_1994_71217"><rect x="0" y="0" width="20" height="20" rx="0"/></clipPath></defs><g style="opacity:0.699999988079071;" clip-path="url(#master_svg0_1994_71217)"><g><path d="M1.75,17.916503846645355Q1.750000238419,6.023493846645355,10.08333,5.521923846645355L10.08333,1.6665038466453552C10.08333,1.2522898466453551,10.41912,0.9165038466453552,10.83333,0.9165038466453552C11.03225,0.9165038466453552,11.22301,0.9955214466453552,11.36366,1.1361738466453553L18.8637,8.636173846645356C19.1566,8.929063846645356,19.1566,9.403943846645355,18.8637,9.696833846645355C18.8637,9.696833846645355,18.8483,9.711763846645356,18.8483,9.711763846645356L11.3483,16.795103846645354C11.20369,16.931703846645355,11.01074,17.005203846645355,10.81191,16.999503846645354C10.61308,16.993803846645356,10.42465,16.909403846645354,10.28807,16.764803846645357C10.15659,16.625603846645355,10.08333,16.441303846645354,10.08333,16.249803846645356L10.08333,12.454503846645355Q7.2439,12.746603846645355,5.04593,15.282703846645354Q3.77446,16.749803846645356,3.1963600000000003,18.195003846645356C3.0425199999999997,18.579603846645355,2.606045,18.766703846645356,2.221457,18.612903846645356C1.936713,18.499003846645355,1.75,18.223203846645355,1.75,17.916503846645355ZM10.83333,6.999833846645355Q6.7696,6.999833846645355,4.954330000000001,9.831673846645355Q3.75932,11.695903846645356,3.40221,14.920603846645355Q3.64396,14.610003846645355,3.9124,14.300303846645356Q6.84503,10.916503846645355,10.83333,10.916503846645355C11.24755,10.916503846645355,11.58333,11.252303846645356,11.58333,11.666503846645355L11.58333,14.509903846645356L17.2573,9.151133846645354L11.58333,3.477163846645355L11.58333,6.249833846645355C11.58333,6.664053846645356,11.24755,6.999833846645355,10.83333,6.999833846645355Z" fill-rule="evenodd" fill="#000000" fill-opacity="1" style="mix-blend-mode:passthrough"/></g></g></svg>