<svg xmlns="http://www.w3.org/2000/svg" xmlns:xlink="http://www.w3.org/1999/xlink" fill="none" version="1.1" width="12" height="11.87246322631836" viewBox="0 0 12 11.87246322631836"><defs><clipPath id="master_svg0_1994_018446"><rect x="0" y="0" width="12" height="11.87246322631836" rx="0"/></clipPath></defs><g clip-path="url(#master_svg0_1994_018446)"><g><path d="M10.06664828125,9.3460959765625C10.26836828125,9.5478159765625,10.26836828125,9.8749459765625,10.06664828125,10.0766659765625C9.96578828125,10.1775259765625,9.83353828125,10.2280159765625,9.70142828125,10.2280159765625C9.569308281249999,10.2280159765625,9.43706828125,10.1775259765625,9.33620828125,10.0766659765625L5.99989828125,6.7403559765625L2.66359828125,10.0766659765625C2.56273628125,10.1775259765625,2.43049328125,10.2280159765625,2.2983782812499998,10.2280159765625C2.16626428125,10.2280159765625,2.03402128125,10.1775259765625,1.93315928125,10.0766659765625C1.73143668125,9.8749359765625,1.73143668125,9.5478159765625,1.93315928125,9.3460959765625L5.2693382812500005,6.0097859765625L1.93303028125,2.6734859765625C1.73130748125,2.4717629765625,1.73130748125,2.1446409765625,1.93303028125,1.9429179765625C2.13475328125,1.7411951765625,2.46187528125,1.7411951765625,2.66359828125,1.9429179765625L5.99989828125,5.2792259765625005L9.33607828125,1.9430469765625C9.53779828125,1.7413243765625,9.86492828125,1.7413243765625,10.06664828125,1.9430469765625C10.26836828125,2.1447699765625,10.26836828125,2.4718919765625,10.06664828125,2.6736149765625L6.73033828125,6.0099159765625L10.06664828125,9.3462259765625L10.06664828125,9.3460959765625Z" fill="#000000" fill-opacity="0.4000000059604645" style="mix-blend-mode:passthrough"/></g></g></svg>