<svg xmlns="http://www.w3.org/2000/svg" xmlns:xlink="http://www.w3.org/1999/xlink" fill="none" version="1.1" width="20" height="20" viewBox="0 0 20 20"><defs><clipPath id="master_svg0_2063_91959"><rect x="0" y="0" width="20" height="20" rx="0"/></clipPath></defs><g clip-path="url(#master_svg0_2063_91959)"><g><path d="M4.967832999725342,2.652636766433716L7.081412999725342,2.652636766433716Q7.895642999725342,2.652636766433716,8.290892999725342,3.364512766433716L9.310242999725343,5.200716766433716Q9.664272999725341,5.838476766433716,9.338042999725342,6.490836766433716L8.442672999725342,8.281606766433715Q8.730332999725341,9.475766766433715,9.728612999725343,10.474046766433716Q10.726362999725342,11.471796766433716,11.915502999725343,11.755416766433715L13.706662999725342,10.859856766433715Q14.359462999725341,10.533386766433715,14.997462999725341,10.888086766433716L16.838862999725343,11.911836766433716Q17.55006299972534,12.307306766433715,17.55006299972534,13.120836766433715L17.55006299972534,15.234836766433716Q17.55006299972534,16.320636766433715,16.704662999725343,16.960936766433715Q15.840462999725341,17.615536766433713,14.804162999725342,17.265836766433715Q9.710532999725341,15.547136766433717,7.183042999725342,13.019636766433717Q4.655552999725342,10.492176766433715,2.9368119997253417,5.398466766433716Q2.5871549997253416,4.362176766433716,3.2416969997253418,3.4980307664337156Q3.8820329997253418,2.652636766433716,4.967832999725342,2.652636766433716ZM4.967832999725342,3.752636766433716Q4.428772999725342,3.752636766433716,4.118552999725342,4.162196766433716Q3.815572999725342,4.562206766433716,3.979072999725342,5.046776766433716Q5.615482999725342,9.896456766433715,7.960872999725342,12.241796766433716Q10.306242999725342,14.587236766433715,15.155862999725342,16.223536766433718Q15.640462999725342,16.387136766433716,16.040462999725342,16.084136766433716Q16.45006299972534,15.773936766433716,16.45006299972534,15.234836766433716L16.45006299972534,13.120836766433715Q16.45006299972534,12.954236766433716,16.304362999725342,12.873236766433715L14.462962999725342,11.849496766433715Q14.332362999725342,11.776846766433716,14.198562999725342,11.843726766433717L12.234872999725342,12.825536766433716C12.126812999725342,12.879636766433716,12.003972999725342,12.896536766433716,11.885322999725341,12.873736766433716Q10.261232999725342,12.562296766433716,8.950802999725342,11.251866766433716Q7.640922999725341,9.941996766433716,7.3242429997253415,8.313886766433715C7.301082999725342,8.194806766433715,7.3179329997253415,8.071416766433716,7.372182999725342,7.962906766433716L8.354202999725342,5.998826766433716Q8.421012999725342,5.865236766433716,8.34850299972534,5.7346167664337155L7.329182999725342,3.898476766433716Q7.248212999725342,3.752636766433716,7.081412999725342,3.752636766433716L4.967832999725342,3.752636766433716Z" fill-rule="evenodd" fill="#000000" fill-opacity="0.699999988079071" style="mix-blend-mode:passthrough"/></g></g></svg>