<svg xmlns="http://www.w3.org/2000/svg" xmlns:xlink="http://www.w3.org/1999/xlink" fill="none" version="1.1" width="20" height="20" viewBox="0 0 20 20"><defs><clipPath id="master_svg0_3662_066581"><rect x="0" y="0" width="20" height="20" rx="0"/></clipPath></defs><g clip-path="url(#master_svg0_3662_066581)"><g><path d="M0.9169921875,10.0003221875Q0.9169921875,13.7626921875,3.5774321875,16.4231921875Q6.2379321875,19.0836921875,10.0003221875,19.0836921875Q13.7626921875,19.0836921875,16.4231921875,16.4231921875Q19.0836921875,13.7626921875,19.0836921875,10.0003221875Q19.0836921875,6.2379321875,16.4231921875,3.5774421875Q13.7626921875,0.9169921875,10.0003221875,0.9169921875Q6.2379221875,0.9169921875,3.5774421875,3.5774321875Q0.9169921875,6.2379221875,0.9169921875,10.0003221875Z" fill-rule="evenodd" fill="#9C6239" fill-opacity="1" style="mix-blend-mode:passthrough"/></g><g><path d="M14.9169921875,7.5C14.9169921875,7.698912,14.8379721875,7.88968,14.6973221875,8.03033L14.6973221875,8.03033L9.6973221875,13.03033C9.5566721875,13.17098,9.3659021875,13.25,9.1669921875,13.25C8.9680821875,13.25,8.7773121875,13.17098,8.6366621875,13.03033L6.1369571875,10.53063L6.1369571875,10.53063C5.9960097875,10.38968,5.9169921875,10.19891,5.9169921875,10C5.9169921875,9.58579,6.2527781875,9.25,6.6669921875,9.25C6.8659041875,9.25,7.0566721875,9.32902,7.1973221875,9.46967L9.1669921875,11.43934L13.6362021875,6.9701319999999996L13.6362021875,6.9701319999999996C13.7773121875,6.8290176,13.9680821875,6.75,14.1669921875,6.75C14.5812021875,6.75,14.9169921875,7.085786,14.9169921875,7.5Z" fill-rule="evenodd" fill="#FFFFFF" fill-opacity="1" style="mix-blend-mode:passthrough"/></g></g></svg>