<svg xmlns="http://www.w3.org/2000/svg" xmlns:xlink="http://www.w3.org/1999/xlink" fill="none" version="1.1" width="20" height="20" viewBox="0 0 20 20"><g><g><path d="M17.5,0L2.5,0C1.1248,0,0,1.1248,0,2.5L0,17.5C0,18.8752,1.1248,20,2.5,20L17.5,20C18.8752,20,20,18.8752,20,17.5L20,2.5C20,1.1248,18.8752,0,17.5,0Z" fill="#EECE9F" fill-opacity="1" style="mix-blend-mode:passthrough"/></g><g><path d="M4.54671,11.44822L4.54671,6.55656L15.484,6.55656L15.484,11.44822L4.54706,11.44822L4.54671,11.44822ZM3,16L3,14.7292L6.37274,14.7292L5.58367,11.41853L7.4708,11.41853L8.32166,14.7289L11.67869,14.7289L12.52955,11.41853L14.4167,11.41853L13.6123,14.7289L17,14.7289L17,15.9997L3,15.9997L3,16ZM6.48097,10.17744L13.5505,10.17744L13.5505,7.81266L6.48062,7.81266L6.48062,10.17744L6.48097,10.17744ZM3.432939,5.27111L3.432939,4L16.5824,4L16.5824,5.27078L3.433289,5.27078L3.432939,5.27111Z" fill="#593100" fill-opacity="1" style="mix-blend-mode:passthrough"/></g></g></svg>