<svg xmlns="http://www.w3.org/2000/svg" xmlns:xlink="http://www.w3.org/1999/xlink" fill="none" version="1.1" width="60" height="60" viewBox="0 0 60 60"><g><path d="M30,0C13.4314,0,0,13.4315,0,30C0,46.5685,13.4314,60,30,60C46.5685,60,60,46.5685,60,30C60,13.4315,46.5686,-0.00000256221,30,0ZM16.1573,16.6117L44.5303,16.6117L44.5303,19.8078L16.1573,19.8078L16.1573,16.6117ZM42.0642,23.142L42.0642,35.6368L18.6231,35.6368L18.6231,23.142L42.064,23.142L42.0642,23.142ZM45.3337,46L15.3536,46L15.3536,42.8386L24.0906,42.8386C23.2903,41.158,22.2483,39.3516,20.9546,37.411L24.0906,36.1683C25.3358,38.0111,26.4451,40.2365,27.4296,42.8387L33.3638,42.8387C34.5383,40.8308,35.5715,38.6039,36.458,36.1683L39.8677,37.411C38.9757,39.4665,38.0132,41.2773,36.9932,42.8386L45.3338,42.8386L45.3338,46L45.3337,46ZM22.023,26.3359L38.6998,26.3359L38.6998,32.4444L22.023,32.4444L22.023,26.3359L22.023,26.3359Z" fill="#07C160" fill-opacity="1" style="mix-blend-mode:passthrough"/></g></svg>