<svg xmlns="http://www.w3.org/2000/svg" xmlns:xlink="http://www.w3.org/1999/xlink" fill="none" version="1.1" width="20" height="20" viewBox="0 0 20 20"><defs><clipPath id="master_svg0_2063_91962"><rect x="0" y="0" width="20" height="20" rx="0"/></clipPath></defs><g clip-path="url(#master_svg0_2063_91962)"><g><path d="M1.11676025390625,2.50001220703125L1.11676025390625,15.00001220703125C1.11676025390625,15.30381220703125,1.36300325390625,15.55001220703125,1.66676025390625,15.55001220703125L7.68894025390625,15.55001220703125L9.61118025390625,17.472212207031248C9.82597025390625,17.687012207031252,10.17421025390625,17.687012207031252,10.38900025390625,17.472212207031248L12.31126025390625,15.55001220703125L18.33346025390625,15.55001220703125C18.63716025390625,15.55001220703125,18.88346025390625,15.30381220703125,18.88346025390625,15.00001220703125L18.88346025390625,2.50001220703125C18.88346025390625,2.1962552070312498,18.63716025390625,1.95001220703125,18.33346025390625,1.95001220703125L1.66676025390625,1.95001220703125C1.36300325390625,1.95001220703125,1.11676025390625,2.1962552070312498,1.11676025390625,2.50001220703125ZM2.21676025390625,14.45001220703125L7.91676025390625,14.45001220703125C8.06263025390625,14.45001220703125,8.20252025390625,14.50791220703125,8.30567025390625,14.61111220703125L10.00009025390625,16.30551220703125L11.69456025390625,14.61111220703125C11.79766025390625,14.50791220703125,11.93756025390625,14.45001220703125,12.08346025390625,14.45001220703125L17.78346025390625,14.45001220703125L17.78346025390625,3.05001220703125L2.21676025390625,3.05001220703125L2.21676025390625,14.45001220703125ZM4.86700025390625,8.75001220703125C4.86700025390625,8.44625220703125,5.11325025390625,8.20001220703125,5.41700025390625,8.20001220703125L6.24988025390625,8.20001220703125C6.55364025390625,8.20001220703125,6.79988025390625,8.44625220703125,6.79988025390625,8.75001220703125C6.79988025390625,9.053772207031251,6.55364025390625,9.30001220703125,6.24988025390625,9.30001220703125L5.41700025390625,9.30001220703125C5.11325025390625,9.30001220703125,4.86700025390625,9.053772207031251,4.86700025390625,8.75001220703125ZM9.03326025390625,8.75001220703125C9.03326025390625,8.44625220703125,9.27951025390625,8.20001220703125,9.58326025390625,8.20001220703125L10.41764025390625,8.20001220703125C10.72140025390625,8.20001220703125,10.96764025390625,8.44625220703125,10.96764025390625,8.75001220703125C10.96764025390625,9.053772207031251,10.72140025390625,9.30001220703125,10.41764025390625,9.30001220703125L9.58326025390625,9.30001220703125C9.27951025390625,9.30001220703125,9.03326025390625,9.053772207031251,9.03326025390625,8.75001220703125ZM13.20046025390625,8.75001220703125C13.20046025390625,8.44625220703125,13.44676025390625,8.20001220703125,13.75046025390625,8.20001220703125L14.58336025390625,8.20001220703125C14.88716025390625,8.20001220703125,15.13336025390625,8.44625220703125,15.13336025390625,8.75001220703125C15.13336025390625,9.053772207031251,14.88716025390625,9.30001220703125,14.58336025390625,9.30001220703125L13.75046025390625,9.30001220703125C13.44676025390625,9.30001220703125,13.20046025390625,9.053772207031251,13.20046025390625,8.75001220703125Z" fill-rule="evenodd" fill="#000000" fill-opacity="0.699999988079071" style="mix-blend-mode:passthrough"/></g></g></svg>