<svg xmlns="http://www.w3.org/2000/svg" xmlns:xlink="http://www.w3.org/1999/xlink" fill="none" version="1.1" width="16" height="16" viewBox="0 0 16 16"><g><g><path d="M2.22299,2.22299Q0,4.44598,0,7.58975Q0,10.7335,2.22299,12.9565Q4.44598,15.1795,7.58975,15.1795Q10.4213,15.1795,12.5058,13.3761L14.9493,15.8196C15.0649,15.9352,15.2214,16,15.3846,16C15.7245,16,16,15.7245,16,15.3846C16,15.2214,15.9352,15.0649,15.8196,14.9493L13.3761,12.5058Q15.1795,10.4213,15.1795,7.58975Q15.1795,4.44598,12.9565,2.22299Q10.7335,0,7.58975,0Q4.44598,0,2.22299,2.22299ZM3.09328,12.0862Q1.23077,10.2237,1.23077,7.58975Q1.23077,4.95578,3.09328,3.09328Q4.95578,1.23077,7.58975,1.23077Q10.2237,1.23077,12.0862,3.09328Q13.9487,4.95578,13.9487,7.58975Q13.9487,10.2237,12.0862,12.0862Q10.2237,13.9487,7.58975,13.9487Q4.95578,13.9487,3.09328,12.0862Z" fill-rule="evenodd" fill="#000000" fill-opacity="0.6000000238418579" style="mix-blend-mode:passthrough"/></g></g></svg>