<svg xmlns="http://www.w3.org/2000/svg" xmlns:xlink="http://www.w3.org/1999/xlink" fill="none" version="1.1" width="20" height="20" viewBox="0 0 20 20"><g><path d="M17.5,0L2.5,0C1.1248,0,0,1.1248,0,2.5L0,17.5C0,18.8752,1.1248,20,2.5,20L17.5,20C18.8752,20,20,18.8752,20,17.5L20,2.5C20,1.1248,18.8752,0,17.5,0ZM10,15.3752C9.1252,15.3752,8.3748,15.25,7.6252,15C7.1252,15.25,6.3752,15.8748,6.1252,16C5.6252,16.25,5.75,15.75,5.75,15.75L6,14.25C4.5,13.25,3.6248,11.6252,3.6248,9.8752C3.6248,6.75,6.5,4.25,10,4.25C12.1252,4.25,14.1248,5.25,15.25,6.6252L9,9.5C9,9.5,8.5,9.75,8,9.3752L7,8.6252C7,8.6252,6.25,8,6.6248,9L7.6248,11.25C7.6248,11.25,7.75,11.8748,8.5,11.5C9.1252,11.25,13.75,8.3752,15.75,7.25C16.1252,8,16.3748,8.8752,16.3748,9.75C16.3748,12.75,13.5,15.3752,10,15.3752Z" fill="#07C160" fill-opacity="1" style="mix-blend-mode:passthrough"/></g></svg>