<svg xmlns="http://www.w3.org/2000/svg" xmlns:xlink="http://www.w3.org/1999/xlink" fill="none" version="1.1" width="150" height="124" viewBox="0 0 150 124"><defs><clipPath id="master_svg0_2063_002176"><rect x="0" y="0" width="150" height="124" rx="0"/></clipPath></defs><g clip-path="url(#master_svg0_2063_002176)"><g><path d="M21.7685546875,98.35114453125L25.4270946875,107.02374453125Q50.1222546875,114.77374453125,57.2563546875,116.24994453125001Q58.0549546875,116.41514453125001,58.7480546875,116.21514453125Q64.2471546875,114.62794453125,63.1100546875,90.04754453125L51.402654687500004,86.91064453125L25.4270946875,90.04754453125L21.7685546875,98.35114453125Z" fill="#F4F6FA" fill-opacity="1"/></g><g><g><path d="M81.2488640625,4.483956328125C84.1062640625,3.749550928125,87.0769640625,3.587170428125,90.0147640625,3.672051228125C92.2428640625,3.712646728125,94.3281640625,4.613122328125,96.3879640625,5.384431328125C98.0525640625,6.033951328125,99.0001640625,7.838601328125,100.7488640625,8.325741328125C103.2732640625,8.849791328125,105.9147640625,8.052641328125,108.4176640625,8.672641328125C108.5086640625,8.812881328125,108.6846640625,9.089671328125,108.7716640625,9.229911328124999C104.8062640625,9.100741328125,100.5293640625,8.661571328125,96.9293640625,10.720861328125C94.0281640625,12.396341328125,91.5184640625,15.212211328125,90.9110640625,18.607411328125C90.4245640625,21.172311328125,92.3086640625,23.353311328125,92.3708640625,25.859211328125C92.4184640625,26.936811328125,92.3379640625,28.010711328125,92.2903640625,29.084711328125C94.6574640625,29.103111328125,97.0464640625,29.077311328125,99.3696640625,29.601311328125C102.2086640625,30.250811328125,105.1537640625,30.376311328125,108.0436640625,30.058911328125C111.3216640625,29.689911328125,114.2526640625,27.785611328125,116.5536640625,25.490111328125C117.5266640625,27.933211328125,119.3926640625,29.837511328125,120.8746640625,31.959511328125C123.3586640625,34.923011328125,125.3126640625,38.273911328125,127.7376640625,41.278011328125C131.6416640625,47.286111328125,135.9106640625,53.050611328125,139.6316640625,59.180511328125C141.1466640625,60.907611328125,141.2526640625,63.273211328125,141.8016640625,65.402611328125C142.3646640625,67.727611328125,141.5856640625,70.056311328125,141.2926640625,72.355511328125C141.1176640625,73.783711328125,140.8906640625,75.226711328125,140.2536640625,76.529411328125C139.1786640625,78.799111328125,138.5046640625,81.256911328125,137.1876640625,83.408511328125C136.5186640625,84.475011328125,136.0176640625,85.644911328125,135.8156640625,86.896011328125C135.2486640625,85.980711328125,134.6746640625,84.936311328125,133.6796640625,84.445511328125C132.2886640625,83.995311328125,130.7996640625,84.190911328125,129.3806640625,83.914111328125C127.8406640625,83.663111328125,126.4686640625,82.703611328125,124.8766640625,82.729411328125C123.6766640625,82.711011328125,122.4736640625,82.640911328125,121.2876640625,82.448911328125C121.0906640625,83.482311328125,120.9216640625,84.556211328125,120.3296640625,85.449311328125C119.6346640625,86.512211328125,119.3786640625,87.774311328125,119.0416640625,88.977411328125C119.0086640625,89.184111328125,118.9756640625,89.390711328125,118.9536640625,89.601111328125C117.5636640625,90.966611328125,116.6526640625,92.741711328125,115.2076640625,94.048111328125C113.7326640625,95.454211328125,112.2436640625,96.841811328125,110.7366640625,98.211011328125C112.9716640625,100.181711328125,115.9466640625,100.724211328125,118.6356640625,101.779711328125C119.6566640625,102.181911328125,120.7606640625,102.226211328125,121.8436640625,102.237311328125C121.9906640625,102.329511328125,122.2866640625,102.514111328125,122.4366640625,102.610011328125C121.3606640625,103.030711328125,120.1866640625,103.311211328125,119.2936640625,104.089611328125C116.9786640625,106.045611328125,114.3656640625,107.632611328125,111.6736640625,108.998611328125C110.2576640625,109.769611328125,108.9436640625,110.751611328125,107.4036640625,111.267611328125C105.3476640625,111.954611328125,103.5220640625,113.201611328125,101.4220640625,113.769611328125C98.4147640625,114.644611328125,95.4806640625,115.847611328125,92.3781640625,116.342611328125C92.3415640625,110.068611328125,92.8354640625,103.720611328125,91.7196640625,97.513511328125C90.5379640625,93.092311328125,88.9208640625,88.711711328125,86.2354640625,84.976911328125C85.3427640625,83.773811328125,84.6001640625,82.463711328125,83.6013640625,81.345511328125C84.6074640625,81.020711328125,85.6244640625,80.714411328125,86.6488640625,80.445011328125C87.7318640625,81.275411328125,89.0891640625,82.238611328125,90.5196640625,81.736711328125C92.5793640625,81.131411328125,93.6367640625,79.061111328125,94.5110640625,77.256411328125C95.9452640625,74.329911328125,95.9964640625,71.008511328125,96.5745640625,67.860511328125C97.1196640625,64.760511328125,97.4525640625,61.608811328125,97.2732640625,58.460811328125C96.9147640625,58.335411328125,96.5562640625,58.213611328125,96.2013640625,58.091811328125C97.4379640625,57.722811328125,97.9427640625,56.479111328125,98.5684640625,55.471611328125C100.9135640625,51.725711328125,105.9476640625,50.522611328125,107.7186640625,46.326611328125C107.1846640625,46.429911328125,106.6536640625,46.540611328125,106.1236640625,46.651311328125C106.0716640625,45.702911328125,106.0062640625,44.758111328125,105.9440640625,43.813411328125C105.0330640625,44.119711328125,103.8220640625,44.167611328125,103.3464640625,45.149311328125C102.6293640625,46.514811328125,102.0915640625,48.038911328125,100.7964640625,48.980011328125C100.7232640625,47.869211328125,100.6720640625,46.754711328125,100.5806640625,45.643811328125C98.6232640625,46.858011328125,97.6976640625,49.046411328125,96.6513640625,51.006111328125C95.6415640625,52.910411328125,95.4147640625,55.080411328125,94.9501640625,57.158111328125C95.2610640625,57.438611328125,95.5684640625,57.719111328125,95.8903640625,57.992211328125C95.1842640625,57.774411328125,94.4708640625,57.589911328125,93.7610640625,57.405411328125C93.5854640625,57.970011328125,93.4098640625,58.531011328125,93.2635640625,59.103011328125C92.0049640625,57.523511328125,90.2452640625,56.346211328125,89.4001640625,54.453011328125C88.4525640625,52.851311328125,88.8037640625,50.928611328125,88.4415640625,49.175611328125C88.0647640625,46.570111328125,86.9818640625,44.049511328125,85.0940640625,42.196911328125C84.0257640625,40.842511328125,82.3171640625,39.931011328125,81.8232640625,38.174311328125C80.7659640625,34.779111328125,82.2037640625,31.036911328125,80.8391640625,27.700711328125C79.9610640625,26.239311328125,79.1305640625,24.408811328125,77.3671640625,23.892211328125C76.2440640625,23.589511328125,74.9671640625,23.892211328125,73.9647640625,23.191011328125C73.0903640625,22.582011328125,72.0549640625,22.257311328125,70.9830640625,22.327411328125C68.3818640625,22.194511328125,66.0732640625,23.667011328125,64.0574640625,25.154311328125C62.4879640625,26.833511328125,61.7635640625,29.143711328125,61.3391640625,31.369111328125C61.1269640625,33.454211328125,61.2220640625,35.557811328125,61.3025640625,37.646611328125C61.5403640625,39.846111328125,61.9720640625,42.078811328125,61.5769640625,44.289411328125C61.1232640625,46.127311328125,60.2635640625,47.817511328125,59.3123640625,49.433911328125C58.6903640625,50.507911328125,58.6427640625,51.781111328125,59.0452640625,52.939911328125C57.5635640625,55.670811328125,56.2098640625,58.527311328125,55.6062640625,61.597811328125C55.2732640625,63.601711328125,55.2037640625,65.649911328125,54.6806640625,67.620611328125C52.8147640625,64.25121132812501,52.4269640625,60.247011328125,50.3342640625,56.995711328125C50.0671640625,54.995511328125,50.0854640625,52.906711328125,49.2549640625,51.028211328125C48.4501640625,49.201511328125,47.4330640625,47.474311328125,46.5549640625,45.680711328125C46.3025640625,45.618011328125,45.7940640625,45.488811328125,45.5379640625,45.422411328125C45.4391640625,46.452011328125,45.3440640625,47.478011328125,45.2927640625,48.515011328125C44.1001640625,47.500111328125,43.6208640625,46.016611328125,43.1745640625,44.569911328125C42.9184640625,43.418511328125,41.5720640625,43.363111328125,40.6720640625,43.001411328125C40.4086640625,43.887211328125,40.1452640625,44.776611328125,39.8927640625,45.666011328125C39.3732640625,45.492511328125,38.8574640625,45.319111328125,38.3415640625,45.153011328125C38.7988640625,46.300711328125,39.3220640625,47.478011328125,40.2952640625,48.282511328125C42.1940640625,49.928511328125,44.1440640625,51.541211328125,45.7574640625,53.486111328125C46.8257640625,54.770411328125,47.2245640625,56.571311328125,48.6842640625,57.523511328125C48.0952640625,57.715411328125,47.5062640625,57.903611328125,46.9208640625,58.102911328125C47.2940640625,62.645811328125,47.9232640625,67.181411328125,49.0793640625,71.595311328125C49.8476640625,74.662011328125,50.7879640625,77.824811328125,52.8549640625,80.278911328125C53.7696640625,81.404511328125,55.3793640625,81.367611328125,56.6818640625,81.197911328125C58.7196640625,80.928511328125,59.4074640625,78.651411328125,60.4135640625,77.156811328125C60.4574640625,77.544311328125,60.5013640625,77.931811328125,60.5488640625,78.319311328125C61.6025640625,78.795411328125,62.6196640625,79.348911328125,63.6330640625,79.902511328125C63.5086640625,80.238311328125,63.3879640625,80.574211328125,63.2781640625,80.917411328125C62.4586640625,82.489511328125,61.2513640625,83.847611328125,60.6513640625,85.534211328125C60.3001640625,86.526911328125,59.9306640625,87.512311328125,59.5354640625,88.486611328125C59.5866640625,87.671011328125,59.5830640625,86.855411328125,59.5976640625,86.039811328125C49.4891640625,85.851611328125,39.3732640625,86.128411328125,29.2647640625,85.966011328125C28.0062640625,85.914311328125,26.7549640625,86.121011328125,25.5769640625,86.563811328125C24.9403640625,86.165311328125,24.2342640625,85.825711328125,23.7476640625,85.235211328125C23.2976640625,84.460211328125,23.1915640625,83.541311328125,23.0013640625,82.681411328125C22.6684640625,80.743911328125,22.1818640625,78.839711328125,21.6586640625,76.950111328125C21.3623640625,77.186311328125,21.0659640625,77.426211328125,20.7696640625,77.669811328125C20.8940640625,76.614311328125,21.011064062499997,75.558811328125,21.0988640625,74.499711328125C20.7476640625,75.123311328125,20.3232640625,75.732311328125,20.1696640625,76.444511328125C20.1220640625,77.441011328125,20.3635640625,78.422611328125,20.5537640625,79.393211328125C20.2720640625,79.363711328125,19.9940640625,79.334211328125,19.7123640625,79.308411328125C19.8513640625,79.972611328125,19.9940640625,80.636911328125,20.1366640625,81.304911328125C19.8732640625,81.231111328125,19.6098640625,81.161011328125,19.3464640625,81.090911328125C19.4964640625,81.950711328125,19.6427640625,82.810611328125,19.792764062499998,83.670511328125C19.3940640625,83.390011328125,18.9915640625,83.109511328125,18.592764062500002,82.829111328125C18.8379640625,83.589311328125,19.0720640625,84.356911328125,19.317164062499998,85.117211328125C16.1452640625,86.622911328125,12.5708540625,85.722411328125,9.2050040625,86.039811328125C9.1501240625,87.246611328125,9.0403740625,88.464411328125,9.1940340625,89.671211328125C9.3732940625,90.973911328125,10.1818340625,92.051611328125,10.723294062499999,93.217811328125C11.385494062500001,94.553711328125,11.5135440625,96.063111328125,11.637934062500001,97.524511328125C10.8147640625,96.852911328125,10.1672040625,96.000411328125,9.6769540625,95.059311328125C8.7550040625,93.273111328125,7.1854940625,91.830111328125,6.7501260625,89.804111328125C5.5501250625,85.286911328125,6.1025652625,80.529911328125,6.9257360625,75.998011328125C7.1489040625,74.639911328125,7.6867140625,73.370411328125,8.2098840625,72.108211328125C8.8281740625,70.621011328125,9.223294062499999,69.041511328125,9.9659840625,67.609511328125C11.487934062499999,64.79001132812499,12.6696440625,61.797011328125,14.1842740625,58.973811328125C16.2037640625,55.323911328125,17.8025640625,51.463711328125,19.3208640625,47.581311328125C21.4501640625,41.218911328125,24.5708640625,35.207211328125,28.3757640625,29.708311328125C33.054964062500005,22.962211328125,40.2659640625,18.341711328125,47.9708640625,15.883811328125C49.5293640625,15.304411328125,50.9635640625,14.433511328125,52.5220640625,13.846711328125C55.4964640625,12.684191328125,58.2915640625,11.060381328125,61.3830640625,10.204191328124999C64.1671640625,9.381221328125001,66.86356406249999,8.285151328125,69.65866406250001,7.495381328125C71.5976640625,6.949191328125,73.3903640625,5.952761328125,75.3806640625,5.572641328125C77.3305640625,5.181451328125,79.3171640625,4.974791328125,81.2488640625,4.483956328125ZM23.5098640625,71.215111328125C23.7769640625,72.901711328125,24.1830640625,74.558711328125,24.6988640625,76.182511328125C25.3866640625,78.293511328125,25.5293640625,80.555711328125,26.3854640625,82.615011328125C31.9940640625,82.733111328125,37.617164062499995,82.762611328125,43.2257640625,82.596611328125C42.9147640625,80.588911328125,42.1793640625,78.681011328125,41.8610640625,76.673411328125C41.5720640625,74.835511328125,41.0159640625,73.060411328125,40.4708640625,71.285311328125C34.8257640625,71.060111328125,29.1623640625,71.196711328125,23.5098640625,71.215111328125Z" fill="#EAEBF1" fill-opacity="1" style="mix-blend-mode:passthrough"/></g></g><g><g><path d="M96.9295346875,10.720930078125C100.5295346875,8.661640078125,104.8063546875,9.100807553225,108.7722546875,9.229974078125C112.4197546875,10.060331078125,115.9356546875,12.167590078125,117.7502546875,15.562830078125C118.5222546875,17.101760078125,119.3673546875,18.854730078125,118.9063546875,20.618830078125C118.4709546875,22.379130078125,117.7209546875,24.095230078125,116.5539546875,25.490230078125C114.2527546875,27.785730078125,111.32225468749999,29.689930078125,108.0441546875,30.059030078125C105.1539546875,30.376430078125,102.2087546875,30.250930078125,99.3697746875,29.601430078125C97.0466146875,29.077330078125,94.6575946875,29.103230078125,92.2905146875,29.084730078125C92.3380746875,28.010830078125,92.4185546875,26.936830078125,92.3710046875,25.859230078125C92.3088046875,23.353430078125,90.4246606875,21.172330078125,90.9112414875,18.607470078125C91.5185596875,15.212240078125,94.0283246875,12.396400078125,96.9295346875,10.720930078125ZM98.7880646875,18.858430078125C98.8392946875,19.515330078125,98.8612446875,20.179630078125,98.9929446875,20.829130078125C99.4868546875,21.349530078125,100.2185546875,21.504530078125,100.8514546875,21.788630078125C101.3709546875,20.866030078125,102.06245468750001,19.766330078125,101.4478546875,18.703430078125002C100.6173346875,18.079730078125,99.6441646875,18.625920078125,98.7880646875,18.858430078125ZM103.8551546875,18.887950078125C103.7270546875,19.552230078125,103.6722546875,20.282930078125,103.9831546875,20.910330078125C104.4405546875,21.382730078125,105.1100546875,21.545130078125,105.6807546875,21.844030078125C106.1087546875,21.065330078125,106.7417546875,20.227630078125,106.4453546875,19.282830078125002C106.27345468749999,18.017000078125,104.5685546875,18.234740078125,103.8551546875,18.887950078125ZM108.7612546875,18.529970078125C108.7612546875,19.297630078125,108.6258546875,20.098430078125,108.84535468749999,20.851330078125002C109.2258546875,21.567230078125,110.10395468749999,21.928930078125,110.7807546875,21.367930078125C111.9039546875,20.891830078125,111.4283546875,19.504230078124998,111.4758546875,18.555810078125C110.57225468749999,18.496760078125,109.6648546875,18.489380078125002,108.7612546875,18.529970078125Z" fill="#AFEBCC" fill-opacity="1" style="mix-blend-mode:passthrough"/></g></g><g><g><path d="M66.29649843749999,49.7659677375C66.8306984375,49.7438201875,67.3793984375,49.7216782375,67.9062984375,49.8508474375C69.3257984375,51.1462034375,70.0501984375,53.2054934375,71.8867984375,54.0321534375C73.59529843749999,54.7148934375,75.5415984375,54.7148934375,77.3159984375,54.3089434375C79.4891984375,53.7664434375,79.5037984375,50.3195394375,81.9952984375,50.4154894375C83.9196984375,50.8952534375,86.3415984375,51.2495334375,87.3257984375,53.2387034375C88.89889843750001,56.0729934375,89.1806984375,59.3870334375,89.7586984375,62.5239234375C89.9415984375,64.7234234375,89.9086984375,66.94142343749999,90.3001984375,69.1225234375C91.20749843749999,65.7568234375,92.6818984375,62.5534234375,93.26359843750001,59.1028634375C93.4098984375,58.5308534375,93.58549843750001,57.9698934375,93.76109843750001,57.4052534375C94.4708984375,57.5897734375,95.18429843749999,57.7743034375,95.8903984375,57.9920334375L96.2013984375,58.0916834375C96.5562984375,58.213463437499996,96.9147984375,58.3352534375,97.2732984375,58.4607234375C97.4525984375,61.608723437500004,97.1196984375,64.7603234375,96.5745984375,67.8603234375C95.99649843750001,71.0083234375,95.9452984375,74.3298234375,94.51109843750001,77.2563234375C93.6367984375,79.06092343750001,92.5793984375,81.1313234375,90.5196984375,81.7365234375C89.0891984375,82.2384234375,87.7318984375,81.2752234375,86.64889843750001,80.4449234375C85.0647984375,78.4262234375,84.19769843750001,75.9462234375,83.5428984375,73.4883234375C83.4220984375,72.5620234375,83.3489984375,71.5213234375,83.99649843750001,70.7611234375C85.4708984375,68.6538234375,87.6952984375,66.6646234375,87.5123984375,63.8451234375C87.7025984375,61.9925234375,85.6684984375,61.0182234375,84.1208984375,60.9813234375C82.11239843749999,61.1769234375,80.3525984375,62.4981234375,78.2928984375,62.4169234375C75.7830984375,62.4870234375,73.5184984375,60.5938234375,70.9867984375,61.2544234375C68.9708984375,61.7009234375,66.9952984375,62.3209234375,64.96479843750001,62.723223437499996C64.3574984375,64.7751234375,63.7354984375,66.8270234375,63.3367984375,68.9343234375C62.8208984375,71.8165234375,61.7232984375,74.55492343750001,60.4135984375,77.1567234375C59.407498437499996,78.6513234375,58.7196984375,80.9283234375,56.6818684375,81.1977234375C55.3794384375,81.3675234375,53.7696784375,81.4044234375,52.8550484375,80.2788234375C50.7879784375,77.82462343750001,49.8477284375,74.66192343750001,49.0794284375,71.5951234375C47.9233384375,67.1813234375,47.2940704375,62.645723437499996,46.9208984375,58.1027534375C47.5062664375,57.9034634375,48.0952884375,57.7152534375,48.684318437499996,57.5233434375C49.2330984375,57.3425134375,49.7818784375,57.1653634375,50.3343184375,56.9956134375C52.4269984375,60.2469234375,52.8147984375,64.2511234375,54.6806584375,67.6205234375C55.2038284375,65.6497234375,55.2733384375,63.6015234375,55.6062684375,61.5976234375C56.2099184375,58.527153437500004,57.5635984375,55.6707334375,59.0452984375,52.9397734375C60.8086984375,50.7808534375,63.7464984375,50.3564404375,66.29649843749999,49.7659677375Z" fill="#FFFFFF" fill-opacity="1" style="mix-blend-mode:passthrough"/></g><g><path d="M23.509765625,71.2150760625C29.162205625,71.1966225625,34.825665625,71.0600767625,40.470765625,71.2851955625C41.015865625,73.0603165625,41.571965625000004,74.8354365625,41.860965625,76.6732865625C42.179265625,78.6809065625,42.914665625,80.5888865625,43.225665625000005,82.5965265625C37.617065625,82.7626265625,31.993915625,82.7330265625,26.385375625,82.6149265625C25.529275625,80.5556665625,25.386595624999998,78.2934065625,24.698785625,76.1824565625C24.182934625,74.5586465625,23.776837625,72.9016165625,23.509765625,71.2150760625Z" fill="#FFFFFF" fill-opacity="1" style="mix-blend-mode:passthrough"/></g></g><g><g><path d="M64.05757453125,25.154435234375C66.07342453125,23.667175234375,68.38196453125,22.194676234375,70.98314453125,22.327533454375C72.05514453125,22.257413534375,73.09054453125,22.582177234375,73.96484453125,23.191103234375C74.96734453125,23.892295234375,76.24414453125,23.589675234375,77.36734453125,23.892295234375C79.13074453125,24.408965234375,79.96124453125,26.239435234375,80.83924453125,27.700865234375C82.20394453125,31.037055234375,80.76614453125,34.779215234375,81.82344453125,38.174415234375C82.31734453125,39.931115234375,84.02584453125,40.842615234375,85.09414453125,42.197015234375C86.98194453125001,44.049715234375,88.06484453125,46.570315234375,88.44174453125,49.175715234375005C88.80394453125,50.928715234375005,88.45264453125,52.851415234375,89.40024453125,54.453115234375C90.24534453125,56.346315234375,92.00514453125,57.523615234375,93.26364453125001,59.103115234375C92.68194453125,62.553715234375,91.20754453125,65.75701523437499,90.30024453125,69.122815234375C89.90874453125,66.94171523437501,89.94174453125,64.72371523437499,89.75874453125,62.524215234375C89.18074453125,59.387315234375,88.89904453125,56.073215234375,87.32584453125,53.238915234375C86.34174453125,51.249815234375,83.91974453125,50.895515234375,81.99534453125,50.415715234375C81.08804453125,50.205415234374996,79.98314453125,50.297615234375,79.33924453125,49.493115234375C78.07344453125,48.304815234375,77.30874453125,46.717915234375,76.73444453125,45.101415234375C76.80394453125,44.868915234374995,76.93924453125,44.411315234374996,77.00874453125,44.178815234375C79.13074453125,43.621615234375,79.69414453125,41.333515234375,80.16244453125,39.466115234374996C80.66364453125,36.779415234375,79.97224453125,34.063215234375,79.15274453125,31.513125234375C78.65514453125,29.889315234375,77.20634453125,28.870745234375,76.03194453125,27.759915234375C74.71484453125,29.597765234375,73.76734453125,31.708725234375002,72.19054453125,33.354715234375C70.65754453125,35.174115234375,68.21366453125,36.535915234375,67.94659453125,39.141315234375C67.78927453125,41.248615234374995,69.73564453125,42.595615234375,71.37094453125,43.455515234375C71.31974453125,44.496215234375,71.29054453124999,45.536915234375,71.21364453125,46.573915234375C70.79654453124999,47.474415234375,70.20754453125,48.338015234375,69.35144453125,48.862015234375C68.41123453125,49.386115234375,67.32464453125,49.518915234375,66.29659453125,49.766215234375C63.74659453125,50.356715234375,60.80879453125,50.781115234375,59.04537553125,52.940015234375C58.64293353125,51.781215234375,58.69049663125,50.508015234375,59.31244653125,49.434115234375C60.26366453125,47.817615234375,61.12342453125,46.127415234375,61.57708453125,44.289515234375C61.97220453125,42.078915234375,61.54050453125,39.846215234374995,61.30269453125,37.646715234375C61.22220453125,35.557915234375,61.12708453125,33.454315234375,61.33927453125,31.369205234375002C61.76367453125,29.143845234375,62.488064531250004,26.833605234375,64.05757453125,25.154435234375ZM63.999034531250004,36.292315234374996C62.69659453125,37.989915234375,64.54781453125,40.340715234375,66.47220453125,40.078715234375C66.04049453125,38.591415234375,65.05635453125,37.373615234375,63.999034531250004,36.292315234374996Z" fill="#3E3220" fill-opacity="1" style="mix-blend-mode:passthrough"/></g><g><path d="M63.33674421875,68.934326171875C63.81235421875,71.251946171875,64.69040421875,73.477306171875,64.96845421875,75.839206171875C64.78552421875,77.27111617187501,64.21113421875,78.595996171875,63.63308421875,79.90242617187499C62.61967421875,79.348826171875,61.60259421875,78.795276171875,60.54893821875,78.319206171875C60.50137551875,77.93170617187499,60.45747491875,77.544206171875,60.41357421875,77.156716171875C61.72333421875,74.554926171875,62.82089421875,71.816596171875,63.33674421875,68.934326171875Z" fill="#3E3220" fill-opacity="1" style="mix-blend-mode:passthrough"/></g><g><path d="M82.664528125,72.56591796875C82.953558125,72.87222796875,83.246238125,73.18222696875,83.542578125,73.48853696875C84.197458125,75.94638796875,85.064528125,78.42638796875,86.648678125,80.44508796875C85.62428812499999,80.71448796875,84.607208125,81.02079796875,83.601118125,81.34556796875C82.002336125,80.05389796875,81.168190525,78.11270796875,81.142578125,76.06079796875C81.479168125,74.82817796875,81.987705125,73.64722796875,82.664528125,72.56591796875Z" fill="#3E3220" fill-opacity="1" style="mix-blend-mode:passthrough"/></g></g><g><g><path d="M72.19036,33.354525625C73.76719,31.708575625,74.71475,29.597625625,76.03182,27.759765625C77.20621,28.870595625,78.655,29.889165625,79.1526,31.512975625C79.9721,34.063095625,80.6635,36.779285625,80.1623,39.465965625C79.694,41.333365625,79.1306,43.621465625,77.00865,44.178665625C75.10621,44.322665625,73.18182,44.060565624999995,71.37084,43.455365625C69.73548,42.595465625,67.789134,41.248465625,67.9464543,39.141165625C68.213526,36.535715625,70.65743,35.173935625,72.19036,33.354525625Z" fill="#F5C2A5" fill-opacity="1" style="mix-blend-mode:passthrough"/></g><g><path d="M40.672286875,43.00146484375C41.572286875,43.36312984375,42.918626875,43.41848484375,43.174716875,44.56991484375C43.621066875,46.01658484375,44.100326875,47.500154843749996,45.293016875,48.51503484375C45.344236875,47.47800484375,45.439356875,46.45205484375,45.538136875,45.42241484375C45.794236875,45.48884484375,46.302766875,45.618014843750004,46.555206874999996,45.68074484375C47.433256875,47.47432484375,48.450296875,49.20146484375,49.255196874999996,51.02824484375C50.085696875,52.90670484375,50.067396875,54.99546484375,50.334496875,56.99576484375C49.781996875000004,57.16546484375,49.233296875,57.34266484375,48.684496875,57.52346484375C47.224726875,56.571364843750004,46.825946875,54.77036484375,45.757646875,53.48606484375C44.144236875,51.54122484375,42.194236875,49.92848484375,40.295456875,48.28253484375C39.322284875,47.47800484375,38.799113875,46.30075484375,38.341796875,45.15301484375C38.857648875,45.31908484375,39.373506875,45.49253484375,39.893016875,45.66598484375C40.145456875,44.77658484375,40.408866875,43.88717684375,40.672286875,43.00146484375Z" fill="#F5C2A5" fill-opacity="1" style="mix-blend-mode:passthrough"/></g><g><path d="M103.34605703125,45.149182421875C103.82165703125,44.167515421875,105.03260703125,44.119542421875,105.94360703125,43.813232421875C106.00580703125,44.757993421875,106.07160703125,45.702752421875,106.12290703125,46.651212421875C106.65340703125,46.540492421875,107.18380703125,46.429782421875004,107.71800703125,46.326442421875C105.94730703125,50.522512421875,100.91311703125,51.725612421875,98.56800703125,55.471432421875C97.94238703125001,56.478932421875,97.43750703125,57.722632421875,96.20092703125,58.091732421875L95.88995403125,57.992032421875C95.56800103125,57.718932421874996,95.26068503125,57.438432421875,94.94970703125,57.158032421875C95.41433703125,55.080232421874996,95.64117603125,52.910252421875,96.65092703125,51.005972421875C97.69726703125,49.046322421875,98.62287703125,46.857872421875,100.58019703125,45.643702421875C100.67166703125,46.754542421875,100.72287703125,47.869072421875,100.79605703125,48.979902421874996C102.09116703125,48.038822421875,102.62896703125,46.514662421875,103.34605703125,45.149182421875Z" fill="#F5C2A5" fill-opacity="1" style="mix-blend-mode:passthrough"/></g><g><path d="M71.21345671875,46.573818359375C73.14515671875,46.511078359375,75.00735671875,45.957506359375,76.73418671875,45.101318359375C77.30858671875,46.717738359375,78.07318671875,48.304648359375,79.33908671875,49.492978359375C79.98298671875,50.297508359375,81.08788671875,50.205238359375,81.99518671875,50.415598359375C79.50368671875,50.319648359375,79.48908671875,53.766558359375,77.31588671875,54.309058359375C75.54150671875,54.715008359375,73.59516671875,54.715008359375,71.88662671875,54.032268359374996C70.05004671875,53.205598359375,69.32565671875,51.146318359375,67.90613671875,49.850958359375C67.37930671875,49.721788359375,66.83052971875,49.743928359375,66.29638671875,49.766078359375C67.32443671875,49.518818359375004,68.41101671875,49.385958359374996,69.35125671875,48.861908359375C70.20735671875,48.337858359375,70.79638671875,47.474288359375,71.21345671875,46.573818359375Z" fill="#F5C2A5" fill-opacity="1" style="mix-blend-mode:passthrough"/></g></g><g><g><path d="M63.99873428125,36.292236328125C65.05605828125,37.373546328125,66.04019828125,38.591406328125004,66.47190828125,40.078666328125C64.54751528125,40.340686328125,62.69629628125,37.989856328125,63.99873428125,36.292236328125Z" fill="#F6C5A9" fill-opacity="1" style="mix-blend-mode:passthrough"/></g></g><g><g><path d="M71.37069890625,43.455322265625C73.18166890625,44.060560265625,75.10605890625,44.322586265625,77.00850890625,44.178658265625C76.93898890625,44.411154265625,76.80361890625,44.868772265625,76.73411890625,45.101272265625C75.00728890625,45.957462265625,73.14508890625,46.511032265625,71.21337890625,46.573772265625C71.29021060625,45.536752265625,71.31947990625,44.496042265625,71.37069890625,43.455322265625Z" fill="#EEA982" fill-opacity="1" style="mix-blend-mode:passthrough"/></g></g><g><g><path d="M70.9869140625,61.254293171875C73.5186140625,60.593700171875,75.78321406250001,62.486921171875,78.29301406249999,62.416801171875C80.3528140625,62.497991171875,82.1125140625,61.176796171875,84.1210140625,60.981201171875C85.6686140625,61.018102571875,87.7028140625,61.992391171875,87.5125140625,63.845011171875C87.69541406249999,66.664531171875,85.4710140625,68.653701171875,83.9967140625,70.760961171875C83.3491140625,71.52120117187499,83.42231406249999,72.56190117187501,83.54301406249999,73.488201171875C83.2467140625,73.181901171875,82.9540140625,72.871901171875,82.6649140625,72.565601171875C81.9881140625,73.646901171875,81.4796140625,74.827901171875,81.1430140625,76.060501171875C78.2967140625,75.374101171875,75.4028140625,74.532601171875,72.4430140625,74.746701171875C69.9369140625,74.993901171875,67.4783840625,75.617601171875,64.9686240625,75.839101171875C64.6905740625,73.477201171875,63.8125250625,71.251801171875,63.3369140625,68.934171171875C63.7356990625,66.826911171875,64.3576440625,64.775011171875,64.9649640625,62.723111171875C66.9954540625,62.320841171875,68.9710640625,61.700843171875,70.9869140625,61.254293171875Z" fill="#ECEBF3" fill-opacity="1" style="mix-blend-mode:passthrough"/></g></g><g><g><path d="M20.169334375,76.444635859375C20.323034375,75.732375859375,20.747434374999997,75.123446859375,21.098634375,74.499755859375C21.010834375,75.558925859375,20.893734375,76.614405859375,20.769334375,77.669875859375C21.065734374999998,77.426305859375,21.362034375,77.186425859375,21.658434375,76.950235859375C22.181534375,78.839755859375,22.668134375,80.744045859375,23.001034375,82.681545859375C23.191334375,83.541425859375,23.297434375,84.460345859375,23.747434374999997,85.235355859375C24.234034375,85.825855859375,24.940134375,86.165355859375,25.576734375,86.563955859375C25.638934375,88.073355859375,25.660834375,89.58645585937501,25.690134375,91.099555859375C27.855934375,91.210255859375,30.025434375,91.210255859375,32.194934375,91.180755859375C40.130334375000004,91.165955859375,48.065734375,91.210255859375,55.997434375,91.14385585937501C56.977934375,91.055255859375,57.866934375,91.468555859375,58.470634375,92.247255859375C58.346234375,92.730755859375,58.240134375,93.221555859375,58.144934375,93.716055859375C56.897434375,92.708555859375,55.251034375,93.077655859375,53.780334375,93.040755859375C44.418134375,93.096055859375,35.055934375,93.000155859375,25.693734375,93.084955859375C25.514534375,97.753455859375,25.832834375,102.432955859375,25.532834375,107.101455859375C23.008434375,106.212055859375,20.732834375,104.772755859375,18.640104375,103.123055859375C16.075464375,101.56935585937501,13.744984375,99.661455859375,11.637664375,97.524655859375C11.513274375,96.063255859375,11.385224375,94.553855859375,10.723034375,93.21785585937499C10.181564375,92.051655859375,9.373029375,90.974055859375,9.193761775,89.671355859375C9.040102475,88.464555859375,9.149858375,87.246655859375,9.204736975,86.039855859375C12.570594375,85.722455859375,16.144984375,86.622955859375,19.316934375000002,85.117255859375C19.071814375000002,84.357015859375,18.837664375,83.589405859375,18.592544375,82.829165859375C18.991324374999998,83.10964585937501,19.393734375,83.390115859375,19.792534375000002,83.670595859375C19.642534375,82.810715859375,19.496234375,81.950825859375,19.346234375,81.090955859375C19.609634375,81.161075859375,19.873034375,81.231185859375,20.136434375,81.304995859375C19.993734375000003,80.637015859375,19.851034374999998,79.972735859375,19.712034375,79.308445859375C19.993734375000003,79.334285859375,20.271834374999997,79.363805859375,20.553534374999998,79.393335859375C20.363234374999998,78.422735859375,20.121834375,77.441065859375,20.169334375,76.444635859375Z" fill="#E4E8F1" fill-opacity="1" style="mix-blend-mode:passthrough"/></g></g><g><g><path d="M64.968476875,75.839210625C67.478246875,75.617782625,69.936746875,74.994096625,72.442846875,74.746830025C75.402646875,74.532787625,78.296546875,75.374215625,81.142846875,76.060640625C81.168446875,78.112550625,82.002646875,80.053740625,83.601346875,81.345410625C84.60014687500001,82.463620625,85.34284687499999,83.773740625,86.235546875,84.976790625C88.920946875,88.711590625,90.537946875,93.092190625,91.719646875,97.513390625C92.835546875,103.720790625,92.34164687500001,110.068390625,92.378246875,116.342190625C89.616046875,116.434490625,86.912346875,117.20579062499999,84.139246875,117.176190625C75.234346875,117.371790625,66.270906875,117.42719062500001,57.435546875,116.18349062499999C58.390424875,116.20199062500001,59.341636875,116.19459062499999,60.292866875,116.20199062500001C58.869696875,109.643990625,58.408712875,102.805490625,59.557496875,96.170090625C60.314816875,93.08849062499999,60.845296875,89.922090625,62.133106875,87.00289062499999C62.985546875,85.094890625,63.439196875,83.013500625,63.278226875,80.917310625C63.387986875,80.574090625,63.508716875,80.238270625,63.633106875,79.902430625C64.211156875,78.596000625,64.785546875,77.271120625,64.968476875,75.839210625Z" fill="#424466" fill-opacity="1" style="mix-blend-mode:passthrough"/></g></g><g><g><path d="M60.651855,85.53426046875C61.251855,83.84772046875,62.459175,82.48962046875,63.278685,80.91748046875C63.439655,83.01367046875,62.986005,85.09509046875,62.133565,87.00307046875C60.845755,89.92224046875,60.315275,93.08868046875,59.557955,96.17018046875C58.409175,102.80568046875,58.870155,109.64418046875,60.293325,116.20208046875C59.342095,116.19478046875,58.390885,116.20208046875,57.436005,116.18368046875C57.318929,116.17998046875,57.077464,116.17628046875001,56.956732,116.17258046875C56.843318,113.98048046875,56.4262453,111.80678046874999,56.45917641,109.60358046875C56.4738081,106.00168046875,56.287225,102.32228046875,57.227466,98.80518046875C57.575025,97.11868046875,57.823805,95.40998046875,58.145755,93.71608046875C58.240885,93.22148046875,58.346975,92.73068046875,58.471375,92.24728046875C58.793315,90.98138046875,59.133565,89.72665046875,59.536005,88.48664046875C59.931125,87.51236046875,60.300635,86.52700046875,60.651855,85.53426046875Z" fill="#333551" fill-opacity="1" style="mix-blend-mode:passthrough"/></g></g><g><g><path d="M121.28801640625,82.448974609375C122.47341640625,82.640875609375,123.67701640625,82.710995609375,124.87701640625,82.729454609375C126.46851640625,82.703618609375,127.84051640625,83.663144609375,129.38071640625,83.914094609375C130.80021640625,84.190884609375,132.28921640625,83.995284609375,133.67951640625,84.445524609375C134.67461640625,84.936354609375,135.24901640625,85.980764609375,135.81611640625,86.895994609375C136.73441640625,88.379574609375,136.19661640625,90.084574609375,135.77951640625,91.619814609375C135.57461640625002,94.424574609375,134.14781640625,96.93037460937501,132.86731640625,99.369774609375C131.22101640625,101.329474609375,129.05881640625,103.65077460937499,126.23801640625,103.196874609375C124.98311640625,102.979074609375,123.62221640625,103.07507460937501,122.43681640625,102.610074609375C122.28681640625,102.514074609375,121.99051640625,102.329574609375,121.84411640625,102.23727460937499C120.76121640625,102.226274609375,119.65632640625,102.181974609375,118.63559640625,101.77967460937501C115.94657640625,100.724174609375,112.97218640625,100.181674609375,110.73681640625,98.210974609375C112.24413640624999,96.841874609375,113.73315640625,95.454174609375,115.20754640625,94.048174609375C116.65267640625,92.741674609375,117.56364640625,90.966584609375,118.95389640625,89.601124609375C118.97584640625,89.390764609375,119.00877640625,89.184094609375,119.04169640625,88.977424609375C119.37827640625,87.774324609375,119.63437640625,86.512194609375,120.32949640625,85.449334609375C120.92221640625,84.556234609375,121.09051640625,83.482304609375,121.28801640625,82.448974609375Z" fill="#E0E4EF" fill-opacity="1" style="mix-blend-mode:passthrough"/></g></g><g><g><path d="M25.5771484375,86.5636338125C26.7551984375,86.1207728125,28.0064184375,85.9141068125,29.2649484375,85.9657788925C39.3734484375,86.1281608125,49.4893484375,85.8513748125,59.5978484375,86.0395929125C59.5832484375,86.8551848125,59.5869484375,87.6707778125,59.5356484375,88.4863678125C59.1332484375,89.7263778125,58.7930484375,90.9811378125,58.4710484375,92.2469678125C57.8673484375,91.4682778125,56.9783484375,91.0549478125,55.9978484375,91.1435178125C48.066148437500004,91.2099478125,40.1308484375,91.1656578125,32.1954384375,91.1804278125C30.0259284375,91.2099478125,27.8564184375,91.2099478125,25.6905624375,91.09923781250001C25.6612932375,89.5861378125,25.6393429375,88.0730378125,25.5771484375,86.5636338125Z" fill="#F4F6FA" fill-opacity="1" style="mix-blend-mode:passthrough"/></g></g><g><ellipse cx="100.24381899833679" cy="19.928490042686462" rx="1.829268217086792" ry="1.8452380895614624" fill="#FFFFFF" fill-opacity="1"/></g><g><ellipse cx="105.36588931083679" cy="19.928490042686462" rx="1.829268217086792" ry="1.8452380895614624" fill="#FFFFFF" fill-opacity="1"/></g><g><ellipse cx="110.12174868583679" cy="19.928490042686462" rx="1.829268217086792" ry="1.8452380895614624" fill="#FFFFFF" fill-opacity="1"/></g></g></svg>