<svg xmlns="http://www.w3.org/2000/svg" xmlns:xlink="http://www.w3.org/1999/xlink" fill="none" version="1.1" width="16" height="16" viewBox="0 0 16 16"><defs><clipPath id="master_svg0_1994_018436"><rect x="0" y="0" width="16" height="16" rx="0"/></clipPath></defs><g clip-path="url(#master_svg0_1994_018436)"><g><path d="M3.3333358764648438,7.25L12.666635876464843,7.25C13.080835876464844,7.25,13.416635876464843,7.585786,13.416635876464843,8C13.416635876464843,8.41421,13.080835876464844,8.75,12.666635876464843,8.75L3.3333358764648438,8.75C2.919121876464844,8.75,2.5833358764648438,8.41421,2.5833358764648438,8C2.5833358764648438,7.585786,2.919121876464844,7.25,3.3333358764648438,7.25Z" fill-rule="evenodd" fill="#FFFFFF" fill-opacity="1" style="mix-blend-mode:passthrough"/></g><g><path d="M8.770165087890625,3.3333358764648438L8.770165087890625,3.3333358764648438L8.757965087890625,12.666635876464843L8.757965087890625,12.666635876464843C8.757425087890624,13.081435876464845,8.421795087890626,13.416635876464843,8.007965087890625,13.416635876464843C7.593751087890625,13.416635876464843,7.257965087890625,13.080835876464844,7.257965087890625,12.666635876464843L7.257965087890625,12.666635876464843L7.270164487890625,3.3333358764648438L7.270164487890625,3.3333358764648438C7.270706687890625,2.918524876464844,7.606334087890625,2.5833358764648438,8.020165087890625,2.5833358764648438C8.434375087890626,2.5833358764648438,8.770165087890625,2.919121876464844,8.770165087890625,3.3333358764648438Z" fill-rule="evenodd" fill="#FFFFFF" fill-opacity="1" style="mix-blend-mode:passthrough"/></g></g></svg>