<svg xmlns="http://www.w3.org/2000/svg" xmlns:xlink="http://www.w3.org/1999/xlink" fill="none" version="1.1" width="24" height="24" viewBox="0 0 24 24"><defs><clipPath id="master_svg0_2063_001980"><rect x="0" y="0" width="24" height="24" rx="0"/></clipPath></defs><g clip-path="url(#master_svg0_2063_001980)"><g><rect x="0" y="0" width="24" height="24" rx="0" fill="#FFFFFF" fill-opacity="0.009999999776482582"/></g><g><path d="M16.25,6C16.25,6.198912,16.17098,6.38968,16.03033,6.53033L16.03033,6.53033L10.56066,12L16.03033,17.4697C16.17098,17.610300000000002,16.25,17.801099999999998,16.25,18C16.25,18.4142,15.91421,18.75,15.5,18.75C15.30109,18.75,15.11032,18.671,14.96967,18.5303L8.96967,12.53033C8.8290176,12.38968,8.75,12.19891,8.75,12C8.75,11.80109,8.8290176,11.61032,8.96967,11.46967L14.96921,5.4701319999999996L14.96921,5.4701319999999996C15.11032,5.3290176,15.30109,5.25,15.5,5.25C15.91421,5.25,16.25,5.585786,16.25,6Z" fill-rule="evenodd" fill="#FFFFFF" fill-opacity="1"/></g></g></svg>