<svg xmlns="http://www.w3.org/2000/svg" xmlns:xlink="http://www.w3.org/1999/xlink" fill="none" version="1.1" width="12" height="12" viewBox="0 0 12 12"><defs><clipPath id="master_svg0_1994_027139"><rect x="0" y="0" width="12" height="12" rx="0"/></clipPath></defs><g clip-path="url(#master_svg0_1994_027139)"><g><path d="M10.090769921875,2.6747638671875L6.184169921875,0.9743623671875C6.092589921875,0.9341643671875,5.988349921875,0.9341643671875,5.896769921875,0.9743623671875L1.990769921875,2.6747638671875C1.859261621875,2.7318238671875,1.774170036316,2.8614638671875,1.774169921875,3.0047638671875L1.774169921875,6.1607638671875C1.774169921875,9.3587638671875,5.761169921875,10.9205638671875,5.930969921875,10.9853138671875C5.972369921875,11.0009138671875,6.016169921875,11.0093138671875,6.059369921875,11.0093138671875C6.104369921875,11.0093138671875,6.148769921875,11.0009138671875,6.191369921875,10.9841138671875C6.359369921875,10.9181638671875,10.306769921875,9.3257638671875,10.306769921875,6.1607638671875L10.306769921875,3.0047638671875C10.306919921875,2.8615638671875,10.222069921875,2.7319238671874997,10.090769921875,2.6747638671875Z" fill="#0076F6" fill-opacity="1" style="mix-blend-mode:passthrough"/></g><g><path d="M8.872499999999999,4C7.3525,4.864426,6.25,5.95597,5.7524999999999995,6.5029L4.5375,5.61993L4,6.02086L6.0975,8C6.4575,7.14253,7.6025,5.4669799999999995,9,4.275782L8.872499999999999,4Z" fill="#FFFFFF" fill-opacity="1" style="mix-blend-mode:passthrough"/></g></g></svg>