<svg xmlns="http://www.w3.org/2000/svg" xmlns:xlink="http://www.w3.org/1999/xlink" fill="none" version="1.1" width="20" height="20" viewBox="0 0 20 20"><defs><clipPath id="master_svg0_1994_70511"><rect x="0" y="0" width="20" height="20" rx="0"/></clipPath></defs><g clip-path="url(#master_svg0_1994_70511)"><g><path d="M3.5774321875,16.422215625Q0.9169921875,13.761715625,0.9169921875,9.999345625Q0.9169921875,6.236945625,3.5774421875,3.576455625Q6.2379221875,0.916015625,10.0003221875,0.916015625Q13.7626921875,0.916015625,16.4231921875,3.576465625Q19.0836921875,6.236955625,19.0836921875,9.999345625Q19.0836921875,13.761715625,16.4231921875,16.422215625Q13.7626921875,19.082715625,10.0003221875,19.082715625Q6.2379321875,19.082715625,3.5774321875,16.422215625ZM4.6380921875,15.361515625Q6.8592421875,17.582715625,10.0003221875,17.582715625Q13.1413921875,17.582715625,15.3624921875,15.361515625Q17.5836921875,13.140415625,17.5836921875,9.999345625Q17.5836921875,6.858265625,15.3624921875,4.637115625Q13.1413921875,2.416015625,10.0003221875,2.416015625Q6.8592421875,2.416015625,4.6380921875,4.6371256249999995Q2.4169921875,6.858265625,2.4169921875,9.999345625Q2.4169921875,13.140415625,4.6380921875,15.361515625Z" fill-rule="evenodd" fill="#000000" fill-opacity="0.30000001192092896" style="mix-blend-mode:passthrough"/></g></g></svg>