<svg xmlns="http://www.w3.org/2000/svg" xmlns:xlink="http://www.w3.org/1999/xlink" fill="none" version="1.1" width="20" height="20" viewBox="0 0 20 20"><defs><clipPath id="master_svg0_1795_033976"><rect x="0" y="0" width="20" height="20" rx="0"/></clipPath></defs><g style="opacity:0.699999988079071;" clip-path="url(#master_svg0_1795_033976)"><g><path d="M10.46852,1.914348C10.19461,1.6952172,9.80539,1.6952173,9.53148,1.914348L3.281479,6.91435C3.103567,7.05668,3,7.27216,3,7.5L3,17.5L3.0000613616,17.509700000000002C3.000364047,17.5336,3.0017843,17.5572,3.00427226,17.5805C3.00547932,17.5918,3.00693769,17.603099999999998,3.00864169,17.6142C3.0636493,17.9742,3.374619,18.25,3.75,18.25L7.90867,18.25L7.9165,18.25L12.08317,18.25L12.091,18.25L16.25,18.25C16.6642,18.25,17,17.9142,17,17.5L17,7.5C17,7.27216,16.8964,7.05668,16.7185,6.91435L10.46852,1.914348ZM15.5,16.75L15.5,7.86047L10,3.46047L4.5,7.86047L4.5,16.75L7.1665,16.75L7.1665,12.0834C7.1665,11.66916,7.50229,11.33337,7.9165,11.33337L12.08317,11.33337C12.49738,11.33337,12.83317,11.66916,12.83317,12.0834L12.83317,16.75L15.5,16.75ZM11.33317,16.75L11.33317,12.8334L8.6665,12.8334L8.6665,16.75L11.33317,16.75Z" fill-rule="evenodd" fill="#000000" fill-opacity="1" style="mix-blend-mode:passthrough"/></g></g></svg>