<svg xmlns="http://www.w3.org/2000/svg" xmlns:xlink="http://www.w3.org/1999/xlink" fill="none" version="1.1" width="20" height="20" viewBox="0 0 20 20"><defs><clipPath id="master_svg0_1994_009187"><rect x="0" y="0" width="20" height="20" rx="0"/></clipPath></defs><g style="opacity:0.4000000059604645;" clip-path="url(#master_svg0_1994_009187)"><g><path d="M15.75000390625,4.6666259765625L4.25000390625,4.6666259765625L4.25000390625,17.8333259765625L15.75000390625,17.8333259765625L15.75000390625,4.6666259765625ZM16.75000390625,4.6666259765625L16.75000390625,18.3333259765625C16.75000390625,18.6094259765625,16.52610390625,18.8333259765625,16.25000390625,18.8333259765625L3.75000390625,18.8333259765625C3.47385390625,18.8333259765625,3.25000390625,18.6094259765625,3.25000390625,18.3333259765625L3.25000390625,4.6666259765625L1.66650390625,4.6666259765625C1.39036190625,4.6666259765625,1.16650390625,4.4427659765625,1.16650390625,4.1666259765625C1.16650390625,3.8904859765625,1.39036190625,3.6666259765625,1.66650390625,3.6666259765625L6.37039390625,3.6666259765625L7.59847390625,1.4262839765625C7.68624390625,1.2661649765625,7.85432390625,1.1666259765625,8.03692390625,1.1666259765625L11.99030390625,1.1666259765625C12.17440390625,1.1666259765625,12.34360390625,1.2678199765625,12.43080390625,1.4300239765625L13.63220390625,3.6666259765625L18.33320390625,3.6666259765625C18.60930390625,3.6666259765625,18.83320390625,3.8904859765625,18.83320390625,4.1666259765625C18.83320390625,4.4427659765625,18.60930390625,4.6666259765625,18.33320390625,4.6666259765625L16.75000390625,4.6666259765625ZM12.49700390625,3.6666259765625L7.51078390625,3.6666259765625L8.33303390625,2.1666259765625L11.69130390625,2.1666259765625L12.49700390625,3.6666259765625ZM7.83349390625,8.3333759765625C7.83349390625,8.057235976562499,8.05735390625,7.8333759765625,8.33349390625,7.8333759765625C8.60963390625,7.8333759765625,8.83349390625,8.057235976562499,8.83349390625,8.3333759765625L8.83349390625,13.7500259765625C8.83349390625,14.0262259765625,8.60963390625,14.2500259765625,8.33349390625,14.2500259765625C8.05735390625,14.2500259765625,7.83349390625,14.0262259765625,7.83349390625,13.7500259765625L7.83349390625,8.3333759765625ZM11.16650390625,8.3333759765625C11.16650390625,8.057235976562499,11.39040390625,7.8333759765625,11.66650390625,7.8333759765625C11.94260390625,7.8333759765625,12.16650390625,8.057235976562499,12.16650390625,8.3333759765625L12.16650390625,13.7500259765625C12.16650390625,14.0262259765625,11.94260390625,14.2500259765625,11.66650390625,14.2500259765625C11.39040390625,14.2500259765625,11.16650390625,14.0262259765625,11.16650390625,13.7500259765625L11.16650390625,8.3333759765625Z" fill-rule="evenodd" fill="#000000" fill-opacity="1" style="mix-blend-mode:passthrough"/></g></g></svg>