<svg xmlns="http://www.w3.org/2000/svg" xmlns:xlink="http://www.w3.org/1999/xlink" fill="none" version="1.1" width="33" height="33" viewBox="0 0 33 33"><g><g><g><rect x="0" y="0" width="33" height="33" rx="16.5" fill="#FFFFFF" fill-opacity="0.20000000298023224"/></g><g><path d="M6.2669677734375,6.2666015625L13.8626677734375,6.2666015625L13.8628677734375,9.3916015625L6.2669677734375,9.3911915625L6.2669677734375,6.2666015625ZM15.2648877734375,6.2666015625L27.4179677734375,6.2666015625L27.4179677734375,9.3911915625L15.2648877734375,9.3911915625L15.2648877734375,6.2666015625ZM13.8628677734375,9.3916015625L10.8245877734375,9.3916015625L10.8245877734375,10.895511562500001L6.2669677734375,10.895511562500001L6.2669677734375,22.1213015625L9.4220977734375,22.1213015625L9.4220977734375,14.020101562499999L10.8245877734375,14.020101562499999L10.8245877734375,26.6347015625L13.8628677734375,26.6347015625L13.8628677734375,9.3916015625ZM19.7055677734375,9.3916015625L22.9775677734375,9.3916015625L22.9775677734375,10.895511562500001L27.4179677734375,10.895511562500001L27.4179677734375,13.9043715625L27.4178677734375,24.7825015625L24.1458677734375,24.7825015625L24.1458677734375,13.9043715625L22.9775677734375,13.9043715625L22.9775677734375,26.6347015625L19.7055677734375,26.6347015625L19.7055677734375,13.9043715625L18.420067773437502,13.9043715625L18.420067773437502,24.7825015625L15.2648877734375,24.7825015625L15.2648877734375,10.895511562500001L19.7055677734375,10.895511562500001L19.7055677734375,9.3916015625ZM9.4220977734375,26.5487015625C9.4220977734375,24.8062015625,8.0094977734375,23.3936015625,6.2669677734375,23.3936015625L6.2669677734375,26.6339015625L9.4220977734375,26.6339015625L9.4220977734375,26.5487015625Z" fill-rule="evenodd" fill="#FFFFFF" fill-opacity="0.6000000238418579"/></g></g></g></svg>