<svg xmlns="http://www.w3.org/2000/svg" xmlns:xlink="http://www.w3.org/1999/xlink" fill="none" version="1.1" width="24" height="24" viewBox="0 0 24 24"><defs><clipPath id="master_svg0_3001_006455"><rect x="0" y="0" width="24" height="24" rx="0"/></clipPath></defs><g clip-path="url(#master_svg0_3001_006455)"><g><path d="M18.8806,1L5.11692,1C3.948022,1,3,1.938051,3,3.09465L3,20.9053C3,22.0619,3.948022,23,5.11692,23L18.8831,23C20.052,23,21,22.0619,21,20.9053L21,3.09465C21,1.938051,20.052,1,18.8806,1ZM19.4117,19.8592C19.4117,20.7285,18.6994,21.4309,17.8234,21.4309L6.0699000000000005,21.4309C5.193849999999999,21.4309,4.48159,20.7285,4.48159,19.8592L4.48159,4.14321C4.48159,3.27391,5.193849999999999,2.5716,6.0699000000000005,2.5716L17.8234,2.5716C18.701900000000002,2.5716,19.4117,3.27637,19.4117,4.14321L19.4117,19.8592Z" fill="#0FCB82" fill-opacity="1" style="mix-blend-mode:passthrough"/></g><g><path d="M7.99920654296875,4.5L15.99842654296875,4.5C16.82580654296875,4.5,17.498406542968752,5.170312,17.498406542968752,6L17.498406542968752,13.5C17.498406542968752,14.32734,16.82580654296875,15,15.99842654296875,15L7.99920654296875,15C7.16951954296875,15,6.49920654296875,14.32734,6.49920654296875,13.5L6.49920654296875,6C6.49920654296875,5.170312,7.17186254296875,4.5,7.99920654296875,4.5ZM11.784366542968751,16.528100000000002C12.57889654296875,16.528100000000002,13.221086542968749,17.170299999999997,13.221086542968749,17.9648C13.221086542968749,18.7594,12.57654654296875,19.401600000000002,11.784366542968751,19.401600000000002C10.98983654296875,19.401600000000002,10.34764654296875,18.756999999999998,10.34764654296875,17.9648C10.34764654296875,17.170299999999997,10.98983654296875,16.528100000000002,11.784366542968751,16.528100000000002Z" fill="#9FEACD" fill-opacity="1" style="mix-blend-mode:passthrough"/></g></g></svg>