<svg xmlns="http://www.w3.org/2000/svg" xmlns:xlink="http://www.w3.org/1999/xlink" fill="none" version="1.1" width="24" height="24" viewBox="0 0 24 24"><defs><clipPath id="master_svg0_3001_006496"><rect x="0" y="0" width="24" height="24" rx="0"/></clipPath></defs><g clip-path="url(#master_svg0_3001_006496)"><g><path d="M23.71875,7.826172828674316L23.71875,18.240372828674317C23.71925,20.089972828674316,22.21965,21.589572828674317,20.36955,21.589572828674317L3.63047,21.589572828674317C1.7809,21.590172828674316,0.2812499141693,20.090472828674315,0.28125,18.240372828674317L0.28125,8.003359828674316L11.31755,14.375082828674316C11.68495,14.585892828674316,12.14205,14.560352828674317,12.48375,14.309922828674317C12.49875,14.302712828674316,12.51315,14.294402828674317,12.52685,14.285082828674316L23.71875,7.826172828674316Z" fill="#0FCB82" fill-opacity="1" style="mix-blend-mode:passthrough"/></g><g><path d="M23.69715,5.375549375L11.84625,12.219299375L0.290625,5.543829375C0.404756,3.7829493750000003,1.86589,2.412862396,3.63047,2.41211051941L20.36955,2.41211051941C22.07075,2.410652085,23.50255,3.685519375,23.69765,5.375549375L23.69715,5.375549375Z" fill="#9FEACD" fill-opacity="1" style="mix-blend-mode:passthrough"/></g></g></svg>