<svg xmlns="http://www.w3.org/2000/svg" xmlns:xlink="http://www.w3.org/1999/xlink" fill="none" version="1.1" width="24" height="24" viewBox="0 0 24 24"><defs><clipPath id="master_svg0_3001_006491"><rect x="0" y="0" width="24" height="24" rx="0"/></clipPath></defs><g clip-path="url(#master_svg0_3001_006491)"><g><path d="M22.90124697265625,3.409354375C22.825246972656252,2.960394375,22.38934697265625,2.539826375,21.94064697265625,2.480389375C17.522796972656252,1.905607975,13.10463697265625,1.714170375,8.68676697265625,1.905983075C8.23816897265625,1.925670575,7.84395097265625,2.339483375,7.81413797265625,2.819670375C7.60529177265625,6.311274375,7.51492737265625,9.808944375,7.54320068265625,13.306684375C7.54723175265625,13.786884375,7.94932597265625,14.184584375,8.43354497265625,14.188984375C11.16522697265625,14.212184375,13.89701697265625,14.208784375,16.62860697265625,14.178784375C16.625376972656248,14.207784375,16.62346697265625,14.236884375,16.62288697265625,14.266084375C16.61185697265625,15.008484375,16.595266972656248,15.750784375,16.573106972656248,16.492884375C16.559046972656247,16.973384375000002,16.82941697265625,17.080684375,17.17995697265625,16.732684374999998C18.060046972656252,15.859284375,18.946246972656247,14.992184375,19.83874697265625,14.131484375C20.79274697265625,14.113784375,21.74674697265625,14.092784375,22.700746972656248,14.068684375C23.18484697265625,14.055184375,23.59614697265625,13.675984375,23.60634697265625,13.227084375C23.67984697265625,9.954514375,23.444746972656247,6.681884375,22.90124697265625,3.409354375ZM12.717546972656251,9.345044375C11.964446972656251,9.343264375,11.35572697265625,8.731824375,11.35948697265625,7.975734375C11.36360697265625,7.219734375,11.967166972656251,6.603514375,12.706196972656251,6.606894375C13.44504697265625,6.610354375,14.055726972656249,7.230604375,14.066236972656249,7.984544375C14.07626697265625,8.738674375,13.470826972656251,9.346264375,12.717546972656251,9.345044375ZM18.60864697265625,9.409924375C17.85534697265625,9.396134374999999,17.233756972656252,8.783014375,17.211356972656247,8.036954375C17.18988697265625,7.291074375,17.76414697265625,6.705794375,18.50334697265625,6.737204375C19.24214697265625,6.768894375,19.88194697265625,7.390644375,19.918146972656253,8.118424375C19.95424697265625,8.846574375,19.36154697265625,9.423144375,18.60864697265625,9.409924375Z" fill="#0FCB82" fill-opacity="1" style="mix-blend-mode:passthrough"/></g><g><path d="M15.7107966796875,16.355769375C15.7000966796875,16.817369375,15.6875966796875,17.278939375,15.6734966796875,17.740459375C15.6577966796875,18.251559375,15.5487966796875,18.869559375,15.4344966796875,19.114159375C15.3195966796875,19.359059375,14.3557966796875,19.582759375000002,13.8621966796875,19.589659375C11.7961966796875,19.624159374999998,9.7302966796875,19.601159375,7.6643266796875,19.520559374999998C7.1699866796875,19.501359375,6.7671366796875,19.494859375,6.7692966796875,19.510859375000003C6.7713566796875,19.526959375,6.7991966796875,19.983859375,6.8336066796875,20.490859375C6.8420466796875,20.615159374999998,6.8505766796875,20.739659375000002,6.8592966796875,20.864159375C6.8945466796875,21.370959374999998,6.8786066796875,21.915359375,6.8207666796875,22.073059375C6.7633866796875,22.231759375,6.0677666796875,21.687759375,5.6921966796875,21.306759375C5.2543066796875,20.861259375,4.8135466796875,20.418459374999998,4.369956679687499,19.978559375C3.9896066796875,19.600359375,3.2710166796875,19.263559375,2.7759166796875,19.222659375L2.6024866796875,19.208159375C2.1082366796875,19.166659375000002,1.5027966796875,19.027059375,1.2560456796875,18.903259374999998C1.0084516796875,18.778059374999998,0.7029206796875,17.836959375,0.6566076796875,17.360759375C0.3823869996875,14.675629375,0.3169092796875,11.973269375000001,0.4607642796875,9.278009375C0.4837330796875,8.801859375,0.7488576796874999,7.867731375,0.9976706796875,7.750918375C1.2451706796875,7.635418375,1.8618566796875,7.515886375,2.3684866796875,7.489168375C3.7408066796875,7.416719075,5.1138966796875,7.359779175,6.4874866796875,7.318359375C6.3943966796875,9.702179375,6.3715766796875,12.088209375,6.4190466796875,14.473359375000001C6.4293566796875,14.979139374999999,6.8594866796875,15.402329375,7.3700466796875,15.411799375C10.1566766796875,15.460779375,12.9438966796875,15.465559375,15.7306966796875,15.426139375C15.7249966796875,15.736059375,15.7185966796875,16.045969375,15.7114966796875,16.355859375L15.7107966796875,16.355769375Z" fill="#9FEACD" fill-opacity="1" style="mix-blend-mode:passthrough"/></g></g></svg>