<svg xmlns="http://www.w3.org/2000/svg" xmlns:xlink="http://www.w3.org/1999/xlink" fill="none" version="1.1" width="24" height="24" viewBox="0 0 24 24"><defs><clipPath id="master_svg0_3001_006487"><rect x="0" y="0" width="24" height="24" rx="0"/></clipPath></defs><g clip-path="url(#master_svg0_3001_006487)"><g><path d="M16.665595747680666,7.032381069488526C16.173598747680664,6.799571069488525,15.588810747680665,7.011591069488525,15.349607447680665,7.501171069488525C15.111201747680663,7.992381069488525,15.317615547680663,8.586781069488525,15.805608747680663,8.832381069488525C15.868819747680664,8.865171069488525,17.363215747680663,9.641981069488526,17.363215747680663,11.853991069488526C17.363215747680663,14.217211069488526,15.965615747680664,15.000411069488525,15.919209747680664,15.026011069488526C15.426410747680665,15.272411069488525,15.226419447680664,15.872411069488525,15.472817747680663,16.365211069488524C15.648809747680664,16.715611069488524,16.000020747680665,16.917211069488523,16.367215747680664,16.917211069488523C16.516815747680663,16.917211069488523,16.669605747680663,16.883611069488524,16.812015747680665,16.812411069488526C16.916005747680664,16.759611069488525,19.358405747680663,15.495611069488525,19.358405747680663,11.854011069488525C19.358405747680663,8.340401069488525,16.775195747680662,7.084411069488525,16.665595747680666,7.032381069488526ZM19.772005747680666,4.101987069488525C19.311995747680662,3.8067920694885253,18.701615747680663,3.9411828494885253,18.400795747680665,4.400393069488525C18.101595747680665,4.859605069488525,18.232795747680665,5.477181069488525,18.690385747680665,5.779601069488526C18.798385747680666,5.850801069488526,21.354385747680663,7.592391069488525,21.354385747680663,11.927601069488524C21.354385747680663,16.272411069488527,18.902385747680665,18.015611069488525,18.804785747680665,18.082011069488523C18.345575747680662,18.388411069488527,18.222395747680665,19.006811069488528,18.527995747680663,19.466011069488523C18.719995747680663,19.754011069488527,19.036795747680664,19.910011069488526,19.359205747680665,19.910011069488526C19.548815747680663,19.910011069488526,19.741605747680666,19.854811069488527,19.911995747680663,19.742011069488527C20.051985747680664,19.649211069488526,23.349605747680663,17.388411069488527,23.349605747680663,11.926811069488526C23.349605747680663,6.4548110694885255,19.918395747680663,4.195599069488526,19.772005747680666,4.101987069488525Z" fill="#9FEACD" fill-opacity="1" style="mix-blend-mode:passthrough"/></g><g><path d="M12.79681787109375,2.04358905C12.44641787109375,1.8787999499999999,12.03281787109375,1.93319835,11.73521787109375,2.18039375L5.99679787109375,6.95638875L1.41919787109375,6.93799875C1.15599787109375,6.93799875,0.90240387109375,7.04198875,0.71600487109375,7.22838875C0.52801287109375,7.41478875,0.42160697109375,7.66837875,0.42160697109375,7.93399875L0.40081787109375,15.91561875C0.40081787109375,16.18121875,0.50480987109375,16.43561875,0.69202887109375,16.62281875C0.87842687109375,16.81161875,1.13281787109375,16.91641875,1.39843487109375,16.91641875L6.02642787109375,16.91641875L11.73601787109375,21.67481875C11.91841787109375,21.82681875,12.14641787109375,21.90521875,12.37441787109375,21.90521875C12.51841787109375,21.90521875,12.66241787109375,21.87401875,12.79761787109375,21.81081875C13.14801787109375,21.64681875,13.37201787109375,21.29481875,13.37201787109375,20.90751875L13.37201787109375,2.94677575C13.37201787109375,2.56038475,13.14801787109375,2.20837675,12.79681787109375,2.04358905L12.79681787109375,2.04358905Z" fill="#0FCB82" fill-opacity="1" style="mix-blend-mode:passthrough"/></g></g></svg>