<svg xmlns="http://www.w3.org/2000/svg" xmlns:xlink="http://www.w3.org/1999/xlink" fill="none" version="1.1" width="24" height="24" viewBox="0 0 24 24"><defs><clipPath id="master_svg0_3001_006471"><rect x="0" y="0" width="24" height="24" rx="0"/></clipPath></defs><g clip-path="url(#master_svg0_3001_006471)"><g><path d="M22,21.4288C21.9974,22.2955,21.2827,22.9975,20.4002,23L3.59978,23C2.716945,22.9975,2.00204998,22.295,2,21.4279L2,2.57117C2.00256034,1.704836,2.716739,1.00302,3.59884,1L16.3998,1L22,6.5L22,21.4288Z" fill="#0FCB82" fill-opacity="1" style="mix-blend-mode:passthrough"/></g><g><path d="M18.21484,7C17.268656,6.99784,16.5021567,6.23135,16.5,5.28516L16.5,1L22,6.5L18.21484,7Z" fill="#9FEACD" fill-opacity="1" style="mix-blend-mode:passthrough"/></g><g><path d="M8.589733,13.686720000000001L10.43332,13.686720000000001L10.43332,15.97813C10.4338,16.54229,10.880939999999999,16.99951,11.43266,17L12.57924,17C13.13048,16.99902,13.576830000000001,16.541800000000002,13.576830000000001,15.97813L13.576830000000001,13.686720000000001L15.41084,13.686720000000001C15.64304,13.686440000000001,15.85347,13.54688,15.948419999999999,13.330210000000001C16.04337,13.11353,16.00517,12.860050000000001,15.85083,12.68266L12.42328,9.177834C12.1782,8.9252253,11.77339,8.9442666,11.55202,9.218815L8.257781,12.58555C8.0444343,12.73443,7.95042,13.00778,8.0256648,13.26044C8.100909,13.513110000000001,8.327962,13.68648,8.586247,13.688500000000001L8.589733,13.686720000000001Z" fill="#FFFFFF" fill-opacity="1" style="mix-blend-mode:passthrough"/></g></g></svg>