<svg xmlns="http://www.w3.org/2000/svg" xmlns:xlink="http://www.w3.org/1999/xlink" fill="none" version="1.1" width="24" height="24" viewBox="0 0 24 24"><defs><clipPath id="master_svg0_3001_006451"><rect x="0" y="0" width="24" height="24" rx="0"/></clipPath></defs><g clip-path="url(#master_svg0_3001_006451)"><g><path d="M10.86698984375,15.1842Q10.81948984375,15.4455,10.74818984375,15.5881Q10.67688984375,15.7307,10.41548984375,15.897Q9.79768984375,16.2772,9.08478984375,16.5149Q8.37191984375,16.7525,7.71845984375,17.0376Q7.06498984375,17.3228,6.57785984375,17.7861Q6.09072984375,18.2495,5.97191984375,19.1049Q5.92439984375,19.3663,5.91251984375,19.6158Q5.90062984375,19.8653,5.87686984375,20.0792Q5.85310984375,20.1267,5.82934984375,20.1624Q5.80558984375,20.198,5.78181984375,20.2455Q4.85508984375,20.1743,3.90459984375,20.0792Q2.95409984375,19.9842,2.15805984375,19.8653Q1.36201984375,19.7465,0.81548984375,19.6277Q0.26895084375,19.5089,0.12637684375000002,19.3901Q-0.08748415625,19.2238,-0.19441505625,18.3921Q-0.30134585625,17.5604,-0.11124715625,16.2297Q0.007564843749999994,15.4931,0.49469384375000003,15.101Q0.9818198437500001,14.7089,1.64716984375,14.4832Q2.31251984375,14.2574,3.01350984375,14.0673Q3.71449984375,13.8772,4.26102984375,13.5446Q4.68874984375,13.2594,4.91449984375,13.0218Q5.14023984375,12.7842,5.23528984375,12.5347Q5.33033984375,12.2852,5.33033984375,12.0238Q5.33033984375,11.7624,5.30657984375,11.4535Q5.25904984375,10.9782,4.98577984375,10.705Q4.71251984375,10.4317,4.37983984375,10.1465Q4.18973984375,10.0277,4.05904984375,9.76634Q3.92835984375,9.50495,3.8333098437500004,9.24357Q3.73825984375,8.95842,3.64320984375,8.60198Q3.50063984375,8.55446,3.35805984375,8.45941Q3.23924984375,8.36436,3.10855984375,8.17426Q2.97785984375,7.98416,2.85904984375,7.65149Q2.74023984375,7.31881,2.76399984375,7.02178Q2.78775984375,6.72475,2.88280984375,6.51089Q2.97785984375,6.24951,3.14419984375,6.08317Q3.12043984375,5.32277,3.21548984375,4.53861Q3.31053984375,3.89703,3.52439984375,3.1604Q3.73825984375,2.42376,4.16597984375,1.8297Q4.54617984375,1.25941,5.02142984375,0.90297Q5.49666984375,0.546535,5.98379984375,0.344554Q6.47092984375,0.142574,6.96993984375,0.0712871Q7.46894984375,7.15256e-8,7.944199843750001,0Q9.13231984375,0,10.08278984375,0.49901Q11.03328984375,0.99802,11.50858984375,1.56832Q11.81748984375,1.97228,11.90058984375,2.31683Q11.98378984375,2.66139,12.12638984375,3.11287Q11.67488984375,3.37426,11.16398984375,3.88515Q10.65308984375,4.39604,10.27288984375,4.91881Q9.79768984375,5.58416,9.56003984375,6.39208Q9.32241984375,7.2,9.20360984375,7.88911Q9.08478984375,8.72079,9.08478984375,9.55248Q8.89468984375,9.76634,8.79964984375,10.0277Q8.70459984375,10.2653,8.68082984375,10.5861Q8.65706984375,10.9069,8.77587984375,11.2871Q8.89468984375,11.6911,9.03726984375,11.905Q9.17983984375,12.1188,9.29864984375,12.2376Q9.44122984375,12.3802,9.58379984375,12.4277Q9.67884984375,12.8079,9.77388984375,13.1406Q9.86898984375,13.4257,9.99968984375,13.7228Q10.13028984375,14.0198,10.32038984375,14.1624Q10.48678984375,14.305,10.58178984375,14.4Q10.67688984375,14.4951,10.73628984375,14.5782Q10.79568984375,14.6614,10.80758984375,14.804Q10.81948984375,14.9465,10.86698984375,15.1842Z" fill="#9FEACD" fill-opacity="1" style="mix-blend-mode:passthrough"/></g><g><path d="M23.53228984375,19.554940625Q23.62738984375,19.887540625,23.68678984375,20.362840625Q23.74618984375,20.838040625,23.74618984375,21.325240625Q23.74618984375,21.812340625,23.67488984375,22.240040625Q23.60358984375,22.667740625,23.46098984375,22.881640625Q23.36598984375,23.024240625,22.90258984375,23.166740625Q22.43928984375,23.309340625,21.75008984375,23.428140625Q21.06098984375,23.546940625,20.22938984375,23.653940625Q19.39768984375,23.760840625,18.55408984375,23.832140625Q17.71048984375,23.903440625,16.92638984375,23.950940625Q16.14218984375,23.998440625,15.54818984375,23.998440625Q14.95408984375,23.998440625,14.18178984375,23.950940625Q13.40958984375,23.903440625,12.57788984375,23.832140625Q11.74618984375,23.760840625,10.93828984375,23.677640625Q10.13028984375,23.594540625,9.45310984375,23.487540625Q8.77587984375,23.380640625,8.31251984375,23.273740625Q7.84914984375,23.166740625,7.73033984375,23.071740625Q7.54023984375,22.905440625,7.42142984375,22.073740625Q7.30260984375,21.242040625,7.49270984375,19.935140625Q7.61152984375,19.174740625,8.09864984375,18.794540625Q8.58577984375,18.414340625,9.25112984375,18.176640624999997Q9.91648984375,17.939040625,10.61748984375,17.760840625Q11.31848984375,17.582640625,11.86498984375,17.226240625000003Q12.29268984375,16.941040625,12.51848984375,16.703440625Q12.74418984375,16.465840625,12.85108984375,16.228140625Q12.95808984375,15.990540625,12.95808984375,15.729140625Q12.95808984375,15.467740625,12.93428984375,15.135140625Q12.88678984375,14.659840625,12.60158984375,14.386640625Q12.31648984375,14.113340625,11.98378984375,13.851940625Q11.81748984375,13.709340625,11.68678984375,13.447980625Q11.55608984375,13.186590625,11.46098984375,12.925200625Q11.36598984375,12.640060625,11.27088984375,12.283620625Q11.12838984375,12.236090625,10.98578984375,12.141050625Q10.86698984375,12.046000625,10.73628984375,11.855900625Q10.60558984375,11.665800625,10.48678984375,11.333120625Q10.36798984375,11.000450625,10.39168984375,10.703420625Q10.41548984375,10.406390625,10.51048984375,10.216290625Q10.60558984375,9.978670625,10.77188984375,9.788570625Q10.74818984375,9.028170625,10.84318984375,8.244020625000001Q10.93828984375,7.578670625,11.14018984375,6.853920625000001Q11.34218984375,6.129160625,11.76998984375,5.511340625Q12.15008984375,4.941050625,12.62538984375,4.584610625Q13.10058984375,4.228175625,13.59968984375,4.0261946250000005Q14.09868984375,3.824214625,14.59768984375,3.752927625Q15.09668984375,3.681640911102,15.54818984375,3.681640625Q16.76008984375,3.681640625,17.71048984375,4.180650625Q18.66098984375,4.679660625,19.11248984375,5.249960625Q19.63528984375,5.891540625,19.88478984375,6.687580625Q20.13428984375,7.483620625,20.25308984375,8.172730625Q20.37188984375,8.980650624999999,20.34818984375,9.788570625Q20.46698984375,9.883620624999999,20.56198984375,10.049960625Q20.63328984375,10.192530625,20.69268984375,10.418270625Q20.75208984375,10.644020625,20.70458984375,10.976690625Q20.65708984375,11.404410625,20.51448984375,11.665800625Q20.37188984375,11.927190625,20.22938984375,12.069760625Q20.06298984375,12.236100625,19.84918984375,12.283620625Q19.75408984375,12.640060625,19.65908984375,12.925210625Q19.56398984375,13.186590625,19.42138984375,13.447980625Q19.27888984375,13.709340625,19.11248984375,13.828140625Q18.92238984375,13.994540625,18.76798984375,14.113340625Q18.61348984375,14.232140625,18.49468984375,14.362840625Q18.37588984375,14.493540625,18.29268984375,14.659840625Q18.20958984375,14.826240625,18.16198984375,15.063840625Q18.11448984375,15.372740625,18.12638984375,15.693540625Q18.13828984375,16.014340625000003,18.28078984375,16.323240625Q18.42338984375,16.632140624999998,18.74418984375,16.917240624999998Q19.06498984375,17.202440625,19.63528984375,17.416340625Q20.13428984375,17.630140625,20.74028984375,17.784640625Q21.34618984375,17.939040625,21.90458984375,18.152940625Q22.46298984375,18.366840625000002,22.90258984375,18.699440625Q23.34218984375,19.032140625,23.53228984375,19.554940625Z" fill="#0FCB82" fill-opacity="1" style="mix-blend-mode:passthrough"/></g></g></svg>