<svg xmlns="http://www.w3.org/2000/svg" xmlns:xlink="http://www.w3.org/1999/xlink" fill="none" version="1.1" width="24" height="24" viewBox="0 0 24 24"><defs><clipPath id="master_svg0_3001_006460"><rect x="0" y="0" width="24" height="24" rx="0"/></clipPath></defs><g clip-path="url(#master_svg0_3001_006460)"><g><path d="M19.749320546874998,15.980921875C20.969010546874998,15.082491874999999,21.689310546875,13.658001875,21.690010546875,12.143111874999999C21.804410546874998,9.500151875,19.692620546875,7.294921875,17.047180546875,7.294921875C14.401730546875001,7.294922790527,12.289930546875,9.500151875,12.404380546875,12.143111874999999C12.401400546875,13.660911875,13.126320546875,15.088101875,14.353750546875,15.980921875C11.900850546875,17.223301875,10.279053546875,19.660921875,10.080810546875,22.403421875C10.080810546875,22.847221875000002,10.307068546875,23.195321874999998,10.733500546875,23.195321874999998L23.334810546874998,23.195321874999998C23.761210546875,23.195321874999998,23.987510546875,22.847221875000002,23.987510546875,22.403421875C23.784410546875,19.669921875,22.176410546874997,17.238011874999998,19.740620546875,15.980921875L19.749320546874998,15.980921875Z" fill="#0FCB82" fill-opacity="1" style="mix-blend-mode:passthrough"/></g><g><path d="M12.1868,15.57164375C11.0652,14.17094375,10.5652,12.37244375,10.8031,10.59380375C11.0441,8.96929375,11.9167,7.50560375,13.2311,6.52103375C14.9071,5.35414375,17.0447,5.07193375,18.9661,5.76388375C20.6631,6.40787375,20.7066,7.09539375,20.9068,7.09539375C21.3345,7.09060375,21.6774,6.73992375,21.6726,6.31216375L21.6726,4.98937375C21.761,2.75881375,20.0301,0.87620055,17.8,0.77734375L3.8759,0.77734375C1.64576,0.87618955,-0.085153,2.75880375,0.00326378,4.98937375L0.00326378,18.66974375C-0.0851537,20.90034375,1.64576,22.78294375,3.8759,22.88174375L6.96528,22.88174375C7.37632,22.93364375,7.74139,22.61724375,7.74849,22.20294375C7.7864,21.59814375,7.94313,21.00674375,8.20973,20.46244375C8.62681,19.48304375,9.18697,18.57094375,9.87191,17.75594375C10.5332,16.91914375,11.313,16.18334375,12.1868,15.57164375ZM5.42494,4.1626337499999995L11.0555,4.1626337499999995C11.3293,4.1696437500000005,11.556,4.3777237499999995,11.5863,4.6499837500000005C11.6491,4.99535375,11.4118,5.32355375,11.0642,5.37228375L5.46845,5.37228375C5.13625,5.41053375,4.84961,5.14051375,4.86799,4.80662375C4.84819,4.48268375,5.10052,4.20668375,5.42494,4.19744375L5.42494,4.1626337499999995ZM3.30154,4.01469375C3.5758,4.01042375,3.83139,4.15316375,3.97161,4.388893749999999C4.11023,4.62534375,4.11023,4.91825375,3.97161,5.15470375C3.83139,5.39045375,3.57579,5.53319375,3.30152,5.52892375C2.88497,5.52668375,2.54848,5.18836375,2.54848,4.77181375C2.54848,4.35525375,2.88497,4.01693375,3.30154,4.01469375ZM7.71369,15.04084375L3.07522,15.04084375C2.67254,15.08664375,2.31969,14.77164375,2.31969,14.36634375C2.31969,13.96104375,2.67254,13.64614375,3.07522,13.69194375L7.71369,13.69194375C8.11637,13.64604375,8.46921,13.96104375,8.46921,14.36634375C8.46921,14.77164375,8.11637,15.08664375,7.71369,15.04084375ZM9.27145,11.22034375L3.07526,11.22034375C2.64013,11.22034375,2.29203,10.98544375,2.30946,10.54159375C2.31197,10.13257375,2.66889,9.81620375,3.07526,9.86280375L9.27147,9.86280375C9.67597,9.82207375,10.0292,10.13513375,10.0373,10.54159375C10.0407,10.95324375,9.67977,11.27314375,9.27145,11.22034375Z" fill="#9FEACD" fill-opacity="1" style="mix-blend-mode:passthrough"/></g></g></svg>