<svg xmlns="http://www.w3.org/2000/svg" xmlns:xlink="http://www.w3.org/1999/xlink" fill="none" version="1.1" width="24" height="24" viewBox="0 0 24 24"><defs><clipPath id="master_svg0_3001_006467"><rect x="0" y="0" width="24" height="24" rx="0"/></clipPath></defs><g clip-path="url(#master_svg0_3001_006467)"><g><path d="M20.243046875,4.756586875C22.377446875,6.890456875,22.594546875,10.277676875000001,20.750046875,12.666586875C18.421946875,11.465716875,15.583946875,11.913986875,13.739346875,13.773946875C11.894686875,15.633846875,11.469926875,18.475546875,12.690046875,20.793546875L12.000046875,21.484546875L3.521026875,12.992576875C1.401699875,10.617246875,1.506330875,7.000256875,3.759426875,4.751416875C6.012526875,2.502567875,9.629706875,2.4047688750000002,12.001046875,4.528576875C14.373346875,2.4048988749999998,17.991746875,2.504992875,20.243046875,4.756586875Z" fill="#0FCB82" fill-opacity="1" style="mix-blend-mode:passthrough"/></g><g><path d="M19.000026449890136,14.998859375L19.000026449890136,16.998859375000002L21.000026449890136,16.998859375000002C21.552316449890135,16.998859375000002,22.000026449890136,17.446559375,22.000026449890136,17.998859375000002C22.000026449890136,18.551159374999997,21.552316449890135,18.998859375000002,21.000026449890136,18.998859375000002L19.000026449890136,18.998859375000002L19.000026449890136,20.998859375C19.000026449890136,21.551159375,18.552316449890135,21.998859375,18.000026449890136,21.998859375C17.447746449890136,21.998859375,17.000026449890136,21.551159375,17.000026449890136,20.998859375L17.000026449890136,18.998859375000002L15.000026449890136,18.998859375000002C14.447745449890137,18.998859375000002,14.000029449890137,18.551159374999997,14.000029449890137,17.998859375000002C14.000029449890137,17.446559375,14.447745449890137,16.998859375000002,15.000026449890136,16.998859375000002L17.000026449890136,16.998859375000002L17.000026449890136,14.998859375C17.000026449890136,14.446569375,17.447746449890136,13.998859375,18.000026449890136,13.998859375C18.552316449890135,13.998859375,19.000026449890136,14.446569375,19.000026449890136,14.998859375" fill="#9FEACD" fill-opacity="1" style="mix-blend-mode:passthrough"/></g></g></svg>