<svg xmlns="http://www.w3.org/2000/svg" xmlns:xlink="http://www.w3.org/1999/xlink" fill="none" version="1.1" width="24" height="24" viewBox="0 0 24 24"><defs><clipPath id="master_svg0_3001_006482"><rect x="0" y="0" width="24" height="24" rx="0"/></clipPath></defs><g clip-path="url(#master_svg0_3001_006482)"><g><path d="M10.58963857421875,16.9926C10.58963857421875,13.651,12.87043857421875,10.8423,15.96023857421875,10.03781C16.18743857421875,9.25758,16.31103857421875,8.44093,16.31103857421875,7.62162C16.31103857421875,3.65265,13.41523857421875,1.125,9.84318857421875,1.125C6.27106857421875,1.125,3.37536857421875,3.6526,3.37536857421875,7.6216C3.37536857421875,9.87125,4.30574857421875,12.101,5.76223857421875,13.6108L5.76191857421875,13.6108C5.76191857421875,13.6108,7.00367857421875,14.9784,6.22557857421875,15.343C2.87636857421875,16.3731,0.52703857421875,18.7803,0.52703857421875,21.5856C0.52703857421875,22.4135,5.19827857421875,22.7833,9.86946857421875,22.7833C11.07963857421875,22.7833,12.28983857421875,22.7585,13.41883857421875,22.7073C11.69933857421875,21.3942,10.58963857421875,19.3232,10.58963857421875,16.9926Z" fill="#9FEACD" fill-opacity="1" style="mix-blend-mode:passthrough"/></g><g><path d="M17.76792779296875,11.24609375C14.59274779296875,11.24609375,12.01873779296875,13.82010375,12.01873779296875,16.99528375C12.01873779296875,20.17049375,14.59274779296875,22.74449375,17.76792779296875,22.74449375C20.94310779296875,22.74449375,23.51713779296875,20.17046375,23.51713779296875,16.99528375C23.51713779296875,13.82010375,20.94313779296875,11.24609375,17.76792779296875,11.24609375ZM21.36116779296875,17.71390375L18.48654779296875,17.71390375L18.48654779296875,20.58850375L17.049277792968752,20.58850375L17.049277792968752,17.71390375L14.17468779296875,17.71390375L14.17468779296875,16.27661375L17.049277792968752,16.27661375L17.049277792968752,13.40204375L18.48654779296875,13.40204375L18.48654779296875,16.276633750000002L21.36116779296875,16.276633750000002L21.36116779296875,17.71390375Z" fill="#0FCB82" fill-opacity="1" style="mix-blend-mode:passthrough"/></g></g></svg>