<svg xmlns="http://www.w3.org/2000/svg" xmlns:xlink="http://www.w3.org/1999/xlink" fill="none" version="1.1" width="28" height="28" viewBox="0 0 28 28"><defs><clipPath id="master_svg0_1795_026778"><rect x="0" y="0" width="28" height="28" rx="8"/></clipPath><clipPath id="master_svg1_1795_026779"><rect x="3" y="3" width="22" height="22" rx="0"/></clipPath></defs><g clip-path="url(#master_svg0_1795_026778)"><rect x="0" y="0" width="28" height="28" rx="8" fill="#07C160" fill-opacity="1"/><g clip-path="url(#master_svg1_1795_026779)"><g><path d="M11.782880625,22.360684375L8.764920625,24.173584375C8.129930625,24.554984375,7.322850625,24.091084375,7.332930625,23.350384375L7.370310625,20.598084375C4.744420625,18.836084375,3.150390625,16.112184375,3.150390625,13.138114375C3.150390625,7.895474375,8.037720625,3.708984375,13.999990625,3.708984375C19.962290625,3.708984375,24.849590625,7.895474375,24.849590625,13.138114375C24.849590625,18.381284375,19.962590625,22.567284375,13.999990625,22.567284375C13.260990625,22.567284375,12.523270625,22.496784375,11.782880625,22.360684375Z" fill="#FFFFFF" fill-opacity="1" style="mix-blend-mode:passthrough"/></g><g><path d="M18.125,13.162109375C18.125,13.921109375,18.741,14.537109375,19.5,14.537109375C20.259,14.537109375,20.875,13.921109375,20.875,13.162109375C20.875,12.403109375,20.259,11.787109375,19.5,11.787109375C18.741,11.787109375,18.125,12.403109375,18.125,13.162109375ZM7.125,13.162109375C7.125,13.921109375,7.741,14.537109375,8.5,14.537109375C9.259,14.537109375,9.875,13.921109375,9.875,13.162109375C9.875,12.403109375,9.259,11.787109375,8.5,11.787109375C7.741,11.787109375,7.125,12.403109375,7.125,13.162109375ZM12.625,13.162109375C12.625,13.921109375,13.241,14.537109375,14,14.537109375C14.759,14.537109375,15.375,13.921109375,15.375,13.162109375C15.375,12.403109375,14.759,11.787109375,14,11.787109375C13.241,11.787109375,12.625,12.403109375,12.625,13.162109375Z" fill="#07C160" fill-opacity="1" style="mix-blend-mode:passthrough"/></g></g></g></svg>