<svg xmlns="http://www.w3.org/2000/svg" xmlns:xlink="http://www.w3.org/1999/xlink" fill="none" version="1.1" width="20" height="20" viewBox="0 0 20 20"><defs><clipPath id="master_svg0_1795_014655"><rect x="0" y="0" width="20" height="20" rx="0"/></clipPath></defs><g style="opacity:0.699999988079071;" clip-path="url(#master_svg0_1795_014655)"><g><path d="M13.20675810546875,6.6159644921875Q13.07715810546875,6.5970644921875,13.01885810546875,6.479724492187501L11.57310810546875,3.5666194921875Q11.08930810546875,2.5918168421875,10.00105810546875,2.5946124792075Q8.912798105468749,2.5974081721875,8.43401810546875,3.5746834921875L7.01133810546875,6.4785844921875Q6.95328810546875,6.5970744921875,6.82271810546875,6.6160144921875L3.56163810546875,7.0888844921875Q2.48575610546875,7.2448944921875,2.14889910546875,8.2785244921875Q1.81204210546875,9.3121444921875,2.58939910546875,10.0721244921875L4.95672810546875,12.3865244921875Q5.05101810546875,12.4787044921875,5.02818810546875,12.6086044921875L4.472998105468751,15.7661044921875Q4.2835581054687495,16.8434044921875,5.169038105468751,17.4857044921875Q6.05452810546875,18.1280044921875,7.01981810546875,17.6134044921875L9.88217810546875,16.087404492187503Q9.99977810546875,16.0247044921875,10.11737810546875,16.087404492187503L12.98385810546875,17.6152044921875Q13.94845810546875,18.1294044921875,14.83365810546875,17.4881044921875Q15.71885810546875,16.846804492187502,15.53085810546875,15.7700044921875L14.97905810546875,12.6083044921875Q14.95645810546875,12.4787144921875,15.05035810546875,12.3866844921875L17.41595810546875,10.0699644921875Q18.19195810546875,9.3100144921875,17.85535810546875,8.2773644921875Q17.51875810546875,7.2447144921875,16.44405810546875,7.0879944921875L13.20675810546875,6.6159644921875Z" fill-rule="evenodd" fill="#07C160" fill-opacity="1" style="mix-blend-mode:passthrough"/></g></g></svg>