<svg xmlns="http://www.w3.org/2000/svg" xmlns:xlink="http://www.w3.org/1999/xlink" fill="none" version="1.1" width="16" height="16" viewBox="0 0 16 16"><defs><clipPath id="master_svg0_1795_026791"><rect x="0" y="0" width="16" height="16" rx="0"/></clipPath></defs><g style="opacity:0.30000001192092896;" clip-path="url(#master_svg0_1795_026791)"><g><path d="M12.34319609375,3.9166240234375L13.00019609375,3.9166240234375Q13.58699609375,3.9166240234375,14.00189609375,4.3315540234375Q14.41679609375,4.7464840234375,14.41679609375,5.3332940234375L14.41679609375,9.3332940234375Q14.41679609375,9.9201040234375,14.00189609375,10.3350340234375Q13.74289609375,10.5940740234375,13.41679609375,10.6913740234375L13.41679609375,14.6666740234375C13.41679609375,15.0808740234375,13.08099609375,15.4166740234375,12.66679609375,15.4166740234375L3.33349609375,15.4166740234375C2.9192860937500003,15.4166740234375,2.58349609375,15.0808740234375,2.58349609375,14.6666740234375L2.58349609375,10.6913740234375Q2.25747109375,10.5940740234375,1.99843109375,10.3350340234375Q1.58349609375,9.9201040234375,1.58349609375,9.3332940234375L1.58349609375,5.3332940234375Q1.58349609375,4.7464840234375,1.99843109375,4.3315540234375Q2.41336109375,3.9166240234375,3.00016609375,3.9166240234375L3.65710609375,3.9166240234375Q3.74586609375,3.4736340234375,3.94163609375,3.0528440234375Q4.28367609375,2.3176940234375003,4.90293609375,1.7547340234375Q6.19142609375,0.5833740234375,8.00016609375,0.5833740234375Q9.80889609375,0.5833740234375,11.09738609375,1.7547340234375Q11.71669609375,2.3176940234375003,12.05869609375,3.0528440234375Q12.25449609375,3.4736240234375,12.34319609375,3.9166240234375ZM5.20165609375,3.9166240234375L10.79867609375,3.9166240234375Q10.60396609375,3.3333540234375,10.08837609375,2.8646440234375Q9.228986093749999,2.0833740234375,8.00016609375,2.0833740234375Q6.77133609375,2.0833740234375,5.91194609375,2.8646440234375Q5.39636609375,3.3333540234375,5.20165609375,3.9166240234375ZM7.16650609375,10.1666240234375L7.16650609375,10.1411740234375Q7.39370609375,9.8216140234375,7.41469609375,9.4166240234375L8.58563609375,9.4166240234375Q8.60659609375,9.8210340234375,8.83316609375,10.1402540234375L8.83316609375,10.1666240234375L7.16650609375,10.1666240234375ZM10.00016609375,10.7499740234375L11.91679609375,10.7499740234375L11.91679609375,13.9166740234375L4.08349609375,13.9166740234375L4.08349609375,10.7499740234375L6.00016609375,10.7499740234375Q6.08797609375,10.7499740234375,6.17194609375,10.7406740234375C6.20772609375,10.9816740234375,6.41551609375,11.1666740234375,6.66650609375,11.1666740234375L9.33316609375,11.1666740234375C9.58417609375,11.1666740234375,9.79198609375,10.9816740234375,9.82773609375,10.7405740234375Q9.91201609375,10.7499740234375,10.00016609375,10.7499740234375Z" fill-rule="evenodd" fill="#000000" fill-opacity="1" style="mix-blend-mode:passthrough"/></g></g></svg>