<svg xmlns="http://www.w3.org/2000/svg" xmlns:xlink="http://www.w3.org/1999/xlink" fill="none" version="1.1" width="20" height="20" viewBox="0 0 20 20"><defs><clipPath id="master_svg0_1795_029919"><rect x="0" y="0" width="20" height="20" rx="0"/></clipPath></defs><g clip-path="url(#master_svg0_1795_029919)"><g><path d="M4.9678278894042975,2.70245361328125L7.081417889404297,2.70245361328125Q7.866217889404297,2.70245361328125,8.247177889404297,3.38860061328125L9.266527889404298,5.224803613281249Q9.607757889404297,5.83951361328125,9.293317889404296,6.468283613281249L8.389817889404297,8.27533361328125Q8.677537889404297,9.49350361328125,9.693257889404297,10.50922361328125Q10.708497889404297,11.52445361328125,11.921647889404296,11.80805361328125L13.729067889404297,10.90439361328125Q14.358267889404297,10.589723613281251,14.973167889404296,10.93160361328125L16.814567889404294,11.95535361328125Q17.5000678894043,12.33653361328125,17.5000678894043,13.12065361328125L17.5000678894043,15.23465361328125Q17.5000678894043,16.29565361328125,16.674467889404298,16.92095361328125Q15.831367889404296,17.559553613281253,14.820167889404297,17.21825361328125Q9.737607889404297,15.50335361328125,7.218397889404297,12.98405361328125Q4.699187889404297,10.46491361328125,2.984187889404297,5.38229361328125Q2.6429918894042967,4.37108361328125,3.281553889404297,3.52803661328125Q3.906887889404297,2.70245361328125,4.9678278894042975,2.70245361328125ZM4.9678278894042975,3.70245361328125Q4.403917889404297,3.70245361328125,4.078697889404297,4.1318236132812505Q3.759736889404297,4.55292361328125,3.9316978894042967,5.06258361328125Q5.571847889404297,9.92335361328125,7.925517889404297,12.27697361328125Q10.279157889404296,14.63065361328125,15.139867889404297,16.27075361328125Q15.649567889404297,16.442753613281248,16.070667889404298,16.123753613281252Q16.5000678894043,15.79855361328125,16.5000678894043,15.23465361328125L16.5000678894043,13.12065361328125Q16.5000678894043,12.92465361328125,16.328667889404297,12.82935361328125L14.487267889404297,11.80561361328125Q14.333567889404296,11.72014361328125,14.176267889404297,11.79882361328125L12.212517889404296,12.78065361328125C12.114277889404297,12.82975361328125,12.002607889404297,12.84515361328125,11.894737889404297,12.82445361328125Q10.285727889404296,12.51590361328125,8.986157889404296,11.21632361328125Q7.687087889404297,9.91726361328125,7.373317889404297,8.304153613281251C7.352267889404297,8.19590361328125,7.367587889404297,8.08372361328125,7.416907889404297,7.98508361328125L8.398927889404296,6.02101361328125Q8.477527889404296,5.86384361328125,8.392217889404296,5.710163613281249L7.372897889404297,3.87402361328125Q7.277637889404297,3.70245361328125,7.081417889404297,3.70245361328125L4.9678278894042975,3.70245361328125Z" fill-rule="evenodd" fill="#FFFFFF" fill-opacity="1" style="mix-blend-mode:passthrough"/></g></g></svg>