<svg xmlns="http://www.w3.org/2000/svg" xmlns:xlink="http://www.w3.org/1999/xlink" fill="none" version="1.1" width="16" height="16" viewBox="0 0 16 16"><defs><clipPath id="master_svg0_1868_113827"><rect x="0" y="0" width="16" height="16" rx="0"/></clipPath></defs><g clip-path="url(#master_svg0_1868_113827)"><g><path d="M11.33329,7.8333128690719604L3.33333,7.8333128690719604Q2.9881599999999997,7.8333128690719604,2.7440800000000003,8.07739286907196Q2.5,8.321472869071961,2.5,8.66664286907196L2.5,13.33331286907196Q2.5,13.67851286907196,2.7440800000000003,13.92261286907196Q2.9881599999999997,14.16661286907196,3.33333,14.16661286907196L12.6667,14.16661286907196Q13.0118,14.16661286907196,13.2559,13.92261286907196Q13.5,13.67851286907196,13.5,13.33331286907196L13.5,8.66664286907196Q13.5,8.321472869071961,13.2559,8.07739286907196Q13.0118,7.8333128690719604,12.6667,7.8333128690719604L11.33329,7.8333128690719604ZM10.83329,4.666642869071961L10.83329,6.8333128690719604L5.16663,6.8333128690719604L5.16663,4.666642869071961Q5.16663,3.4930428690719606,5.9965,2.6631728690719605Q6.82636,1.8333128690719604,7.99996,1.8333128690719604Q9.17356,1.8333128690719604,10.00342,2.6631728690719605Q10.83329,3.4930428690719606,10.83329,4.666642869071961ZM4.16663,6.8333128690719604L4.16663,4.666642869071961Q4.16663,3.0788328690719604,5.28939,1.9560728690719604Q6.41215,0.8333128690719604,7.99996,0.8333128690719604Q9.58777,0.8333128690719604,10.71053,1.9560728690719604Q11.8333,3.0788328690719604,11.8333,4.666642869071961L11.8333,6.8333128690719604L12.6667,6.8333128690719604Q13.4261,6.8333128690719604,13.963,7.370282869071961Q14.5,7.907252869071961,14.5,8.66664286907196L14.5,13.33331286907196Q14.5,14.09271286907196,13.963,14.62971286907196Q13.4261,15.16661286907196,12.6667,15.16661286907196L3.33333,15.16661286907196Q2.57394,15.16661286907196,2.036971,14.62971286907196Q1.5,14.09271286907196,1.5,13.33331286907196L1.5,8.66664286907196Q1.5,7.907252869071961,2.036971,7.370282869071961Q2.57394,6.8333128690719604,3.33333,6.8333128690719604L4.16663,6.8333128690719604ZM8,9.50000286907196C7.72386,9.50000286907196,7.5,9.72385286907196,7.5,10.00000286907196L7.5,12.000012869071961C7.5,12.27611286907196,7.72386,12.500012869071961,8,12.500012869071961C8.27614,12.500012869071961,8.5,12.27611286907196,8.5,12.000012869071961L8.5,10.00000286907196C8.5,9.72385286907196,8.27614,9.50000286907196,8,9.50000286907196Z" fill-rule="evenodd" fill="#593100" fill-opacity="1" style="mix-blend-mode:passthrough"/></g></g></svg>