<svg xmlns="http://www.w3.org/2000/svg" xmlns:xlink="http://www.w3.org/1999/xlink" fill="none" version="1.1" width="16" height="16" viewBox="0 0 16 16"><defs><clipPath id="master_svg0_1795_026629"><rect x="0" y="16" width="16" height="16" rx="0"/></clipPath></defs><g transform="matrix(0,-1,1,0,-16,16)" clip-path="url(#master_svg0_1795_026629)"><g><path d="M8,25.29289L4.353613,21.646506C4.259785,21.5526784,4.132608,21.5,4,21.5C3.723858,21.5,3.5,21.723858,3.5,22C3.5,22.132608,3.5526784,22.259785,3.646447,22.353553L7.64645,26.35355C7.84171,26.54882,8.158290000000001,26.54882,8.35355,26.35355L12.35355,22.353553C12.44732,22.259785,12.5,22.132608,12.5,22C12.5,21.723858,12.27614,21.5,12,21.5C11.86739,21.5,11.74022,21.5526784,11.64645,21.646447L8,25.29289Z" fill-rule="evenodd" fill="#000000" fill-opacity="0.4000000059604645" style="mix-blend-mode:passthrough"/></g></g></svg>