<svg xmlns="http://www.w3.org/2000/svg" xmlns:xlink="http://www.w3.org/1999/xlink" fill="none" version="1.1" width="20" height="20" viewBox="0 0 20 20"><defs><clipPath id="master_svg0_1994_71207"><rect x="0" y="0" width="20" height="20" rx="0"/></clipPath></defs><g style="opacity:0.699999988079071;" clip-path="url(#master_svg0_1994_71207)"><g><path d="M13.018858820724487,6.4797125712585455Q13.077158820724486,6.597052571258545,13.206758820724488,6.6159525712585445L16.444058820724486,7.087982571258545Q17.518758820724486,7.244702571258545,17.855358820724486,8.277352571258545Q18.191958820724487,9.310002571258545,17.415958820724487,10.069952571258545L15.050358820724487,12.386672571258545Q14.956458820724487,12.478702571258545,14.979058820724488,12.608292571258545L15.530858820724488,15.769992571258545Q15.718858820724487,16.846792571258547,14.833658820724487,17.488092571258544Q13.948458820724488,18.129392571258546,12.983858820724487,17.615192571258547L10.117378820724488,16.087392571258547Q9.999778820724487,16.024692571258544,9.882178820724487,16.087392571258547L7.019818820724487,17.613392571258544Q6.054528820724487,18.127992571258545,5.169038820724488,17.485692571258546Q4.283558820724487,16.843392571258544,4.472998820724488,15.766092571258545L5.028188820724488,12.608592571258544Q5.0510188207244875,12.478692571258545,4.9567288207244875,12.386512571258544L2.5893998207244873,10.072112571258545Q1.8120428207244874,9.312132571258545,2.148899820724487,8.278512571258545Q2.4857568207244873,7.244882571258545,3.5616388207244873,7.088872571258545L6.8227188207244875,6.616002571258545Q6.953288820724487,6.597062571258545,7.011338820724487,6.478572571258545L8.434018820724487,3.574671571258545Q8.912798820724486,2.597396251258545,10.001058820724488,2.594600558278545Q11.089308820724487,2.591804921258545,11.573108820724487,3.5666075712585448L13.018858820724487,6.4797125712585455ZM11.675278820724488,7.146552571258545L10.229488820724487,4.233452571258545Q10.160368820724488,4.094192571258545,10.004908820724488,4.094592571258545Q9.849438820724487,4.094992571258545,9.781048820724488,4.234602571258545L8.358368820724486,7.138512571258545Q7.952018820724487,7.967932571258545,7.037968820724488,8.100472571258546L3.776888820724487,8.573352571258546Q3.6231988207244874,8.595632571258545,3.5750688207244874,8.743292571258545Q3.5269488207244875,8.890952571258545,3.637998820724487,8.999522571258545L6.0053388207244875,11.313932571258546Q6.665378820724487,11.959212571258545,6.5055288207244875,12.868292571258545L5.950328820724487,16.025792571258545Q5.923268820724488,16.179692571258546,6.049768820724488,16.271492571258545Q6.176268820724487,16.363192571258544,6.314168820724487,16.289692571258545L9.176528820724489,14.763792571258545Q9.999708820724488,14.324892571258545,10.822918820724487,14.763692571258545L13.689358820724488,16.291492571258544Q13.827158820724486,16.364892571258544,13.953558820724487,16.273292571258544Q14.080058820724487,16.181692571258544,14.053258820724487,16.027892571258544L13.501358820724487,12.866192571258544Q13.343058820724487,11.959202571258546,14.000858820724487,11.315002571258544L16.36645882072449,8.998282571258546Q16.477258820724487,8.889722571258545,16.42915882072449,8.742202571258545Q16.381158820724487,8.594682571258545,16.22755882072449,8.572292571258544L12.990358820724488,8.100252571258544Q12.082958820724487,7.967942571258545,11.675278820724488,7.146552571258545Z" fill-rule="evenodd" fill="#000000" fill-opacity="1" style="mix-blend-mode:passthrough"/></g></g></svg>