<svg xmlns="http://www.w3.org/2000/svg" xmlns:xlink="http://www.w3.org/1999/xlink" fill="none" version="1.1" width="16" height="16" viewBox="0 0 16 16"><defs><clipPath id="master_svg0_1795_026801"><rect x="0" y="0" width="16" height="16" rx="0"/></clipPath></defs><g style="opacity:0.30000001192092896;" clip-path="url(#master_svg0_1795_026801)"><g><path d="M0.3882149211511612,6.49646L3.1020539211511613,7.58085L3.1020539211511613,11.42216C3.1020539211511613,11.62316,3.1827339211511614,11.81576,3.326003921151161,11.95674Q3.795553921151161,12.4184,4.555223921151161,12.8601Q6.085913921151161,13.7499,7.6742839211511615,13.7499Q9.26331392115116,13.7499,10.794503921151161,12.8594Q11.554403921151161,12.4174,12.02260392115116,11.95674C12.165803921151161,11.81576,12.246503921151161,11.62316,12.246503921151161,11.42216L12.246503921151161,7.58054L13.931103921151161,6.9074L13.931103921151161,8.911069999999999C13.931103921151161,9.32528,14.266903921151162,9.661069999999999,14.681103921151161,9.661069999999999C15.095403921151162,9.661069999999999,15.431103921151161,9.32528,15.431103921151161,8.911069999999999L15.431103921151161,5.83667L15.431003921151161,5.8213799999999996C15.434103921151161,5.71357,15.413903921151162,5.60533,15.370603921151162,5.50431C15.292103921151162,5.32151,15.144303921151161,5.177350000000001,14.959603921151162,5.103540000000001L7.952193921151162,2.3035411C7.773533921151161,2.2321529,7.574273921151161,2.2321529,7.395613921151162,2.303541L0.3882149211511612,5.103540000000001C0.1974339211511612,5.1797699999999995,0.04627692115116119,5.33093,-0.029954978848838805,5.521710000000001C-0.1037618788488388,5.70642,-0.1011691788488388,5.91289,-0.022747178848838805,6.095689999999999C0.05567492115116118,6.27849,0.20350192115116117,6.42265,0.3882149211511612,6.49646ZM4.602053921151161,11.08625L4.602053921151161,8.180209999999999L7.395613921151162,9.29646C7.574273921151161,9.36785,7.773533921151161,9.36785,7.952193921151162,9.29646L10.746503921151161,8.17991L10.746503921151161,11.08632Q10.45790392115116,11.31993,10.040403921151162,11.56272Q8.858833921151161,12.24993,7.6742839211511615,12.24993Q6.490243921151161,12.24992,5.3091139211511615,11.56327Q4.891403921151161,11.32044,4.602053921151161,11.08625Z" fill-rule="evenodd" fill="#000000" fill-opacity="1" style="mix-blend-mode:passthrough"/></g></g></svg>