<svg xmlns="http://www.w3.org/2000/svg" xmlns:xlink="http://www.w3.org/1999/xlink" fill="none" version="1.1" width="20" height="20" viewBox="0 0 20 20"><defs><clipPath id="master_svg0_2063_70584"><rect x="0" y="0" width="20" height="20" rx="0"/></clipPath></defs><g clip-path="url(#master_svg0_2063_70584)"><g><path d="M4.646447,5.353553C4.5526784,5.259785,4.5,5.132608,4.5,5C4.5,4.723858,4.723858,4.5,5,4.5C5.132608,4.5,5.259785,4.5526784,5.353553,4.646447L10,9.29289L14.6464,4.646447C14.7402,4.5526784,14.8674,4.5,15,4.5C15.2761,4.5,15.5,4.723858,15.5,5C15.5,5.132608,15.4473,5.259785,15.3536,5.353553L10.35355,10.35355C10.158290000000001,10.54882,9.841709999999999,10.54882,9.64645,10.35355L4.646447,5.353553ZM4.646447,10.35355C4.5526784,10.259789999999999,4.5,10.13261,4.5,10C4.5,9.72386,4.723858,9.5,5,9.5C5.132608,9.5,5.259785,9.552679999999999,5.353553,9.64645L10,14.29289L14.6464,9.64645C14.7402,9.552679999999999,14.8674,9.5,15,9.5C15.2761,9.5,15.5,9.72386,15.5,10C15.5,10.13261,15.4473,10.259789999999999,15.3536,10.35355L10.35355,15.3536C10.158290000000001,15.5488,9.841709999999999,15.5488,9.64645,15.3536L4.646447,10.35355Z" fill-rule="evenodd" fill="#000000" fill-opacity="0.4000000059604645" style="mix-blend-mode:passthrough"/></g></g></svg>