<svg xmlns="http://www.w3.org/2000/svg" xmlns:xlink="http://www.w3.org/1999/xlink" fill="none" version="1.1" width="16" height="16" viewBox="0 0 16 16"><defs><clipPath id="master_svg0_1795_026771"><rect x="0" y="0" width="16" height="16" rx="0"/></clipPath></defs><g clip-path="url(#master_svg0_1795_026771)"><g><path d="M8.5,2C5.74261,2,3.5,4.24929,3.5,7.01395C3.5,8.040320000000001,3.807649,9.02826,4.383301,9.85941C4.411996,9.9092,4.441238,9.95723,4.475586,10.00397L8.125,14.8284C8.224129999999999,14.9389,8.357389999999999,15,8.5,15C8.64087,15,8.77454,14.9384,8.89062,14.8078L12.52344,10.00352C12.55909,9.95548,12.58992,9.90307,12.60645,9.872499999999999C13.18932,9.03437,13.5013,8.03634,13.5,7.01395C13.5,4.24929,11.25696,2,8.5,2ZM8.5,8.80682C7.51496,8.806339999999999,6.71602,8.005189999999999,6.71387,7.01569C6.7400199999999995,6.04378,7.53213,5.26956,8.5,5.26956C9.46787,5.26956,10.25949,6.04378,10.28564,7.01569C10.283249999999999,8.004850000000001,9.4847,8.80566,8.5,8.80638L8.5,8.80682Z" fill="#000000" fill-opacity="0.30000001192092896" style="mix-blend-mode:passthrough"/></g></g></svg>