<svg xmlns="http://www.w3.org/2000/svg" xmlns:xlink="http://www.w3.org/1999/xlink" fill="none" version="1.1" width="28" height="28" viewBox="0 0 28 28"><defs><clipPath id="master_svg0_2063_71093"><rect x="0" y="0" width="28" height="28" rx="0"/></clipPath></defs><g clip-path="url(#master_svg0_2063_71093)"><g><path d="M19.10510625,10.14453C18.83710625,10.10078,18.56910625,10.10078,18.30120625,10.10078C14.23510625,10.10078,11.06054625,13.14141,11.05781625,16.851950000000002C11.05781625,17.47815,11.14804625,18.057850000000002,11.32577625,18.64025C11.01132625,18.68395,10.74335625,18.68395,10.47538625,18.68395C9.40351625,18.68395,8.55312625,18.46245,7.48124625,18.23825L4.48710625,19.71215L5.33749625,17.16365C3.1937462500000002,15.68715,1.94140625,13.72109,1.94140625,11.39687C1.94140625,7.3746100000000006,5.78593625,4.15625,10.47812625,4.15625C14.68090625,4.15625,18.34760625,6.704689999999999,19.10510625,10.14453ZM6.47499625,8.71445C6.47499625,9.332419999999999,7.10663625,9.77539,7.78202625,9.77539C8.41367625,9.77539,8.86484625,9.33516,8.86210625,8.71445C8.86210625,8.09648,8.41367625,7.65352,7.78202625,7.65352C7.15038625,7.65352,6.47499625,8.05,6.47499625,8.71445ZM14.76840625,8.84844C14.76840625,8.22227,14.36640625,7.77656,13.69650625,7.77656C13.07300625,7.77656,12.40040625,8.178519999999999,12.40040625,8.84844C12.40040625,9.47187,13.02660625,9.92031,13.69650625,9.92031C14.32260625,9.92031,14.76840625,9.47461,14.76840625,8.84844ZM18.83980625,10.54932C22.68440625,10.54932,26.08050625,13.31924,26.08050625,16.761850000000003C26.08050625,18.68405,24.78440625,20.38215,23.08630625,21.67825L23.71250625,23.82475L21.38830625,22.52865C20.53790625,22.75005,19.69020625,22.97435,18.83980625,22.97435C14.77110625,22.97435,11.55273625,20.20435,11.55273625,16.761850000000003C11.55273625,13.36572,14.77110625,10.54932,18.83980625,10.54932ZM20.48050625,14.64265C20.48050625,15.08295,20.93160625,15.48215,21.33630625,15.48215C21.96800625,15.48215,22.41640625,15.08565,22.41640625,14.64265C22.41640625,14.24615,21.96800625,13.80322,21.33630625,13.80322C20.93160625,13.80322,20.48050625,14.24345,20.48050625,14.64265ZM15.61870625,14.83955C15.61870625,15.28795,16.067206249999998,15.68995,16.46910625,15.68995C17.139106249999998,15.68995,17.541006250000002,15.28795,17.541006250000002,14.83955C17.541006250000002,14.43485,17.09530625,13.98916,16.46910625,13.98916C16.064406249999998,13.98916,15.61870625,14.43755,15.61870625,14.83955Z" fill-rule="evenodd" fill="#07C160" fill-opacity="1" style="mix-blend-mode:passthrough"/></g></g></svg>