<svg xmlns="http://www.w3.org/2000/svg" xmlns:xlink="http://www.w3.org/1999/xlink" fill="none" version="1.1" width="24" height="24" viewBox="0 0 24 24"><defs><clipPath id="master_svg0_2063_71116"><rect x="0" y="0" width="24" height="24" rx="0"/></clipPath></defs><g clip-path="url(#master_svg0_2063_71116)"><g><path d="M6.5,1.25C6.085789999999999,1.25,5.75,1.585786,5.75,2L5.75,19C5.75,19.4142,6.085789999999999,19.75,6.5,19.75L20.5,19.75C20.9142,19.75,21.25,19.4142,21.25,19L21.25,8C21.25,7.80461,21.1753,7.62668,21.0529,7.49321L21.0514,7.49157L15.5546,1.495085L15.5529,1.493207C15.549,1.489042,15.5452,1.484925,15.5413,1.480857C15.5315,1.470647,15.5214,1.460743,15.5111,1.451151C15.3729,1.3223738,15.1904,1.25,15,1.25L6.5,1.25ZM15.75,3.9281L18.7951,7.25L15.75,7.25L15.75,3.9281ZM2.75,10C2.75,9.58579,3.085786,9.25,3.5,9.25C3.9142099999999997,9.25,4.25,9.58579,4.25,10L4.25,21.25L14,21.25C14.1989,21.25,14.3897,21.329,14.5303,21.4697C14.671,21.6103,14.75,21.8011,14.75,22C14.75,22.4142,14.4142,22.75,14,22.75L3.5,22.75C3.085786,22.75,2.75,22.4142,2.75,22L2.75,10Z" fill-rule="evenodd" fill="#F2505D" fill-opacity="1" style="mix-blend-mode:passthrough"/></g><g><path d="M9.5,9.25L11.5,9.25C11.91421,9.25,12.25,9.585786,12.25,10C12.25,10.41421,11.91421,10.75,11.5,10.75L9.5,10.75C9.085786,10.75,8.75,10.41421,8.75,10C8.75,9.585786,9.085786,9.25,9.5,9.25Z" fill-rule="evenodd" fill="#FFFFFF" fill-opacity="1" style="mix-blend-mode:passthrough"/></g><g><path d="M9.5,13.25L15.5,13.25C15.91421,13.25,16.25,13.585786,16.25,14C16.25,14.41421,15.91421,14.75,15.5,14.75L9.5,14.75C9.085786,14.75,8.75,14.41421,8.75,14C8.75,13.585786,9.085786,13.25,9.5,13.25Z" fill-rule="evenodd" fill="#FFFFFF" fill-opacity="1" style="mix-blend-mode:passthrough"/></g></g></svg>