<svg xmlns="http://www.w3.org/2000/svg" xmlns:xlink="http://www.w3.org/1999/xlink" fill="none" version="1.1" width="20" height="20" viewBox="0 0 20 20"><defs><clipPath id="master_svg0_2063_71486"><rect x="0" y="0" width="20" height="20" rx="0"/></clipPath></defs><g clip-path="url(#master_svg0_2063_71486)"><g><path d="M10.00342,1.875C9.65824,1.875,9.37842,2.1548220000000002,9.37842,2.5L9.37842,12.6612L5.44207,8.72481C5.324731,8.60747,5.16576,8.54163,5,8.54163C4.654822,8.54163,4.375,8.821449999999999,4.375,9.16663C4.375,9.33239,4.440848,9.49136,4.558058,9.60857L9.558060000000001,14.6086C9.675270000000001,14.7258,9.834240000000001,14.7916,10,14.7916C10.165759999999999,14.7916,10.324729999999999,14.7258,10.441939999999999,14.6086L15.4419,9.60857C15.5592,9.49136,15.625,9.33239,15.625,9.16663C15.625,8.821449999999999,15.3452,8.54163,15,8.54163C14.8342,8.54163,14.6753,8.60747,14.5581,8.72468L10.62842,12.6543L10.62842,2.5C10.62842,2.1548220000000002,10.348600000000001,1.875,10.00342,1.875ZM15,16.875L5,16.875C4.654822,16.875,4.375,17.1548,4.375,17.5C4.375,17.8452,4.654822,18.125,5,18.125L15,18.125C15.3452,18.125,15.625,17.8452,15.625,17.5C15.625,17.1548,15.3452,16.875,15,16.875Z" fill-rule="evenodd" fill="#FFFFFF" fill-opacity="1" style="mix-blend-mode:passthrough"/></g></g></svg>