<svg xmlns="http://www.w3.org/2000/svg" xmlns:xlink="http://www.w3.org/1999/xlink" fill="none" version="1.1" width="24" height="24" viewBox="0 0 24 24"><defs><clipPath id="master_svg0_2063_71106"><rect x="0" y="0" width="24" height="24" rx="0"/></clipPath></defs><g clip-path="url(#master_svg0_2063_71106)"><g><path d="M1.75,5L1.75,19.0001Q1.7500487742,20.7431,3.48627,20.75L3.5,20.75L20.5,20.75Q21.2249,20.75,21.7374,20.2375Q21.8351,20.1398,21.9141,20.0345Q22.2241,19.6214,22.248,19.0898Q22.25,19.045299999999997,22.25,19L22.25,5Q22.25,4.27513,21.7374,3.762566Q21.2249,3.25,20.5,3.25L3.5,3.25Q1.75,3.25,1.75,5ZM3.25,5L3.25,15.1894L6.96967,11.46969C7.2399,11.19946,7.6701,11.17564,7.96852,11.41437L9.90239,12.96146L12.4306,10.01193C12.6896,9.709769999999999,13.1395,9.662510000000001,13.4556,9.904250000000001L20.75,15.4823L20.75,5Q20.75,4.75,20.5,4.75L3.5,4.75Q3.3964499999999997,4.75,3.32322,4.82322Q3.25,4.89645,3.25,5ZM6.18935,7.18935Q5.75,7.62869,5.75,8.25Q5.75,8.871310000000001,6.18935,9.31066Q6.62869,9.75,7.25,9.75Q7.87131,9.75,8.31066,9.31066Q8.75,8.871310000000001,8.75,8.25Q8.75,7.62869,8.31066,7.18935Q7.87131,6.75,7.25,6.75Q6.62869,6.75,6.18935,7.18935Z" fill-rule="evenodd" fill="#0066FF" fill-opacity="1" style="mix-blend-mode:passthrough"/></g></g></svg>