<svg xmlns="http://www.w3.org/2000/svg" xmlns:xlink="http://www.w3.org/1999/xlink" fill="none" version="1.1" width="16" height="16" viewBox="0 0 16 16"><defs><clipPath id="master_svg0_2252_092650"><rect x="0" y="0" width="16" height="16" rx="0"/></clipPath></defs><g clip-path="url(#master_svg0_2252_092650)"><g><path d="M0.06073217305225372,13.25012019329071C-0.013094066947746272,14.17872019329071,0.7294057330522538,14.96872019329071,1.6607347330522537,14.952520193290711L1.7471347330522538,14.94932019329071L5.267134733052254,14.17492019329071C5.575554733052254,14.10522019329071,5.857584733052254,13.94862019329071,6.079934733052253,13.72372019329071L13.708764733052254,6.104560193290711C14.435664733052255,5.44312019329071,14.494264733052253,4.31957019329071,13.839964733052254,3.5861601932907106L11.427164733052253,1.1733631932907105C10.695164733052254,0.5164781932907104,9.570284733052254,0.5736541932907104,8.908734733052254,1.3013631932907104L1.2799347330522537,8.92056019329071C1.0567447330522537,9.144480193290711,0.9023867330522537,9.427650193290711,0.8351317330522537,9.73656019329071L0.06073217305225372,13.147720193290711L0.06073217305225372,13.25012019329071ZM1.4271347330522537,13.57652019329071C1.3703547330522536,13.515920193290711,1.3393647330522538,13.43562019329071,1.3407347330522537,13.35252019329071L2.083134733052254,10.01176019329071C2.1023547330522536,9.94137019329071,2.1398947330522535,9.87732019329071,2.191934733052254,9.826160193290711L7.610274733052254,4.407820193290711L10.601164733052254,7.39868019329071L5.183934733052253,12.81812019329071C5.132774733052254,12.870220193290711,5.068724733052254,12.90772019329071,4.998334733052253,12.92692019329071L1.6479347330522538,13.65972019329071C1.5660747330522538,13.66322019329071,1.4863247330522538,13.633220193290711,1.4271347330522537,13.57652019329071ZM11.506064733052254,6.49337019329071L12.799964733052255,5.19896019329071C13.020764733052253,4.974960193290711,13.081564733052254,4.64536019329071,12.927964733052253,4.491760193290711L10.521564733052253,2.0789601932907105C10.367964733052254,1.9221601932907104,10.035134733052253,1.9829601932907104,9.811134733052254,2.20696019329071L8.515394733052254,3.5027001932907105L11.506064733052254,6.49337019329071ZM8.751954733052253,15.038720193290711L15.039964733052253,15.038720193290711C15.393364733052254,15.038720193290711,15.679964733052254,14.75222019329071,15.679964733052254,14.39872019329071C15.679964733052254,14.04532019329071,15.393364733052254,13.75872019329071,15.039964733052253,13.75872019329071L8.751954733052253,13.75872019329071C8.398484733052253,13.75872019329071,8.111954733052254,14.04532019329071,8.111954733052254,14.39872019329071C8.111954733052254,14.75222019329071,8.398484733052253,15.038720193290711,8.751954733052253,15.038720193290711Z" fill-rule="evenodd" fill="#000000" fill-opacity="0.30000001192092896" style="mix-blend-mode:passthrough"/></g></g></svg>