<svg xmlns="http://www.w3.org/2000/svg" xmlns:xlink="http://www.w3.org/1999/xlink" fill="none" version="1.1" width="33" height="33" viewBox="0 0 33 33"><g><g><path d="M33,16.5Q33,16.9051,32.9801,17.3096Q32.9603,17.7142,32.9205,18.1173Q32.8808,18.5204,32.8214,18.9211Q32.762,19.3217,32.683,19.719Q32.6039,20.1163,32.5055,20.5092Q32.4071,20.9021,32.2895,21.2897Q32.1719,21.6773,32.0355,22.0587Q31.899,22.4401,31.744,22.8143Q31.589,23.1885,31.4158,23.5547Q31.2426,23.9208,31.0517,24.278Q30.8608,24.6353,30.6525,24.9827Q30.4443,25.3301,30.2192,25.6669Q29.9942,26.0037,29.7529,26.329Q29.5116,26.6544,29.2547,26.9675Q28.9977,27.2806,28.7257,27.5807Q28.4537,27.8808,28.1673,28.1673Q27.8808,28.4537,27.5807,28.7257Q27.2806,28.9977,26.9675,29.2547Q26.6544,29.5116,26.329,29.7529Q26.0037,29.9942,25.6669,30.2192Q25.3301,30.4443,24.9827,30.6525Q24.6353,30.8608,24.278,31.0517Q23.9208,31.2426,23.5547,31.4158Q23.1885,31.589,22.8143,31.744Q22.4401,31.899,22.0587,32.0355Q21.6773,32.1719,21.2897,32.2895Q20.9021,32.4071,20.5092,32.5055Q20.1163,32.6039,19.719,32.683Q19.3217,32.762,18.9211,32.8214Q18.5204,32.8808,18.1173,32.9205Q17.7142,32.9603,17.3096,32.9801Q16.9051,33,16.5,33Q16.0949,33,15.6904,32.9801Q15.2858,32.9603,14.8827,32.9205Q14.4796,32.8808,14.0789,32.8214Q13.6783,32.762,13.281,32.683Q12.8837,32.6039,12.4908,32.5055Q12.0979,32.4071,11.7103,32.2895Q11.3227,32.1719,10.9413,32.0355Q10.5599,31.899,10.1857,31.744Q9.8115,31.589,9.44534,31.4158Q9.07918,31.2426,8.72195,31.0517Q8.36473,30.8608,8.0173,30.6525Q7.66988,30.4443,7.33309,30.2192Q6.9963,29.9942,6.67096,29.7529Q6.34562,29.5116,6.03251,29.2547Q5.7194,28.9977,5.41928,28.7257Q5.11915,28.4537,4.83274,28.1673Q4.54632,27.8808,4.27431,27.5807Q4.00229,27.2806,3.74533,26.9675Q3.48836,26.6544,3.24708,26.329Q3.00579,26.0037,2.78075,25.6669Q2.55572,25.3301,2.34748,24.9827Q2.13924,24.6353,1.9483,24.278Q1.75736,23.9208,1.58418,23.5547Q1.41099,23.1885,1.25599,22.8143Q1.10098,22.4401,0.964523,22.0587Q0.828065,21.6773,0.710484,21.2897Q0.592904,20.9021,0.494484,20.5092Q0.396065,20.1163,0.317043,19.719Q0.238021,19.3217,0.178588,18.9211Q0.119154,18.5204,0.079452,18.1173Q0.0397499,17.7142,0.019875,17.3096Q0,16.9051,0,16.5Q0,16.0949,0.019875,15.6904Q0.0397499,15.2858,0.079452,14.8827Q0.119154,14.4796,0.178588,14.0789Q0.238021,13.6783,0.317043,13.281Q0.396065,12.8837,0.494484,12.4908Q0.592904,12.0979,0.710484,11.7103Q0.828065,11.3227,0.964523,10.9413Q1.10098,10.5599,1.25599,10.1857Q1.41099,9.8115,1.58418,9.44534Q1.75736,9.07918,1.9483,8.72195Q2.13924,8.36473,2.34748,8.0173Q2.55572,7.66988,2.78075,7.33309Q3.00579,6.9963,3.24708,6.67096Q3.48836,6.34562,3.74533,6.03251Q4.00229,5.7194,4.27431,5.41928Q4.54632,5.11915,4.83274,4.83274Q5.11915,4.54632,5.41928,4.27431Q5.7194,4.00229,6.03251,3.74533Q6.34562,3.48836,6.67096,3.24708Q6.9963,3.00579,7.33309,2.78075Q7.66988,2.55572,8.0173,2.34748Q8.36473,2.13924,8.72195,1.9483Q9.07918,1.75736,9.44534,1.58418Q9.8115,1.41099,10.1857,1.25599Q10.5599,1.10098,10.9413,0.964523Q11.3227,0.828065,11.7103,0.710484Q12.0979,0.592904,12.4908,0.494484Q12.8837,0.396065,13.281,0.317043Q13.6783,0.238021,14.0789,0.178588Q14.4796,0.119154,14.8827,0.079452Q15.2858,0.0397499,15.6904,0.019875Q16.0949,0,16.5,0Q16.9051,0,17.3096,0.019875Q17.7142,0.0397499,18.1173,0.079452Q18.5204,0.119154,18.9211,0.178588Q19.3217,0.238021,19.719,0.317043Q20.1163,0.396065,20.5092,0.494484Q20.9021,0.592904,21.2897,0.710484Q21.6773,0.828065,22.0587,0.964523Q22.4401,1.10098,22.8143,1.25599Q23.1885,1.41099,23.5547,1.58418Q23.9208,1.75736,24.278,1.9483Q24.6353,2.13924,24.9827,2.34748Q25.3301,2.55572,25.6669,2.78075Q26.0037,3.00579,26.329,3.24708Q26.6544,3.48836,26.9675,3.74533Q27.2806,4.00229,27.5807,4.27431Q27.8808,4.54632,28.1673,4.83274Q28.4537,5.11915,28.7257,5.41928Q28.9977,5.7194,29.2547,6.03251Q29.5116,6.34562,29.7529,6.67096Q29.9942,6.9963,30.2192,7.33309Q30.4443,7.66988,30.6525,8.0173Q30.8608,8.36473,31.0517,8.72195Q31.2426,9.07918,31.4158,9.44534Q31.589,9.8115,31.744,10.1857Q31.899,10.5599,32.0355,10.9413Q32.1719,11.3227,32.2895,11.7103Q32.4071,12.0979,32.5055,12.4908Q32.6039,12.8837,32.683,13.281Q32.762,13.6783,32.8214,14.0789Q32.8808,14.4796,32.9205,14.8827Q32.9603,15.2858,32.9801,15.6904Q33,16.0949,33,16.5Z" fill="#FFFFFF" fill-opacity="0.5"/></g><g><path d="M6.26708984375,6.2666015625L13.86278984375,6.2666015625L13.86298984375,9.3916015625L6.26708984375,9.3911915625L6.26708984375,6.2666015625ZM15.26500984375,6.2666015625L27.41808984375,6.2666015625L27.41808984375,9.3911915625L15.26500984375,9.3911915625L15.26500984375,6.2666015625ZM13.86298984375,9.3916015625L10.82470984375,9.3916015625L10.82470984375,10.895511562500001L6.26708984375,10.895511562500001L6.26708984375,22.1213015625L9.42221984375,22.1213015625L9.42221984375,14.020101562499999L10.82470984375,14.020101562499999L10.82470984375,26.6347015625L13.86298984375,26.6347015625L13.86298984375,9.3916015625ZM19.70568984375,9.3916015625L22.97768984375,9.3916015625L22.97768984375,10.895511562500001L27.41808984375,10.895511562500001L27.41808984375,13.9043715625L27.41798984375,24.7825015625L24.14598984375,24.7825015625L24.14598984375,13.9043715625L22.97768984375,13.9043715625L22.97768984375,26.6347015625L19.70568984375,26.6347015625L19.70568984375,13.9043715625L18.420189843750002,13.9043715625L18.420189843750002,24.7825015625L15.26500984375,24.7825015625L15.26500984375,10.895511562500001L19.70568984375,10.895511562500001L19.70568984375,9.3916015625ZM9.42221984375,26.5487015625C9.42221984375,24.8062015625,8.00961984375,23.3936015625,6.26708984375,23.3936015625L6.26708984375,26.6339015625L9.42221984375,26.6339015625L9.42221984375,26.5487015625Z" fill-rule="evenodd" fill="#1DCA6F" fill-opacity="1"/></g></g></svg>