<svg xmlns="http://www.w3.org/2000/svg" xmlns:xlink="http://www.w3.org/1999/xlink" fill="none" version="1.1" width="24" height="24" viewBox="0 0 24 24"><defs><clipPath id="master_svg0_2252_138831"><rect x="0" y="0" width="24" height="24" rx="0"/></clipPath></defs><g style="opacity:0.8999999761581421;" clip-path="url(#master_svg0_2252_138831)"><g><path d="M21.25,3.75L21.25,8.5C21.25,8.91421,21.5858,9.25,22,9.25C22.4142,9.25,22.75,8.91421,22.75,8.5L22.75,3C22.75,2.585786,22.4142,2.25,22,2.25L2,2.25C1.585786,2.25,1.25,2.585786,1.25,3L1.25,18C1.25,18.4142,1.585786,18.75,2,18.75L4.75,18.75L4.75,20.5C4.75,20.9142,5.085789999999999,21.25,5.5,21.25C5.61643,21.25,5.73127,21.2229,5.83541,21.1708L10.67705,18.75L12.75,18.75C13.1642,18.75,13.5,18.4142,13.5,18C13.5,17.5858,13.1642,17.25,12.75,17.25L10.5,17.25C10.38357,17.25,10.26873,17.2771,10.16459,17.3292L6.25,19.2865L6.25,18C6.25,17.5858,5.91421,17.25,5.5,17.25L2.75,17.25L2.75,3.75L21.25,3.75ZM9,6.25L6,6.25C5.58579,6.25,5.25,6.58579,5.25,7C5.25,7.41421,5.58579,7.75,6,7.75L9,7.75C9.41421,7.75,9.75,7.41421,9.75,7C9.75,6.58579,9.41421,6.25,9,6.25ZM12.75,10C12.75,9.58579,12.4142,9.25,12,9.25L6,9.25C5.58579,9.25,5.25,9.58579,5.25,10C5.25,10.41421,5.58579,10.75,6,10.75L12,10.75C12.4142,10.75,12.75,10.41421,12.75,10ZM22.5805,12.4749C22.6901,12.3409,22.75,12.17313,22.75,12C22.75,11.58579,22.4142,11.25,22,11.25C21.7751,11.25,21.562,11.35097,21.4195,11.52507L17.3988,16.4394L14.9801,14.4238C14.8454,14.3115,14.6755,14.25,14.5,14.25C14.0858,14.25,13.75,14.5858,13.75,15C13.75,15.2226,13.8489,15.4337,14.0199,15.5762L17.0199,18.0762L17.025100000000002,18.0805C17.3457,18.3428,17.8182,18.2955,18.0805,17.974899999999998L22.5805,12.4749Z" fill-rule="evenodd" fill="#000000" fill-opacity="1" style="mix-blend-mode:passthrough"/></g></g></svg>