<svg xmlns="http://www.w3.org/2000/svg" xmlns:xlink="http://www.w3.org/1999/xlink" fill="none" version="1.1" width="24" height="24" viewBox="0 0 24 24"><defs><clipPath id="master_svg0_2252_138821"><rect x="0" y="0" width="24" height="24" rx="0"/></clipPath></defs><g style="opacity:0.8999999761581421;" clip-path="url(#master_svg0_2252_138821)"><g><path d="M16.25,5.5C16.25,7.84721,14.3472,9.75,12,9.75C9.65279,9.75,7.75,7.84721,7.75,5.5C7.75,3.15279,9.65279,1.25,12,1.25C14.3472,1.25,16.25,3.15279,16.25,5.5ZM14.75,5.5C14.75,3.98122,13.5188,2.75,12,2.75C10.48122,2.75,9.25,3.98122,9.25,5.5C9.25,7.01878,10.48122,8.25,12,8.25C13.5188,8.25,14.75,7.01878,14.75,5.5ZM5.134320000000001,15.4037Q7.55723,13.25,11,13.25C11.4142,13.25,11.75,12.9142,11.75,12.5C11.75,12.0858,11.4142,11.75,11,11.75Q6.98693,11.75,4.13777,14.2826Q1.250493526,16.849,1.25,20.4988L1.25,20.5C1.25,20.6989,1.3290172,20.8897,1.4696690000000001,21.0303C1.610321,21.171,1.8010869999999999,21.25,1.9999989999999999,21.25C2.4142099999999997,21.25,2.75,20.9142,2.75,20.5Q2.75,17.5231,5.134320000000001,15.4037ZM15.409,12.409Q14.75,13.068,14.75,14L14.75,14.75L13.5,14.75C13.0858,14.75,12.75,15.0858,12.75,15.5L12.75,20.5C12.75,20.9142,13.0858,21.25,13.5,21.25L20.5,21.25C20.9142,21.25,21.25,20.9142,21.25,20.5L21.25,15.5C21.25,15.0858,20.9142,14.75,20.5,14.75L19.25,14.75L19.25,14Q19.25,13.068,18.591,12.409Q17.932,11.75,17,11.75Q16.067999999999998,11.75,15.409,12.409ZM17.75,14.75L17.75,14Q17.75,13.6893,17.5303,13.4697Q17.3107,13.25,17,13.25Q16.6893,13.25,16.4697,13.4697Q16.25,13.6893,16.25,14L16.25,14.75L17.75,14.75ZM15.5,16.25L19.75,16.25L19.75,19.75L14.25,19.75L14.25,16.25L15.5,16.25Z" fill-rule="evenodd" fill="#000000" fill-opacity="1" style="mix-blend-mode:passthrough"/></g></g></svg>