<svg xmlns="http://www.w3.org/2000/svg" xmlns:xlink="http://www.w3.org/1999/xlink" fill="none" version="1.1" width="24" height="24" viewBox="0 0 24 24"><defs><clipPath id="master_svg0_2252_138807"><rect x="0" y="0" width="24" height="24" rx="0"/></clipPath></defs><g clip-path="url(#master_svg0_2252_138807)"><g><path d="M9.85629,21.813828125Q10.35625,20.249928125,12,20.249928125Q13.6437,20.249928125,14.1437,21.813828125C14.2681,22.202828125,14.6807,22.420828125,15.0721,22.304328125Q17.7782,21.498628125,19.7465,19.453428125C20.0128,19.176628125,20.027,18.743328125,19.7793,18.449728125Q19.25,17.822428125,19.25,16.999928125Q19.25,16.067928125,19.909,15.408928125Q20.568,14.749928125,21.5,14.749928125Q21.6122,14.749928125,21.7237,14.760828125C22.1059,14.798428125,22.4548,14.541028125,22.5318,14.164728125Q22.75,13.097828125,22.75,11.999928125Q22.75,10.342398125,22.2576,8.774848125C22.1589,8.460388125,21.8664,8.247268125,21.5368,8.249618125L21.5,8.249898125Q20.568,8.249898125,19.909,7.590888125Q19.25,6.931878125,19.25,5.999898125Q19.25,5.473868125,19.4804,5.0065381250000005C19.6269,4.709358125,19.5611,4.351268125,19.3184,4.125648125Q17.3938,2.336123125,14.874,1.638599425C14.5307,1.543544325,14.1678,1.703200725,14.0059,2.020584125Q13.3787,3.249908125,12,3.249908125Q10.62129,3.249908125,9.99413,2.020584125C9.83221,1.703200925,9.46935,1.543544325,9.12596,1.638599425Q6.60616,2.336124125,4.68159,4.125648125C4.43895,4.351268125,4.3731,4.709368125,4.51961,5.0065381250000005Q4.75,5.473868125,4.75,5.999898125Q4.75,6.931878125,4.09099,7.590888125Q3.43198,8.249898125,2.50533,8.249918125L2.4632300000000003,8.249618125C2.133635,8.247268125,1.841138,8.460388125,1.742364,8.774838124999999Q1.25,10.342328125,1.25,11.999928125Q1.25,13.097928125,1.468207,14.164728125C1.54518,14.541028125,1.89405,14.798428125,2.2763299999999997,14.760828125Q2.3878500000000003,14.749928125,2.5,14.749928125Q3.43198,14.749928125,4.09099,15.408928125Q4.75,16.067928125,4.75,16.999928125Q4.75,17.822428125,4.22072,18.449728125C3.97299,18.743328125,3.98716,19.176628125,4.25353,19.453428125Q6.2218,21.498628125,8.92789,22.304328125C9.31927,22.420828125,9.73194,22.202828125,9.85629,21.813828125ZM15.2878,20.650028125Q14.3383,18.749928125,12,18.749928125Q9.66171,18.749928125,8.71218,20.650028125Q7.07232,20.032028125,5.77235,18.840928125Q6.25,18.008128125,6.25,16.999928125Q6.25,15.446628125,5.15165,14.348228125Q4.17381,13.370428125,2.83538,13.263128125Q2.75,12.637928125,2.75,11.999928125Q2.75,10.830898125,3.03395,9.715218125Q4.24843,9.554768124999999,5.15165,8.651548125Q6.25,7.553198125,6.25,5.999898125Q6.25,5.423718125000001,6.08332,4.888548125Q7.38695,3.797828125,8.98591,3.251098125Q10.03448,4.749908125,12,4.749908125Q13.9655,4.749908125,15.0141,3.251098125Q16.613,3.797828125,17.9167,4.888548125Q17.75,5.423718125000001,17.75,5.999898125Q17.75,7.553198125,18.8484,8.651548125Q19.753,9.556158125,20.9662,9.715718125Q21.25,10.831198125,21.25,11.999928125Q21.25,12.637828125,21.1646,13.263128125Q19.8262,13.370428125,18.8484,14.348228125Q17.75,15.446628125,17.75,16.999928125Q17.75,18.008128125,18.2276,18.840928125Q16.9277,20.032028125,15.2878,20.650028125ZM8.99479,8.994798124999999Q7.75,10.239598125,7.75,12.000028125Q7.75,13.760428125,8.9948,15.005228125Q10.23959,16.250028125,12,16.250028125Q13.7604,16.250028125,15.0052,15.005228125Q16.25,13.760428125,16.25,12.000028125Q16.25,10.239598125,15.0052,8.994798124999999Q13.7604,7.749998125,12,7.749998125Q10.23959,7.749998125,8.99479,8.994798124999999ZM10.05546,13.944528125Q9.25,13.139128125,9.25,12.000028125Q9.25,10.860918125,10.05546,10.055458125Q10.86091,9.249998125000001,12,9.249998125000001Q13.1391,9.249998125000001,13.9445,10.055458125Q14.75,10.860918125,14.75,12.000028125Q14.75,13.139128125,13.9445,13.944528125Q13.1391,14.750028125,12,14.750028125Q10.86091,14.750028125,10.05546,13.944528125Z" fill-rule="evenodd" fill="#000000" fill-opacity="0.8999999761581421" style="mix-blend-mode:passthrough"/></g></g></svg>