<svg xmlns="http://www.w3.org/2000/svg" xmlns:xlink="http://www.w3.org/1999/xlink" fill="none" version="1.1" width="32" height="32" viewBox="0 0 32 32"><defs><clipPath id="master_svg0_1994_72541"><rect x="0" y="0" width="32" height="32" rx="8"/></clipPath><clipPath id="master_svg1_1994_72543"><rect x="6" y="6" width="20" height="20" rx="0"/></clipPath></defs><g clip-path="url(#master_svg0_1994_72541)"><rect x="0" y="0" width="32" height="32" rx="8" fill="#07C160" fill-opacity="1"/><g clip-path="url(#master_svg1_1994_72543)"><g><path d="M6.91650390625,13.499344375L6.91650390625,21.832884375Q6.91650390625,22.488684375,7.38025390625,22.952484374999997Q7.84399890625,23.416184375,8.49983390625,23.416184375L23.49980390625,23.416184375Q24.15570390625,23.416184375,24.61940390625,22.952484374999997Q25.08320390625,22.488684375,25.08320390625,21.832884375L25.08320390625,17.249344375L25.08320390625,16.416194375L25.08320390625,13.499344375Q25.08320390625,12.843504375,24.61940390625,12.379754375000001Q24.15570390625,11.916014375,23.49980390625,11.916014375L21.33350390625,11.916014375L21.33350390625,11.833984375Q21.33350390625,10.487794375,20.38160390625,9.535888375Q19.429703906249998,8.583984375,18.08350390625,8.583984375L14.33349390625,8.583984375Q12.98730390625,8.583984375,12.03540390625,9.535888375Q11.08349390625,10.487794375,11.08349390625,11.833984375L11.08349390625,11.916014375L8.49983390625,11.916014375Q7.84399890625,11.916014375,7.38025390625,12.379754375000001Q6.91650390625,12.843504375,6.91650390625,13.499344375ZM19.83350390625,11.916014375L19.83350390625,11.833984375Q19.83350390625,11.109114375,19.320903906250003,10.596544375Q18.80840390625,10.083984375,18.08350390625,10.083984375L14.33349390625,10.083984375Q13.60862390625,10.083984375,13.09606390625,10.596544375Q12.58349390625,11.109114375,12.58349390625,11.833984375L12.58349390625,11.916014375L19.83350390625,11.916014375ZM11.78893390625,13.416014375L8.49983390625,13.416014375Q8.41650390625,13.416014375,8.41650390625,13.499344375L8.41650390625,15.830614375L15.97961390625,17.721374375Q15.99983390625,17.726434375,16.019893906249997,17.721414375000002L23.58320390625,15.830614375L23.58320390625,13.499344375Q23.58320390625,13.416014375,23.49980390625,13.416014375L20.62810390625,13.416014375C20.61330390625,13.416884375,20.598503906250002,13.417314375,20.58350390625,13.417314375L11.83349390625,13.417314375C11.81853390625,13.417314375,11.803673906250001,13.416884375,11.78893390625,13.416014375ZM16.000163906250002,16.624344375C16.57546390625,16.624344375,17.04180390625,16.157974375000002,17.04180390625,15.582684375C17.04180390625,15.007384375,16.57546390625,14.541014375,16.000163906250002,14.541014375C15.42486390625,14.541014375,14.95849390625,15.007384375,14.95849390625,15.582684375C14.95849390625,16.157974375000002,15.42486390625,16.624344375,16.000163906250002,16.624344375ZM8.41650390625,21.832884375Q8.41650390625,21.916184375,8.49983390625,21.916184375L23.49980390625,21.916184375Q23.58320390625,21.916184375,23.58320390625,21.832884375L23.58320390625,17.376774375L16.38402390625,19.176584374999997Q15.99983390625,19.272684375,15.61581390625,19.176584374999997L8.41650390625,17.376774375L8.41650390625,21.832884375Z" fill-rule="evenodd" fill="#FFFFFF" fill-opacity="1" style="mix-blend-mode:passthrough"/></g></g></g></svg>