<svg xmlns="http://www.w3.org/2000/svg" xmlns:xlink="http://www.w3.org/1999/xlink" fill="none" version="1.1" width="32" height="32" viewBox="0 0 32 32"><defs><clipPath id="master_svg0_1994_72551"><rect x="0" y="0" width="32" height="32" rx="8"/></clipPath><clipPath id="master_svg1_1994_72553"><rect x="6" y="6" width="20" height="20" rx="0"/></clipPath></defs><g clip-path="url(#master_svg0_1994_72551)"><rect x="0" y="0" width="32" height="32" rx="8" fill="#D2D5E2" fill-opacity="1"/><g clip-path="url(#master_svg1_1994_72553)"><g><path d="M6.91650390625,13.499344375L6.91650390625,21.832884375Q6.91650390625,22.488684375,7.38025390625,22.952484374999997Q7.84399890625,23.416184375,8.49983390625,23.416184375L23.49980390625,23.416184375Q24.15570390625,23.416184375,24.61940390625,22.952484374999997Q25.08320390625,22.488684375,25.08320390625,21.832884375L25.08320390625,17.249344375L25.08320390625,16.416194375L25.08320390625,13.499344375Q25.08320390625,12.843504375,24.61940390625,12.379754375000001Q24.15570390625,11.916014375,23.49980390625,11.916014375L21.33350390625,11.916014375L21.33350390625,11.833984375Q21.33350390625,10.487794375,20.38160390625,9.535888375Q19.429703906249998,8.583984375,18.08350390625,8.583984375L14.33349390625,8.583984375Q12.98730390625,8.583984375,12.03540390625,9.535888375Q11.08349390625,10.487794375,11.08349390625,11.833984375L11.08349390625,11.916014375L8.49983390625,11.916014375Q7.84399890625,11.916014375,7.38025390625,12.379754375000001Q6.91650390625,12.843504375,6.91650390625,13.499344375ZM19.83350390625,11.916014375L19.83350390625,11.833984375Q19.83350390625,11.109114375,19.320903906250003,10.596544375Q18.80840390625,10.083984375,18.08350390625,10.083984375L14.33349390625,10.083984375Q13.60862390625,10.083984375,13.09606390625,10.596544375Q12.58349390625,11.109114375,12.58349390625,11.833984375L12.58349390625,11.916014375L19.83350390625,11.916014375ZM11.78893390625,13.416014375L8.49983390625,13.416014375Q8.41650390625,13.416014375,8.41650390625,13.499344375L8.41650390625,15.830614375L15.97961390625,17.721374375Q15.99983390625,17.726434375,16.019893906249997,17.721414375000002L23.58320390625,15.830614375L23.58320390625,13.499344375Q23.58320390625,13.416014375,23.49980390625,13.416014375L20.62810390625,13.416014375C20.61330390625,13.416884375,20.598503906250002,13.417314375,20.58350390625,13.417314375L11.83349390625,13.417314375C11.81853390625,13.417314375,11.803673906250001,13.416884375,11.78893390625,13.416014375ZM16.000163906250002,16.624344375Q16.05133390625,16.624344375,16.102263906250002,16.619334375Q16.15319390625,16.614314375,16.20338390625,16.604334375Q16.25357390625,16.594354375,16.30254390625,16.579494375Q16.35151390625,16.564644375,16.39879390625,16.545054375Q16.44607390625,16.525474375,16.49120390625,16.501354375Q16.53633390625,16.477224375,16.57888390625,16.448794375Q16.621433906249997,16.420364375,16.66098390625,16.387904374999998Q16.700543906249997,16.355434375,16.736733906250002,16.319254375Q16.77291390625,16.283064375000002,16.80538390625,16.243504375Q16.83784390625,16.203954375000002,16.86627390625,16.161404375Q16.89470390625,16.118854374999998,16.918803906249998,16.073724375Q16.942903906250002,16.028584375,16.96250390625,15.981314375Q16.98210390625,15.934034375,16.99700390625,15.885064374999999Q17.01180390625,15.836094375,17.02180390625,15.785904375000001Q17.031803906249998,15.735714375,17.03680390625,15.684784375Q17.04180390625,15.633854375,17.04180390625,15.582684375Q17.04180390625,15.531504375,17.03680390625,15.480584375Q17.031803906249998,15.429654375,17.02180390625,15.379464375000001Q17.01180390625,15.329274375,16.99700390625,15.280304375Q16.98210390625,15.231334375,16.96250390625,15.184054374999999Q16.942903906250002,15.136774375,16.918803906249998,15.091644375Q16.89470390625,15.046514375000001,16.86627390625,15.003964374999999Q16.83784390625,14.961414375,16.80538390625,14.921854374999999Q16.77291390625,14.882294375,16.736733906250002,14.846114374999999Q16.700543906249997,14.809924375,16.66098390625,14.777464375000001Q16.621433906249997,14.744994375000001,16.57888390625,14.716564375Q16.53633390625,14.688134375,16.49120390625,14.664014375Q16.44607390625,14.639894375,16.39879390625,14.620304375Q16.35151390625,14.600724375,16.30254390625,14.585864375Q16.25357390625,14.571014375,16.20338390625,14.561034375Q16.15319390625,14.551044375,16.102263906250002,14.546034375Q16.05133390625,14.541014375,16.000163906250002,14.541014375Q15.94899390625,14.541014375,15.89806390625,14.546034375Q15.84713390625,14.551044375,15.79694390625,14.561034375Q15.74675390625,14.571014375,15.69778390625,14.585864375Q15.64881390625,14.600724375,15.60153390625,14.620304375Q15.55425390625,14.639894375,15.50912390625,14.664014375Q15.46399390625,14.688134375,15.42144390625,14.716564375Q15.37889390625,14.744994375000001,15.33933390625,14.777464375000001Q15.29978390625,14.809924375,15.26359390625,14.846114374999999Q15.22740390625,14.882294375,15.19494390625,14.921854374999999Q15.16248390625,14.961414375,15.13404390625,15.003964374999999Q15.10561390625,15.046514375000001,15.08149390625,15.091644375Q15.05737390625,15.136774375,15.03778390625,15.184054374999999Q15.01820390625,15.231334375,15.00335390625,15.280304375Q14.98849390625,15.329274375,14.97851390625,15.379464375000001Q14.96852390625,15.429654375,14.96351390625,15.480584375Q14.95849390625,15.531504375,14.95849390625,15.582684375Q14.95849390625,15.633854375,14.96351390625,15.684784375Q14.96852390625,15.735714375,14.97851390625,15.785904375000001Q14.98849390625,15.836094375,15.00335390625,15.885064374999999Q15.01820390625,15.934034375,15.03778390625,15.981314375Q15.05737390625,16.028584375,15.08149390625,16.073724375Q15.10561390625,16.118854374999998,15.13404390625,16.161404375Q15.16247390625,16.203954375000002,15.19494390625,16.243504375Q15.22740390625,16.283064375000002,15.26359390625,16.319254375Q15.29978390625,16.355434375,15.33933390625,16.387904374999998Q15.37889390625,16.420364375,15.42144390625,16.448794375Q15.46399390625,16.477224375,15.50912390625,16.501354375Q15.55425390625,16.525474375,15.60153390625,16.545054375Q15.64881390625,16.564644375,15.69778390625,16.579494375Q15.74675390625,16.594354375,15.79694390625,16.604334375Q15.84713390625,16.614314375,15.89806390625,16.619334375Q15.94899390625,16.624344375,16.000163906250002,16.624344375ZM8.41650390625,21.832884375Q8.41650390625,21.916184375,8.49983390625,21.916184375L23.49980390625,21.916184375Q23.58320390625,21.916184375,23.58320390625,21.832884375L23.58320390625,17.376774375L16.38402390625,19.176584374999997Q15.99983390625,19.272684375,15.61581390625,19.176584374999997L8.41650390625,17.376774375L8.41650390625,21.832884375Z" fill-rule="evenodd" fill="#FFFFFF" fill-opacity="1" style="mix-blend-mode:passthrough"/></g></g></g></svg>