<svg xmlns="http://www.w3.org/2000/svg" xmlns:xlink="http://www.w3.org/1999/xlink" fill="none" version="1.1" width="32" height="32" viewBox="0 0 32 32"><defs><clipPath id="master_svg0_1994_72566"><rect x="0" y="0" width="32" height="32" rx="8"/></clipPath><clipPath id="master_svg1_1994_72567"><rect x="6" y="5" width="20" height="20" rx="0"/></clipPath></defs><g clip-path="url(#master_svg0_1994_72566)"><rect x="0" y="0" width="32" height="32" rx="8" fill="#0066FF" fill-opacity="1"/><g clip-path="url(#master_svg1_1994_72567)"><g><path d="M18.08400390625,10.624936250000001Q17.240403906250002,10.06253625,16.82541390625,10.22851625Q16.784893906249998,10.24472625,16.75000390625,10.26891625L16.75000390625,11.26473625L21.41590390625,14.37530625C21.62450390625,14.51440625,21.74980390625,14.74858625,21.74980390625,14.99934625L21.74980390625,17.166006250000002L23.49980390625,17.166006250000002Q24.15570390625,17.166006250000002,24.61940390625,17.62980625Q25.08320390625,18.09350625,25.08320390625,18.74930625L25.08320390625,22.49930625Q25.08320390625,23.15520625,24.61940390625,23.61890625Q24.15570390625,24.08270625,23.49980390625,24.08270625L18.54460390625,24.08270625C18.529803906250002,24.08350625,18.51500390625,24.08400625,18.50000390625,24.08400625L13.50000390625,24.08400625C13.485033906249999,24.08400625,13.47017390625,24.08350625,13.455423906250001,24.08270625L7.66650390625,24.08270625C7.25228990625,24.08270625,6.91650390625,23.74690625,6.91650390625,23.33270625L6.91650390625,18.74930625Q6.91650390625,18.09350625,7.38025490625,17.629706249999998Q7.84399990625,17.166006250000002,8.49983390625,17.166006250000002L10.24983390625,17.166006250000002L10.24983390625,14.99934625C10.24983390625,14.74858625,10.37516390625,14.51440625,10.58381390625,14.37530625L15.25000390625,11.26451625L15.25000390625,7.49999625C15.25000390625,7.36560625,15.28534390625,7.23947625,15.34725390625,7.13038625Q15.63340390625,6.58978225,16.26833390625,6.33581025Q17.41590390625,5.87678725,18.916003906249998,6.87687925Q19.75960390625,7.43928625,20.17460390625,7.27330625Q20.25660390625,7.24050625,20.31560390625,7.17497525L20.32920390625,7.16550725C20.45620390625,6.91141925,20.71590390625,6.75091725,21.00000390625,6.75091725C21.414203906250002,6.75091725,21.75000390625,7.08670325,21.75000390625,7.5009162499999995L21.75000390625,10.00089625C21.75000390625,10.117336250000001,21.72290390625,10.232166249999999,21.67080390625,10.33631625Q21.38630390625,10.904466249999999,20.731003906250002,11.16627625Q19.583603906249998,11.624716249999999,18.08400390625,10.624936250000001ZM16.91680390625,22.58270625L15.08349390625,22.58270625L15.08349390625,18.666006250000002L16.91680390625,18.666006250000002L16.91680390625,22.58270625ZM18.41680390625,22.58270625L18.41680390625,17.916006250000002C18.41680390625,17.50180625,18.08100390625,17.166006250000002,17.66680390625,17.166006250000002L14.33349390625,17.166006250000002C13.91928390625,17.166006250000002,13.58349390625,17.50180625,13.58349390625,17.916006250000002L13.58349390625,22.58270625L8.41650390625,22.58270625L8.41650390625,18.74930625Q8.41650390625,18.666006250000002,8.49983390625,18.666006250000002L10.99983390625,18.666006250000002C11.41405390625,18.666006250000002,11.74983390625,18.33020625,11.74983390625,17.916006250000002L11.74983390625,15.40073625L15.99983390625,12.567406250000001L20.24980390625,15.40073625L20.24980390625,17.916006250000002C20.24980390625,18.33020625,20.58560390625,18.666006250000002,20.99980390625,18.666006250000002L23.49980390625,18.666006250000002Q23.58320390625,18.666006250000002,23.58320390625,18.74930625L23.58320390625,22.49930625Q23.58320390625,22.58270625,23.49980390625,22.58270625L18.41680390625,22.58270625ZM18.916003906249998,9.376866249999999Q17.72120390625,8.58030625,16.75000390625,8.70940625L16.75000390625,7.76892625Q16.784893906249998,7.74473625,16.82541390625,7.72852625Q17.240403906250002,7.5625462500000005,18.08400390625,8.12495625Q19.278803906249998,8.92152625,20.25000390625,8.79242625L20.25000390625,9.73288625Q20.21500390625,9.757126249999999,20.17440390625,9.77334625Q19.75950390625,9.93915625,18.916003906249998,9.376866249999999Z" fill-rule="evenodd" fill="#FFFFFF" fill-opacity="1" style="mix-blend-mode:passthrough"/></g></g></g></svg>