<svg xmlns="http://www.w3.org/2000/svg" xmlns:xlink="http://www.w3.org/1999/xlink" fill="none" version="1.1" width="8" height="8" viewBox="0 0 8 8"><defs><clipPath id="master_svg0_1795_112949"><rect x="0" y="0" width="8" height="8" rx="0"/></clipPath></defs><g clip-path="url(#master_svg0_1795_112949)"><g><path d="M4.40066,3.62205C4.70202,3.47583,5,3.32511,5.29461,3.16876C5.57572,3.01691,5.80399,2.9033100000000003,5.97266,2.83357C6.1402,2.7649600000000003,6.27176,2.72784,6.37409,2.72784C6.54276,2.72784,6.68556,2.7840800000000003,6.81262,2.9033100000000003C7.02018,3.10044,7.06015,3.41655,6.9082,3.65917C6.86656,3.74663,6.79956,3.81953,6.71592,3.86838C6.09747,4.12596,5.40818,4.31493,4.66491,4.42853C4.80322,4.5545100000000005,4.96514,4.7311,5.16305,4.951560000000001C5.36095,5.17202,5.46215,5.28563,5.47452,5.30362C5.54649,5.4116,5.64881,5.54433,5.78037,5.7018C5.91193,5.85927,6.00189,5.9785,6.05024,6.06623C6.10324,6.16509,6.13032,6.27576,6.12895,6.38793C6.12895,6.54652,6.06599,6.69837,5.95466,6.81085C5.83745,6.93278,5.67389,6.99904,5.50488,6.99307C5.32497,6.99307,5.11469,6.84234,4.88643,6.5454C4.65929,6.2552,4.3590599999999995,5.72092,3.99923,4.94594C3.63378,5.63881,3.38753,6.10448,3.26833,6.32494C3.17036,6.50756,3.04944,6.67691,2.9085099999999997,6.82885C2.80546,6.93819,2.66181,7.00007,2.51158,6.99981C2.34206,7.00416,2.17951,6.93235,2.06854,6.8041C1.960415,6.69208,1.898223,6.54358,1.8942480000000002,6.38792C1.8942480000000002,6.24957,1.917861,6.14834,1.966213,6.07973C2.37441,5.48857,2.83831,4.9379,3.35155,4.4352800000000006C2.98883,4.37674,2.6286899999999997,4.30319,2.2720700000000003,4.21482C1.925297,4.122059999999999,1.5865040000000001,4.0017,1.2589299999999999,3.85488C1.198209,3.82339,1.1442350000000001,3.75365,1.0902613,3.64679C1.0316185,3.55937,1.000304724,3.45639,1.000304724,3.35097C0.9948396,3.18372,1.0630867,3.02251,1.186964,2.91005C1.298403,2.7953200000000002,1.4521,2.73146,1.612009,2.73346C1.726704,2.73346,1.870634,2.77058,2.0438,2.84032C2.21809,2.91568,2.43399,3.01691,2.7038599999999997,3.16201C2.9737299999999998,3.30036,3.27396,3.45783,3.61467,3.62767C3.54796,3.26477,3.49619,2.89928,3.45949,2.53212C3.4272,2.25156,3.40731,1.969714,3.3999,1.687399C3.3999,1.498433,3.45387,1.340962,3.56744,1.208236C3.67244,1.0733294,3.83511,0.99614244,4.00598,1.000148289C4.17915,1.000148289,4.32308,1.0698858,4.43665,1.202612C4.55488,1.355257,4.6147,1.54514,4.60532,1.7380149999999999C4.60532,1.8010030000000001,4.59295,1.920232,4.580579999999999,2.09795C4.56933,2.28017,4.53897,2.49388,4.50861,2.7458299999999998C4.4726300000000005,3.00454,4.43665,3.29361,4.40066,3.62205Z" fill="#F2505D" fill-opacity="1" style="mix-blend-mode:passthrough"/></g></g></svg>