<svg xmlns="http://www.w3.org/2000/svg" xmlns:xlink="http://www.w3.org/1999/xlink" fill="none" version="1.1" width="16" height="16" viewBox="0 0 16 16"><defs><clipPath id="master_svg0_1795_112887"><rect x="0" y="0" width="16" height="16" rx="0"/></clipPath></defs><g clip-path="url(#master_svg0_1795_112887)"><g><path d="M2.75578609375,2.756274375Q0.58349609375,4.928564375,0.58349609375,8.000654375Q0.58349609375,11.072784375,2.75578609375,13.244984375Q4.92807609375,15.417284375,8.00016609375,15.417284375Q11.07229609375,15.417284375,13.24449609375,13.244984375Q15.41679609375,11.072784375,15.41679609375,8.000654375Q15.41679609375,4.928564375,13.24449609375,2.756274375Q11.07229609375,0.583984375,8.00016609375,0.583984375Q4.92807609375,0.583984375,2.75578609375,2.756274375Z" fill-rule="evenodd" fill="#07C160" fill-opacity="1" style="mix-blend-mode:passthrough"/></g><g><path d="M7.99999609375,4.583984375C7.58578609375,4.583984375,7.24999609375,4.919770375,7.24999609375,5.333984375L7.24999609375,7.250004375L5.33349609375,7.250004375C4.91928209375,7.250004375,4.58349609375,7.585784374999999,4.58349609375,8.000004375C4.58349609375,8.414214375,4.91928209375,8.750004375,5.33349609375,8.750004375L7.24999609375,8.750004375L7.24999609375,10.667314375C7.24999609375,11.081534375,7.58578609375,11.417314375,7.99999609375,11.417314375C8.41421609375,11.417314375,8.74999609375,11.081534375,8.74999609375,10.667314375L8.74999609375,8.750004375L10.66682609375,8.750004375C11.08104609375,8.750004375,11.41682609375,8.414214375,11.41682609375,8.000004375C11.41682609375,7.585784374999999,11.08104609375,7.250004375,10.66682609375,7.250004375L8.74999609375,7.250004375L8.74999609375,5.333984375C8.74999609375,4.919770375,8.41421609375,4.583984375,7.99999609375,4.583984375Z" fill-rule="evenodd" fill="#FFFFFF" fill-opacity="1" style="mix-blend-mode:passthrough"/></g></g></svg>