<svg xmlns="http://www.w3.org/2000/svg" xmlns:xlink="http://www.w3.org/1999/xlink" fill="none" version="1.1" width="20" height="20" viewBox="0 0 20 20"><defs><clipPath id="master_svg0_2999_90975"><rect x="0" y="0" width="20" height="20" rx="0"/></clipPath></defs><g clip-path="url(#master_svg0_2999_90975)"><g><path d="M9.58317390625,1.6669921875L1.66650390625,1.6669921875L1.66650390625,10.8336621875L9.58317390625,10.8336621875L9.58317390625,1.6669921875Z" fill="#8D5404" fill-opacity="1" style="mix-blend-mode:passthrough"/><path d="M0.91650390625,10.8336621875L0.91650390625,1.6669921875Q0.91650390625,1.5931235875,0.93091490625,1.5206741875Q0.94532590625,1.4482251875,0.97359390625,1.3799791875Q1.00186290625,1.3117341875,1.04290190625,1.2503141875Q1.08394090625,1.1888951875,1.13617390625,1.1366621875Q1.18840690625,1.0844291875,1.24982590625,1.0433901875Q1.31124590625,1.0023511875,1.37949090625,0.9740821875Q1.44773690625,0.9458141875,1.52018590625,0.9314031875Q1.59263530625,0.9169921875,1.66650390625,0.9169921875L9.58317390625,0.9169921875Q9.65703390625,0.9169921875,9.72948390625,0.9314031875Q9.80193390625,0.9458141875,9.87018390625,0.9740821875Q9.93842390625,1.0023511875,9.99984390625,1.0433901875Q10.06126390625,1.0844291875,10.11350390625,1.1366621875Q10.16573390625,1.1888951875,10.20677390625,1.2503141875Q10.24781390625,1.3117341875,10.27608390625,1.3799791875Q10.30434390625,1.4482251875,10.31876390625,1.5206741875Q10.33317390625,1.5931235875,10.33317390625,1.6669921875L10.33317390625,10.8336621875Q10.33317390625,10.9075221875,10.31876390625,10.9799721875Q10.30434390625,11.0524221875,10.27608390625,11.1206721875Q10.24781390625,11.1889121875,10.20677390625,11.2503321875Q10.16573390625,11.3117521875,10.11350390625,11.3639821875Q10.06126390625,11.4162221875,9.99984390625,11.4572621875Q9.93842390625,11.4983021875,9.87018390625,11.5265621875Q9.80193390625,11.5548321875,9.72948390625,11.5692421875Q9.65703390625,11.5836621875,9.58317390625,11.5836621875L1.66650390625,11.5836621875Q1.59263530625,11.5836621875,1.52018590625,11.5692521875Q1.44773690625,11.5548321875,1.37949090625,11.5265621875Q1.31124590625,11.4983021875,1.24982590625,11.4572621875Q1.18840690625,11.4162221875,1.13617390625,11.3639821875Q1.08394090625,11.3117521875,1.04290190625,11.2503321875Q1.00186290625,11.1889121875,0.97359390625,11.1206721875Q0.94532590625,11.0524221875,0.93091490625,10.9799721875Q0.91650390625,10.9075221875,0.91650390625,10.8336621875ZM8.83317390625,2.4169921875L2.41650390625,2.4169921875L2.41650390625,10.0836621875L8.83317390625,10.0836621875L8.83317390625,2.4169921875Z" fill-rule="evenodd" fill="#8D5404" fill-opacity="1" style="mix-blend-mode:passthrough"/></g><g><path d="M18.33320390625,14.1669921875L1.66650390625,14.1669921875L1.66650390625,17.9169921875L18.33320390625,17.9169921875L18.33320390625,14.1669921875Z" fill="#8D5404" fill-opacity="1" style="mix-blend-mode:passthrough"/><path d="M0.91650390625,17.9169921875L0.91650390625,14.1669921875Q0.91650390625,14.0931236875,0.93091490625,14.0206741875Q0.94532590625,13.9482251875,0.97359390625,13.8799791875Q1.00186290625,13.8117341875,1.04290190625,13.7503141875Q1.08394090625,13.6888951875,1.13617390625,13.6366621875Q1.18840690625,13.5844291875,1.24982590625,13.5433901875Q1.31124590625,13.5023511875,1.37949090625,13.4740821875Q1.44773690625,13.4458141875,1.52018590625,13.431403187499999Q1.5926354062499999,13.4169921875,1.66650390625,13.4169921875L18.33320390625,13.4169921875Q18.40700390625,13.4169921875,18.47950390625,13.431403187499999Q18.55190390625,13.4458141875,18.62020390625,13.4740821875Q18.68840390625,13.5023511875,18.74980390625,13.5433901875Q18.81130390625,13.5844291875,18.86350390625,13.6366621875Q18.91570390625,13.6888951875,18.95680390625,13.7503141875Q18.99780390625,13.8117341875,19.02610390625,13.8799791875Q19.05430390625,13.9482251875,19.06880390625,14.0206741875Q19.08320390625,14.0931236875,19.08320390625,14.1669921875L19.08320390625,17.9169921875Q19.08320390625,17.9908621875,19.06880390625,18.0633121875Q19.05430390625,18.1357621875,19.02610390625,18.204002187500002Q18.99780390625,18.2722521875,18.95680390625,18.3336721875Q18.91570390625,18.3950921875,18.86350390625,18.4473221875Q18.81130390625,18.4995521875,18.74980390625,18.5405921875Q18.68840390625,18.5816321875,18.62020390625,18.6099021875Q18.55190390625,18.6381721875,18.47950390625,18.652582187500002Q18.40700390625,18.6669921875,18.33320390625,18.6669921875L1.66650390625,18.6669921875Q1.5926354062499999,18.6669921875,1.52018590625,18.652582187500002Q1.44773690625,18.6381721875,1.37949090625,18.6099021875Q1.31124590625,18.5816321875,1.24982590625,18.5405921875Q1.18840690625,18.4995521875,1.13617390625,18.4473221875Q1.08394090625,18.3950921875,1.04290190625,18.3336721875Q1.00186290625,18.2722521875,0.97359390625,18.204002187500002Q0.94532590625,18.1357621875,0.93091490625,18.0633121875Q0.91650390625,17.9908621875,0.91650390625,17.9169921875ZM17.58320390625,14.9169921875L2.41650390625,14.9169921875L2.41650390625,17.1669921875L17.58320390625,17.1669921875L17.58320390625,14.9169921875Z" fill-rule="evenodd" fill="#8D5404" fill-opacity="1" style="mix-blend-mode:passthrough"/></g><g><path d="M18.33317390625,1.6669921875L12.91650390625,1.6669921875L12.91650390625,5.0003221875L18.33317390625,5.0003221875L18.33317390625,1.6669921875Z" fill="#8D5404" fill-opacity="1" style="mix-blend-mode:passthrough"/><path d="M12.16650390625,5.0003221875L12.16650390625,1.6669921875Q12.16650390625,1.5931236874999999,12.180914906249999,1.5206741875Q12.19532590625,1.4482251875,12.22359390625,1.3799791875Q12.25186290625,1.3117341875,12.29290190625,1.2503141875Q12.33394090625,1.1888951875,12.38617390625,1.1366621875Q12.43840690625,1.0844291875,12.49982590625,1.0433901875Q12.56124590625,1.0023511875,12.62949090625,0.9740821875Q12.69773690625,0.9458141875,12.77018590625,0.9314031875Q12.84263540625,0.9169921875,12.91650390625,0.9169921875L18.33317390625,0.9169921875Q18.40704390625,0.9169921875,18.47948390625,0.9314031875Q18.55193390625,0.9458141875,18.62018390625,0.9740821875Q18.68842390625,1.0023511875,18.74984390625,1.0433901875Q18.811263906249998,1.0844291875,18.86350390625,1.1366621875Q18.91573390625,1.1888951875,18.95677390625,1.2503141875Q18.997813906250002,1.3117341875,19.02608390625,1.3799791875Q19.05434390625,1.4482251875,19.06876390625,1.5206741875Q19.08317390625,1.5931236874999999,19.08317390625,1.6669921875L19.08317390625,5.0003221875Q19.08317390625,5.0741921875,19.06876390625,5.1466421874999995Q19.05434390625,5.219092187499999,19.02608390625,5.2873421875Q18.997813906250002,5.3555821875,18.95677390625,5.4170021875Q18.91573390625,5.4784221875,18.86350390625,5.530652187499999Q18.811263906249998,5.582892187500001,18.74984390625,5.6239221875Q18.68842390625,5.6649621875000005,18.62018390625,5.6932321875Q18.55193390625,5.7215021875,18.47948390625,5.7359121875Q18.40704390625,5.7503221875,18.33317390625,5.7503221875L12.91650390625,5.7503221875Q12.84263540625,5.7503221875,12.77018590625,5.7359121875Q12.69773690625,5.7215021875,12.62949090625,5.6932321875Q12.56124590625,5.6649621875000005,12.49982590625,5.6239321874999995Q12.43840690625,5.582892187500001,12.38617390625,5.530652187499999Q12.33394090625,5.4784221875,12.29290190625,5.4170021875Q12.25186290625,5.3555821875,12.22359390625,5.2873421875Q12.19532590625,5.219092187499999,12.180914906249999,5.1466421874999995Q12.16650390625,5.0741921875,12.16650390625,5.0003221875ZM17.58317390625,2.4169921875L13.66650390625,2.4169921875L13.66650390625,4.2503221875L17.58317390625,4.2503221875L17.58317390625,2.4169921875Z" fill-rule="evenodd" fill="#8D5404" fill-opacity="1" style="mix-blend-mode:passthrough"/></g><g><path d="M18.33317390625,7.5L12.91650390625,7.5L12.91650390625,10.83333L18.33317390625,10.83333L18.33317390625,7.5Z" fill="#8D5404" fill-opacity="1" style="mix-blend-mode:passthrough"/><path d="M12.16650390625,10.83333L12.16650390625,7.5Q12.16650390625,7.4261315,12.180914906249999,7.353682Q12.19532590625,7.281233,12.22359390625,7.212987Q12.25186290625,7.144742,12.29290190625,7.083322Q12.33394090625,7.021903,12.38617390625,6.96967Q12.43840690625,6.917437,12.49982590625,6.876398Q12.56124590625,6.835359,12.62949090625,6.80709Q12.69773690625,6.778822,12.77018590625,6.764411Q12.84263540625,6.75,12.91650390625,6.75L18.33317390625,6.75Q18.40704390625,6.75,18.47948390625,6.764411Q18.55193390625,6.778822,18.62018390625,6.80709Q18.68842390625,6.835359,18.74984390625,6.876398Q18.811263906249998,6.917437,18.86350390625,6.96967Q18.91573390625,7.021903,18.95677390625,7.083322Q18.997813906250002,7.144742,19.02608390625,7.212987Q19.05434390625,7.281233,19.06876390625,7.353682Q19.08317390625,7.4261315,19.08317390625,7.5L19.08317390625,10.83333Q19.08317390625,10.9072,19.06876390625,10.97965Q19.05434390625,11.0521,19.02608390625,11.12035Q18.997813906250002,11.18859,18.95677390625,11.25001Q18.91573390625,11.31143,18.86350390625,11.36366Q18.811263906249998,11.4159,18.74984390625,11.45693Q18.68842390625,11.49797,18.62018390625,11.52624Q18.55193390625,11.55451,18.47948390625,11.56892Q18.40704390625,11.58333,18.33317390625,11.58333L12.91650390625,11.58333Q12.84263540625,11.58333,12.77018590625,11.56892Q12.69773690625,11.55451,12.62949090625,11.52624Q12.56124590625,11.49797,12.49982590625,11.45694Q12.43840690625,11.4159,12.38617390625,11.36366Q12.33394090625,11.31143,12.29290190625,11.25001Q12.25186290625,11.18859,12.22359390625,11.12035Q12.19532590625,11.0521,12.180914906249999,10.97965Q12.16650390625,10.9072,12.16650390625,10.83333ZM17.58317390625,8.25L13.66650390625,8.25L13.66650390625,10.08333L17.58317390625,10.08333L17.58317390625,8.25Z" fill-rule="evenodd" fill="#8D5404" fill-opacity="1" style="mix-blend-mode:passthrough"/></g></g></svg>