<svg xmlns="http://www.w3.org/2000/svg" xmlns:xlink="http://www.w3.org/1999/xlink" fill="none" version="1.1" width="20" height="20" viewBox="0 0 20 20"><defs><clipPath id="master_svg0_3001_006417"><rect x="0" y="0" width="20" height="20" rx="0"/></clipPath></defs><g clip-path="url(#master_svg0_3001_006417)"><g><path d="M16.6799,0.000035C18.5159,0.00827462,19.9999,1.49898,19.9999,3.33502L19.9999,16.665C20,18.501,18.516,19.9917,16.6799,20L3.34499,20C1.49808,20.0083,-0.00278651,18.5119,0.000005,16.665L0.000005,3.33502C-0.00278701,1.48809,1.49808,-0.00828663,3.34499,0.000035L16.6799,0.000035ZM7.08998,16.31C6.92153,16.31,6.78498,16.4465,6.78498,16.615L6.78498,16.885C6.78471,16.9683,6.81913,17.048,6.87998,17.105C6.93914,17.1645,7.02121,17.1955,7.10498,17.19L8.71998,17.115C9.26497,17.115,9.71997,17.085,10.05,17.085C10.55,17.085,11.42,17.115,12.725,17.175L13.155,17.175C13.3234,17.175,13.46,17.0384,13.46,16.87L13.46,16.595C13.46,16.4265,13.3234,16.29,13.155,16.29L13.11,16.29C12.8076,16.302,12.5054,16.2648,12.215,16.18C12.0194,16.1218,11.8521,15.9937,11.745,15.82C11.6395,15.5703,11.5753,15.3052,11.555,15.035C11.5,14.7,11.5,14.09,11.5,13.21L11.5,11.345C11.5,10.435,11.5,9.235,11.55,4.91502C11.55,4.74657,11.6865,4.61002,11.855,4.61002L13.305,4.61002C14.305,4.61002,15.005,4.75002,15.35,5.03502C15.6686,5.43359,15.8802,5.90684,15.9649,6.41001C16.0083,6.5596,16.156,6.65377,16.3099,6.63001L16.6399,6.58001C16.8029,6.5543,16.9159,6.40366,16.8949,6.24001C16.8331,5.75282,16.7814,5.26438,16.7399,4.77502C16.6957,4.2395,16.674,3.70236,16.6749,3.16502C16.6668,3.09947,16.6326,3.03997,16.5799,3.00002C16.523,2.9526,16.4473,2.93415,16.3749,2.95002C16.1238,3.01134,15.8679,3.05148,15.61,3.07002C15.11,3.11002,14.275,3.12502,13.05,3.12502L7.04998,3.12502C5.95998,3.12502,5.18499,3.12502,4.72499,3.07002C4.48292,3.05113,4.24238,3.01605,4.00499,2.96502C3.91763,2.94437,3.82562,2.96461,3.75499,3.02002C3.68601,3.07555,3.64267,3.15681,3.63499,3.24502C3.59499,3.85502,3.54999,4.33002,3.50499,4.66502C3.45999,5.00002,3.35999,5.55002,3.21499,6.25501C3.19461,6.43013,3.32417,6.58698,3.49999,6.60001L3.86499,6.67501C4.01845,6.70825,4.17207,6.61954,4.21999,6.47001C4.32593,5.94585,4.56336,5.45722,4.90999,5.05002C5.29499,4.75502,6.00998,4.61002,7.05498,4.61002L8.45998,4.61002C8.54062,4.61091,8.61774,4.64319,8.67498,4.70002C8.73273,4.75663,8.76518,4.83415,8.76497,4.91502L8.76497,10.31C8.76497,12.25,8.76497,13.58,8.72497,14.31C8.73264,14.7656,8.68564,15.2205,8.58498,15.665C8.50545,15.8853,8.34183,16.0651,8.12998,16.165C7.8102,16.2817,7.46974,16.3311,7.12998,16.31L7.08998,16.31Z" fill="#8D5404" fill-opacity="1" style="mix-blend-mode:passthrough"/></g></g></svg>