<svg xmlns="http://www.w3.org/2000/svg" xmlns:xlink="http://www.w3.org/1999/xlink" fill="none" version="1.1" width="20" height="20" viewBox="0 0 20 20"><defs><clipPath id="master_svg0_3001_006425"><rect x="0" y="0" width="20" height="20" rx="0"/></clipPath></defs><g clip-path="url(#master_svg0_3001_006425)"><g><path d="M10.0000227117,7C10.336986,6.639613,10.717818,6.250951,10.987398,6.250951C11.593820000000001,6.274414,11.83109,6.640636,11.69333,6.999999L13,6.999999L13,6L10,6L10.0000227117,7Z" fill="#8D5404" fill-opacity="1" style="mix-blend-mode:passthrough"/></g><g><path d="M17.119,0L5.5955,0C4.00318,0,2.71467,1.27934,2.71467,2.85716L2.71467,17.1429C2.71467,18.0803,0.798728,18.2505,0.0925789,19.262C-0.0678265,19.4908,-0.0988572,20,0.666431,20C2.06471,20,4.8106,20,5.5955,20L17.119,20C18.7086,20,20,18.7207,20,17.1429L20,2.85716C20,1.27932,18.7086,0,17.119,0ZM16.5845,14.2802L14.2776,14.2802C14.3113,14.4392,14.2776,15.1325,14.2776,15.6459C14.1818,16.349,14.1284,16.801,13.5799,16.9935C13.0959,17.1861,12.7978,17.1372,10.8171,17.1372C10.3839,17.1372,10.1869,16.6392,10.1869,16.2235C10.2206,15.8719,10.4626,15.7087,10.9127,15.7087L12.7978,15.7087C12.8287,15.5148,12.7978,14.2801,12.7978,14.2801L9.36253,14.2801C9.00808,14.2466,8.81402,13.9425,8.7802,13.5239C8.814,13.1068,9.00806,12.885,9.36253,12.8515L12.7978,12.8515L13.5799,11.423L10.5274,11.423C10.1729,11.3894,10.0265,11.0505,9.99271,10.6669C9.99271,10.2497,10.1729,10.0265,10.5274,9.99438L15.13,9.99438C15.4535,9.99438,15.6307,10.3794,15.6645,10.6669C15.6954,10.9235,15.4198,11.1983,15.13,11.423L14.2775,12.8515L16.5845,12.8515C16.9081,12.885,17.0853,13.1068,17.119,13.5239C17.0853,13.9425,16.9081,14.2467,16.5845,14.2802ZM16.5845,7.13168C16.939,7.1652,17.119,7.51674,17.119,7.93528C17.0543,8.31891,16.8434,8.52683,16.4888,8.56028L10.7186,8.56028C10.0069,9.32897,9.21909,9.6875,8.47634,10.3934L8.47634,16.4648C8.44266,16.8778,8.29632,17.1038,7.90806,17.1372C7.48612,17.1372,7.06973,16.9265,7.03593,16.5123L7.03593,11.4997C6.58296,11.9169,6.37193,11.981,6.01746,11.6923C5.69401,11.2751,5.74189,10.745,6.16381,10.3934C7.48612,9.39873,8.47634,8.56587,8.51572,8.56028L6.12723,8.56028C5.80363,8.5282,5.62918,8.32037,5.59552,7.93528C5.59552,7.51811,5.75593,7.16383,6.07937,7.13168L8.87869,7.13168C8.61994,7.06891,8.4904,6.7955,8.4904,6.41044L8.4904,5.70312L6.17785,5.70312C5.82338,5.67107,5.62918,5.44787,5.5955,5.03072C5.5955,4.61358,5.77552,4.30667,6.12999,4.27457L8.47634,4.27457L8.47634,3.32588C8.51013,3.0385,8.75762,2.87949,9.14591,2.84604C9.56798,2.84604,9.92526,2.9911,9.95627,3.27843L9.95627,4.27457L12.7977,4.27457L12.7977,3.37475C12.8315,3.05245,13.0959,2.87949,13.5152,2.84604C13.9371,2.87949,14.2437,3.05245,14.2775,3.37475L14.2775,4.27457L16.6324,4.27457C16.9558,4.30665,17.119,4.61358,17.119,5.03072C17.0853,5.44787,16.9081,5.67104,16.5845,5.70312L14.2382,5.70312L14.2382,6.69926C14.2382,6.95451,14.1256,7.09964,13.9681,7.13168L16.5845,7.13168Z" fill="#8D5404" fill-opacity="1" style="mix-blend-mode:passthrough"/></g></g></svg>