<svg xmlns="http://www.w3.org/2000/svg" xmlns:xlink="http://www.w3.org/1999/xlink" fill="none" version="1.1" width="20" height="20" viewBox="0 0 20 20"><defs><clipPath id="master_svg0_3001_006421"><rect x="0" y="0" width="20" height="20" rx="0"/></clipPath></defs><g clip-path="url(#master_svg0_3001_006421)"><g><path d="M19.9055,7.77024L16.8007,1.482658C16.6543,1.186312,16.361,1,16.0408,1L3.9948,1C3.67611,0.99999343104,3.38391,1.184549,3.23687,1.478718L0.0964134,7.76077C-0.0723482,8.09835,-0.0158677,8.51025,0.236893,8.785260000000001L9.37286,18.7255C9.5339,18.9007,9.75673,18.9998,9.98973,19L9.99031,19C10.2231,19,10.4458,18.9011,10.607,18.7263L19.7623,8.791599999999999C20.0146,8.51783,20.0722,8.107610000000001,19.9055,7.77024ZM15.0469,8.77087L10.612,13.5834C10.4508,13.7582,10.2281,13.8571,9.9953,13.8571L9.99472,13.8571C9.76171,13.8569,9.53888,13.7577,9.37784,13.5825L4.95229,8.76736C4.62619,8.41256,4.63829,7.8499,4.97931,7.51061C5.32033,7.17131,5.86112,7.18392,6.18722,7.53872L9.99615,11.683L13.8136,7.54052C14.1402,7.18618,14.681,7.17436,15.0216,7.5141C15.3621,7.85384,15.3735,8.41652,15.0469,8.77087Z" fill="#8D5404" fill-opacity="1" style="mix-blend-mode:passthrough"/></g></g></svg>