<svg xmlns="http://www.w3.org/2000/svg" xmlns:xlink="http://www.w3.org/1999/xlink" fill="none" version="1.1" width="20" height="20" viewBox="0 0 20 20"><defs><clipPath id="master_svg0_2999_90966"><rect x="0" y="0" width="20" height="20" rx="0"/></clipPath></defs><g clip-path="url(#master_svg0_2999_90966)"><g><path d="M19,3.0911299999999997C19,3.22507,18.8744,3.35902,18.7488,3.49296L10.1253,11.15088C9.75117,11.41877,9.25144,11.41877,9.00027,11.15088L1.74773,4.7036C1.37359,4.43571,1.37359,3.89736,1.62214,3.49553C1.87331,3.0937099999999997,2.49601,3.0937099999999997,2.87276,3.36159L9.62297,9.27053L17.7494,2.150954C17.875,2.0170115,18.0005,2.0170115,18.1235,2.0170115L1.49917,2.0170115C0.62531,1.883069,0,2.555359,0,3.49553L0,16.3875C0,17.1938,0.62531,18,1.49917,18L13.2492,18C12.3754,17.0598,11.7501,15.8518,11.7501,14.3732C11.7501,11.68666,13.8746,9.40447,16.3758,9.40447C17.3752,9.40447,18.2517,9.672360000000001,19,10.34465L19,3.0911299999999997Z" fill="#8D5404" fill-opacity="1" style="mix-blend-mode:passthrough"/></g><g><path d="M13.0125469,13.61744C13.0125469,13.43875,13.0577157,13.3159,13.148053,13.254480000000001C13.238391,13.19306,13.381426,13.16234,13.577157,13.16234C13.664985,13.16234,13.805511,13.16234,13.996224,13.165140000000001C14.18694,13.16793,14.3902,13.16793,14.606,13.16793C14.82181,13.16793,15.03009,13.16793,15.23586,13.17072C15.439119999999999,13.17351,15.60223,13.17351,15.72268,13.17351C15.8908,13.1791,16.0238,13.165140000000001,16.12167,13.13163C16.21953,13.09813,16.26721,13.02554,16.26721,12.911067C16.26721,12.824515,16.26972,12.724004,16.27725,12.606741C16.28478,12.489478,16.28729,12.386175,16.28729,12.302416000000001C16.29231,12.151649,16.33496,12.0567218,16.420279999999998,12.0176342C16.5056,11.9757545,16.611,12.00925824,16.738970000000002,12.109769C16.87197,12.213073,17.027549999999998,12.335919,17.20572,12.475518C17.38389,12.615117,17.56707,12.7603,17.75778,12.908275C17.9485,13.05625,18.13419,13.20143,18.31737,13.34661C18.50056,13.48901,18.66116,13.61464,18.80419,13.72353C18.93217,13.82683,18.997419999999998,13.92455,18.99993,14.01669C19.00243,14.10882,18.94221,14.20375,18.81674,14.30147C18.688760000000002,14.40477,18.53569,14.52204,18.360030000000002,14.65605C18.18438,14.79007,18.003700000000002,14.926870000000001,17.81299,15.066469999999999C17.62479,15.20886,17.43909,15.34846,17.25591,15.48806C17.07272,15.62766,16.91212,15.75051,16.76909,15.8566C16.61351,15.976659999999999,16.48553,16.02133,16.38515,15.99062C16.28478,15.959900000000001,16.237099999999998,15.86777,16.24212,15.71421L16.24212,15.37359C16.24212,15.30937,16.24212,15.24516,16.23961,15.18374C16.237099999999998,15.12231,16.237099999999998,15.06368,16.237099999999998,15.01342C16.237099999999998,14.90733,16.20448,14.837530000000001,16.13672,14.80961C16.06897,14.781690000000001,15.978629999999999,14.76773,15.863199999999999,14.76773C15.73522,14.76773,15.564589999999999,14.76773,15.35631,14.76494C15.14803,14.76215,14.92971,14.76215,14.70387,14.76215C14.47802,14.76215,14.257200000000001,14.76215,14.0439,14.759360000000001C13.830604,14.75656,13.657457,14.75656,13.52446,14.75656C13.466745,14.75656,13.406519,14.75098,13.343785,14.73981C13.28105,14.72864,13.225844,14.7091,13.173147,14.67839C13.12296,14.64768,13.0803001,14.6058,13.0501876,14.54716C13.020075,14.48853,13.00250938,14.41036,13.00250938,14.31264C13.00250938,14.198170000000001,13.00250938,14.08649,13,13.9776C13.00752814,13.87151,13.00752814,13.75145,13.0125469,13.61744Z" fill="#8D5404" fill-opacity="1" style="mix-blend-mode:passthrough"/></g></g></svg>