<svg xmlns="http://www.w3.org/2000/svg" xmlns:xlink="http://www.w3.org/1999/xlink" fill="none" version="1.1" width="20" height="20" viewBox="0 0 20 20"><defs><clipPath id="master_svg0_1994_018320"><rect x="0" y="0" width="20" height="20" rx="0"/></clipPath></defs><g clip-path="url(#master_svg0_1994_018320)"><g><path d="M11.06082609375,10.000654375L14.69715609375,13.636984375C14.83781609375,13.777644375,14.91682609375,13.968404375,14.91682609375,14.167314375C14.91682609375,14.581534375,14.58104609375,14.917314375,14.16682609375,14.917314375C13.96791609375,14.917314375,13.77715609375,14.838304375,13.63649609375,14.697644375L10.00016609375,11.061314375L6.36382609375,14.697644375C6.22317609375,14.838304375,6.03240809375,14.917314375,5.83349609375,14.917314375C5.41928209375,14.917314375,5.08349609375,14.581534375,5.08349609375,14.167314375C5.08349609375,13.968404375,5.16251369375,13.777644375,5.30316609375,13.636984375L8.93950609375,10.000654375L5.30316609375,6.364314375C5.16251369375,6.223664375,5.08349609375,6.032896375,5.08349609375,5.833984375C5.08349609375,5.419770375,5.41928209375,5.083984375,5.83349609375,5.083984375C6.03240809375,5.083984375,6.22317609375,5.163001975,6.36397609375,5.303808375L10.00016609375,8.939994375L13.63649609375,5.303654375C13.77715609375,5.163001975,13.96791609375,5.083984375,14.16682609375,5.083984375C14.58104609375,5.083984375,14.91682609375,5.419770375,14.91682609375,5.833984375C14.91682609375,6.032896375,14.83781609375,6.223664375,14.69715609375,6.364314375L11.06082609375,10.000654375Z" fill-rule="evenodd" fill="#000000" fill-opacity="0.4000000059604645" style="mix-blend-mode:passthrough"/></g></g></svg>