<svg xmlns="http://www.w3.org/2000/svg" xmlns:xlink="http://www.w3.org/1999/xlink" fill="none" version="1.1" width="24" height="24" viewBox="0 0 24 24"><defs><clipPath id="master_svg0_1795_034110"><rect x="0" y="0" width="24" height="24" rx="0"/></clipPath></defs><g clip-path="url(#master_svg0_1795_034110)"><g><path d="M4.3986,4.3986Q1.25,7.5472,1.25,12Q1.25,16.4528,4.3986,19.6014Q7.5472,22.75,12,22.75Q16.4528,22.75,19.6014,19.6014Q22.75,16.4528,22.75,12Q22.75,7.5472,19.6014,4.3986Q16.4528,1.25,12,1.25Q7.5472,1.25,4.3986,4.3986Z" fill-rule="evenodd" fill="#000000" fill-opacity="0.44999998807907104" style="mix-blend-mode:passthrough"/></g><g><path d="M9.25,8.5361328125L9.25,15.4643328125C9.25,15.5959828125,9.2846547,15.7253228125,9.350481,15.8393328125C9.557587999999999,16.198052812500002,10.01628,16.3209628125,10.375,16.1138528125L13.375,14.3818028125L16.375,12.649752812500001C16.48901,12.583922812499999,16.58369,12.489242812499999,16.64952,12.3752328125C16.85663,12.0165128125,16.733719999999998,11.5578228125,16.375,11.3507128125L13.375,9.6186628125L10.375,7.8866138125C10.26099,7.8207875125,10.131652,7.7861328125,10,7.7861328125C9.585786,7.7861328125,9.25,8.1219188125,9.25,8.5361328125Z" fill-rule="evenodd" fill="#FFFFFF" fill-opacity="1" style="mix-blend-mode:passthrough"/></g></g></svg>