<svg xmlns="http://www.w3.org/2000/svg" xmlns:xlink="http://www.w3.org/1999/xlink" fill="none" version="1.1" width="16" height="16" viewBox="0 0 16 16"><defs><clipPath id="master_svg0_2252_092533"><rect x="0" y="16" width="16" height="16" rx="0"/></clipPath></defs><g transform="matrix(0,-1,1,0,-16,16)" clip-path="url(#master_svg0_2252_092533)"><g><path d="M4.353613,21.646506L8,25.29289L11.64626,21.646634L11.64645,21.646447Q11.71677,21.57612,11.80866,21.53806Q11.90054,21.5,12,21.5Q12.04924,21.5,12.09754,21.509607Q12.14584,21.519215,12.19134,21.53806Q12.23684,21.556906,12.27778,21.584265Q12.31873,21.611625,12.35355,21.646447Q12.38837,21.681269,12.41573,21.722215Q12.44309,21.763161,12.46194,21.808658Q12.48078,21.854155,12.49039,21.9024549Q12.5,21.9507543,12.5,22Q12.5,22.0994561,12.46194,22.191342Q12.42388,22.283227,12.35355,22.353553L8.35355,26.35355Q8.31873,26.388370000000002,8.27778,26.41573Q8.23684,26.443089999999998,8.19134,26.46194Q8.14584,26.48078,8.09754,26.490389999999998Q8.049240000000001,26.5,8,26.5Q7.95075,26.5,7.90245,26.490389999999998Q7.854150000000001,26.48078,7.80866,26.46194Q7.76316,26.443089999999998,7.7222100000000005,26.41573Q7.68127,26.388370000000002,7.64645,26.35355L3.646506,22.353613L3.646447,22.353553Q3.57612,22.283227,3.5380599999999998,22.191342Q3.5,22.0994562,3.5,22Q3.5,21.9507543,3.509607,21.9024549Q3.519215,21.854155,3.5380599999999998,21.808658Q3.556906,21.763161,3.584265,21.722215Q3.611625,21.681269,3.646447,21.646447Q3.681269,21.611625,3.722215,21.584265Q3.763161,21.556906,3.808658,21.53806Q3.854155,21.519215,3.9024549,21.509607Q3.9507543,21.5,4,21.5Q4.0994562,21.5,4.191342,21.53806Q4.283227,21.57612,4.353553,21.646447L4.353613,21.646506Z" fill-rule="evenodd" fill="#FF9A01" fill-opacity="1" style="mix-blend-mode:passthrough"/></g></g></svg>