<svg xmlns="http://www.w3.org/2000/svg" xmlns:xlink="http://www.w3.org/1999/xlink" fill="none" version="1.1" width="24" height="24" viewBox="0 0 24 24"><defs><clipPath id="master_svg0_2252_092518"><rect x="0" y="0" width="24" height="24" rx="0"/></clipPath></defs><g clip-path="url(#master_svg0_2252_092518)"><g><path d="M1.25,2L1.25,13C1.25,13.4142,1.585786,13.75,2,13.75L11.5,13.75C11.9142,13.75,12.25,13.4142,12.25,13L12.25,2C12.25,1.585786,11.9142,1.25,11.5,1.25L2,1.25C1.585786,1.25,1.25,1.585786,1.25,2ZM2.75,2.75L10.75,2.75L10.75,12.25L2.75,12.25L2.75,2.75Z" fill-rule="evenodd" fill="#915123" fill-opacity="1" style="mix-blend-mode:passthrough"/></g><g><path d="M1.25,17L1.25,21.5C1.25,21.9142,1.585786,22.25,2,22.25L22,22.25C22.4142,22.25,22.75,21.9142,22.75,21.5L22.75,17C22.75,16.5858,22.4142,16.25,22,16.25L2,16.25C1.585786,16.25,1.25,16.5858,1.25,17ZM2.75,17.75L21.25,17.75L21.25,20.75L2.75,20.75L2.75,17.75ZM14.75,2L14.75,6C14.75,6.41421,15.0858,6.75,15.5,6.75L22,6.75C22.4142,6.75,22.75,6.41421,22.75,6L22.75,2C22.75,1.585786,22.4142,1.25,22,1.25L15.5,1.25C15.0858,1.25,14.75,1.585786,14.75,2ZM16.25,2.75L21.25,2.75L21.25,5.25L16.25,5.25L16.25,2.75ZM14.75,9L14.75,13C14.75,13.4142,15.0858,13.75,15.5,13.75L22,13.75C22.4142,13.75,22.75,13.4142,22.75,13L22.75,9C22.75,8.58579,22.4142,8.25,22,8.25L15.5,8.25C15.0858,8.25,14.75,8.58579,14.75,9ZM16.25,9.75L21.25,9.75L21.25,12.25L16.25,12.25L16.25,9.75Z" fill-rule="evenodd" fill="#000000" fill-opacity="0.8999999761581421" style="mix-blend-mode:passthrough"/></g></g></svg>