<svg xmlns="http://www.w3.org/2000/svg" xmlns:xlink="http://www.w3.org/1999/xlink" fill="none" version="1.1" width="24" height="24" viewBox="0 0 24 24"><defs><clipPath id="master_svg0_2252_092431"><rect x="0" y="0" width="24" height="24" rx="0"/></clipPath></defs><g clip-path="url(#master_svg0_2252_092431)"><g><path d="M20.25,3.5L20.25,8.35835C20.25,8.77256,20.5858,9.10835,21,9.10835C21.4142,9.10835,21.75,8.77256,21.75,8.35835L21.75,3.5Q21.75,2.77513,21.2374,2.262566Q20.7249,1.75,20,1.75L4,1.75Q2.25,1.75,2.25,3.5L2.25,20Q2.25,20.7249,2.762566,21.2374Q3.27513,21.75,4,21.75L10.071449999999999,21.75C10.48566,21.75,10.82145,21.4142,10.82145,21C10.82145,20.5858,10.48566,20.25,10.071449999999999,20.25L4,20.25Q3.75,20.25,3.75,20L3.75,3.5Q3.75,3.3964499999999997,3.82322,3.32322Q3.8964499999999997,3.25,4,3.25L20,3.25Q20.1036,3.25,20.1768,3.32322Q20.25,3.39644,20.25,3.5ZM8.5,6.25L14.5,6.25C14.9142,6.25,15.25,6.58579,15.25,7C15.25,7.41421,14.9142,7.75,14.5,7.75L12.25,7.75L12.25,14C12.25,14.4142,11.91421,14.75,11.5,14.75C11.08579,14.75,10.75,14.4142,10.75,14L10.75,7.75L8.5,7.75C8.08579,7.75,7.75,7.41421,7.75,7C7.75,6.58579,8.08579,6.25,8.5,6.25Z" fill-rule="evenodd" fill="#000000" fill-opacity="1" style="mix-blend-mode:passthrough"/></g><g><path d="M12.75,21.000045640563965L12.75,18.999995640563967C12.75,18.842015640563964,12.7998862,18.688075640563966,12.892543,18.560115640563964L18.14254,11.310117640563965C18.38548,10.974628440563965,18.854390000000002,10.899602640563964,19.18988,11.142543640563964C19.18988,11.142543640563964,19.21046,11.157985640563965,19.21046,11.157985640563965L21.46045,12.907985640563965C21.78089,13.157215640563965,21.84487,13.616165640563965,21.604799999999997,13.943525640563966L16.1048,21.443545640563965C15.963519999999999,21.636145640563967,15.73891,21.750045640563965,15.5,21.750045640563965L13.5,21.750045640563965C13.085786,21.750045640563965,12.75,21.414245640563966,12.75,21.000045640563965ZM15.11995,20.249995640563967L14.25,20.249995640563967L14.25,19.243035640563967L18.90222,12.818545640563965L19.96405,13.644405640563965L15.11995,20.249995640563967Z" fill-rule="evenodd" fill="#915123" fill-opacity="1" style="mix-blend-mode:passthrough"/></g></g></svg>