<svg xmlns="http://www.w3.org/2000/svg" xmlns:xlink="http://www.w3.org/1999/xlink" fill="none" version="1.1" width="24" height="24" viewBox="0 0 24 24"><defs><clipPath id="master_svg0_2252_092477"><rect x="0" y="0" width="24" height="24" rx="0"/></clipPath></defs><g clip-path="url(#master_svg0_2252_092477)"><g><path d="M22,11.25L12.75,11.25L12.75,2C12.75,1.585786,12.4142,1.25,12,1.25Q7.5472,1.250000953674,4.3986,4.3986Q1.25,7.5472,1.25,12Q1.250000953674,16.4528,4.3986,19.6014Q7.5472,22.75,12,22.75Q16.4528,22.75,19.6014,19.6014Q22.75,16.4528,22.75,12C22.75,11.5858,22.4142,11.25,22,11.25ZM12,12.75C11.5858,12.75,11.25,12.4142,11.25,12L11.25,2.77672Q7.89944,3.0190799999999998,5.45926,5.45926Q2.75,8.168520000000001,2.75,12Q2.75,15.8315,5.45926,18.5407Q8.168520000000001,21.25,12,21.25Q15.8315,21.25,18.5407,18.5407Q20.9809,16.1006,21.2233,12.75L12,12.75Z" fill-rule="evenodd" fill="#000000" fill-opacity="0.8999999761581421" style="mix-blend-mode:passthrough"/></g><g><path d="M15.224736,1.7424705125Q17.73282,2.5302098125,19.60142,4.3988178125Q21.470010000000002,6.2674178125,22.25774,8.775507812499999C22.31734,8.9652878125,22.299120000000002,9.1709578125,22.20707,9.347297812499999C22.11503,9.5236278125,21.956699999999998,9.656177812500001,21.766930000000002,9.7157778125C21.694209999999998,9.7386178125,21.61843,9.7502478125,21.5422,9.7502478125L15,9.7502478125C14.585786,9.7502478125,14.25,9.4144578125,14.25,9.0002378125L14.25,2.4580078125C14.25,2.0437938125,14.585786,1.7080078125,15,1.7080078125C15.076228,1.7080078721046,15.152011,1.7196289125,15.224736,1.7424705125ZM15.75,8.2502378125L15.75,3.5394978125Q17.306820000000002,4.2255378125,18.54076,5.459477812499999Q19.77469,6.6934078125,20.46071,8.2502378125L15.75,8.2502378125Z" fill-rule="evenodd" fill="#915123" fill-opacity="1" style="mix-blend-mode:passthrough"/></g></g></svg>