<svg xmlns="http://www.w3.org/2000/svg" xmlns:xlink="http://www.w3.org/1999/xlink" fill="none" version="1.1" width="33.388671875" height="14" viewBox="0 0 33.388671875 14"><defs><linearGradient x1="0.0317092165350914" y1="0.5" x2="1" y2="0.5" id="master_svg0_123_53239"><stop offset="3.57142873108387%" stop-color="#FF9A01" stop-opacity="1"/><stop offset="99.99998807907104%" stop-color="#FFB201" stop-opacity="1"/><stop offset="100%" stop-color="#D8D8D8" stop-opacity="0.041731178760528564"/></linearGradient></defs><g><g><path d="M0.0204768,11.7172C-0.151647,12.922,0.783277,14,2.00038,14L29.9598,14C30.9551,14,31.7989,13.2681,31.9397,12.2828L33.3682,2.28284C33.5404,1.07798,32.6054,0,31.3883,0L3.42895,0C2.43365,0,1.58981,0.73186,1.44905,1.71716L0.0204768,11.7172Z" fill="url(#master_svg0_123_53239)" fill-opacity="1"/></g><g style="opacity:0.8999999761581421;"><path d="M6.076387207336426,11.133806129760742L4.546111207336426,3.366958129760742L4.271817207336426,2.962736129760742L7.187997207336426,2.962736129760742L8.285167207336425,8.636286129760741L11.056987207336427,2.962736129760742L13.828797207336425,2.962736129760742L9.959807207336425,11.133806129760742L6.076387207336426,11.133806129760742ZM19.011517207336425,2.962736129760742L17.755517207336425,11.133806129760742L15.128117207336425,11.133806129760742L16.095317207336425,3.5113241297607423L15.676717207336425,2.962736129760742L19.011517207336425,2.962736129760742ZM29.939917207336425,2.962736129760742L29.391417207336424,7.394746129760742Q29.275917207336427,7.813406129760742,28.936617207336425,8.087706129760743Q28.597317207336427,8.361996129760742,28.279717207336425,8.361996129760742L23.429117207336425,8.361996129760742L23.010417207336427,11.133806129760742L20.383017207336426,11.133806129760742L21.350217207336424,3.366958129760742L20.931517207336427,2.962736129760742L29.939917207336425,2.962736129760742ZM23.992117207336427,4.348646129760742L23.703417207336425,6.976086129760742L26.619517207336425,6.976086129760742L27.038217207336427,4.348646129760742L23.992117207336427,4.348646129760742Z" fill="#FFFFFF" fill-opacity="1"/></g></g></svg>