<svg xmlns="http://www.w3.org/2000/svg" xmlns:xlink="http://www.w3.org/1999/xlink" fill="none" version="1.1" width="24" height="24" viewBox="0 0 24 24"><defs><clipPath id="master_svg0_2252_092480"><rect x="0" y="0" width="24" height="24" rx="0"/></clipPath></defs><g clip-path="url(#master_svg0_2252_092480)"><g><path d="M19.5009298828125,3.001153125C20.3292298828125,3.001153125,21.0048298828125,3.674543125,21.0048298828125,4.500253125L21.0048298828125,19.491653125C21.0048298828125,20.317353125,20.3292298828125,20.990753125,19.5009298828125,20.990753125L7.4707098828125,20.990753125L5.1475498828125,20.990753125C5.6144598828125,20.615953125,5.9669598828125,20.160753125,5.9669598828125,19.491653125L5.9669598828125,4.500253125C5.9669598828125,3.674543125,6.6395098828125,3.001153125,7.4707098828125,3.001153125L19.5009298828125,3.001153125ZM19.5009298828125,1.501953125L7.4707098828125,1.501953125C5.8083598828125,1.501953125,4.463179882812501,2.844463125,4.463179882812501,4.500253125L4.463179882812501,19.491653125C4.463179882812501,20.381753125,1.9988398828125,20.159153125,1.5290026128125,21.880953125C1.4819662828125,22.060953125,1.6200801828125,22.489953125,2.2779908828125,22.489953125C3.6143198828125,22.489953125,6.5953998828125,22.489953125,7.4707098828125,22.489953125L19.5009298828125,22.489953125C21.1604298828125,22.489953125,22.5086298828125,21.147453125,22.5086298828125,19.491653125L22.5086298828125,4.500253125C22.5086298828125,2.844493125,21.1604298828125,1.501953125,19.5009298828125,1.501953125Z" fill="#000000" fill-opacity="0.8999999761581421" style="mix-blend-mode:passthrough"/></g><g><path d="M10.478203125,5.98748125L10.478203125,4.99192725C10.513503125,4.6903482499999996,10.771853125,4.52348055,11.177213125,4.4883050537C11.617883124999999,4.4883050537,11.990823125,4.64055625,12.023223125000001,4.94213525L12.023223125000001,5.98748125L14.989653125,5.98748125L14.989653125,5.04318125C15.024943125,4.70496525,15.300883125,4.52348055,15.738633125,4.48828125C16.179143125,4.52345675,16.499223125,4.70494125,16.534543125,5.04318125L16.534543125,5.98748125L18.992903124999998,5.98748125C19.330603125,6.0211412499999994,19.500903125,6.3432112499999995,19.500903125,6.7809212500000005C19.465803125,7.21867125,19.280803125,7.45294125,18.943003125,7.48660125L16.493423125,7.48660125L16.493423125,8.53188125C16.493423125,8.799811250000001,16.375943125,8.95204125,16.211493125,8.98571125L18.942903125,8.98571125C19.313003125,9.020911250000001,19.500903125,9.38982125,19.500903125,9.82901125C19.433403124999998,10.23158125,19.213203125,10.449781250000001,18.843003125,10.48488125L12.819103125,10.48488125C12.076073125,11.29157125,11.253623125,11.66779125,10.478233125,12.408581250000001L10.478233125,18.779881250000003C10.443073125,19.213181249999998,10.290273125,19.45038125,9.884943125,19.48558125C9.444433125,19.48558125,9.009773125,19.26448125,8.974453125,18.82968125L8.974453125,13.56954125C8.501573125,14.00732125,8.281248125,14.07462125,7.911187125,13.77158125C7.573522125,13.33383125,7.623482125,12.77752125,8.063990125,12.408581250000001C9.444433125,11.364751250000001,10.478233125,10.490751249999999,10.519323125,10.48488125L8.025795125,10.48488125C7.687986125,10.45122125,7.505854825,10.23302125,7.470703125,9.82901125C7.470703125,9.39123125,7.638170125,9.01944125,7.975835125,8.98571125L10.898253125,8.98571125C10.628133125,8.919841250000001,10.492893125,8.63295125,10.492893125,8.22886125L10.492893125,7.48660125L8.078678125,7.48660125C7.708616125,7.45294125,7.505854325,7.21867125,7.470703125,6.7809212500000005C7.470703125,6.3432112499999995,7.658657125,6.0211412499999994,8.028718125,5.98748125L10.478203125,5.98748125ZM14.989623125,17.98648125C15.021883124999999,17.782881250000003,14.989623125,16.487281250000002,14.989623125,16.487281250000002L11.403333125,16.487281250000002C11.033293125,16.452181250000002,10.830703125,16.13298125,10.795403125,15.69378125C10.830703125,15.25608125,11.033293125,15.02328125,11.403333125,14.98818125L14.989623125,14.98818125L15.806113125,13.48898125L12.619403125,13.48898125C12.249343125,13.45388125,12.096543125,13.09815125,12.061243125,12.69559125C12.061243125,12.25782125,12.249343125,12.02357125,12.619403125,11.989901249999999L17.424493124999998,11.989901249999999C17.762203125,11.989901249999999,17.947203125,12.39399125,17.982503125,12.69559125C18.014703125,12.96487125,17.727003125,13.25330125,17.424493124999998,13.48898125L16.534493124999997,14.98818125L18.942903125,14.98818125C19.280703125000002,15.02328125,19.465703124999997,15.25608125,19.500903125,15.69378125C19.465803125,16.13298125,19.280703125000002,16.452181250000002,18.942903125,16.487281250000002L16.534493124999997,16.487281250000002C16.569793125,16.65418125,16.534493124999997,17.38178125,16.534493124999997,17.920581249999998C16.434553125,18.658381249999998,16.378773125000002,19.132681249999997,15.806113125,19.33478125C15.300863125,19.53688125,14.989623125,19.48558125,12.921913125,19.48558125C12.469643125000001,19.48558125,12.264003125,18.962881250000002,12.264003125,18.52668125C12.299163125,18.15778125,12.551853125000001,17.98648125,13.021693124999999,17.98648125L14.989623125,17.98648125ZM11.981983125,8.99155125C12.319793125,8.45137125,12.701613125,7.86867125,12.971903125,7.86867125C13.579853125,7.903851250000001,13.817763124999999,8.45280125,13.679623124999999,8.99155125L14.989653125,8.99155125L14.989653125,7.49245125L11.981983125,7.49245125L11.981983125,8.99155125Z" fill="#9C6239" fill-opacity="1" style="mix-blend-mode:passthrough"/></g></g></svg>