<svg xmlns="http://www.w3.org/2000/svg" xmlns:xlink="http://www.w3.org/1999/xlink" fill="none" version="1.1" width="24" height="24" viewBox="0 0 24 24"><defs><clipPath id="master_svg0_2252_092463"><rect x="0" y="0" width="24" height="24" rx="0"/></clipPath></defs><g clip-path="url(#master_svg0_2252_092463)"><g><path d="M22.57118950958252,9.73609L12.571189509582519,21.4861C12.44218950958252,21.6376,12.25838950958252,21.7316,12.06018950958252,21.7476C11.86188950958252,21.7635,11.66538950958252,21.7001,11.513889509582519,21.5712C11.48328950958252,21.5451,11.45488950958252,21.5167,11.42888950958252,21.4861L1.4288455095825194,9.73609C1.2402629895825195,9.5145,1.1968610095825196,9.20384,1.3174940095825196,8.93906L4.164929509582519,2.689057C4.28676950958252,2.421631,4.55356950958252,2.2500000596046,4.84743950958252,2.25L19.15258950958252,2.2500000596046C19.44638950958252,2.250000119209,19.71318950958252,2.42163,19.83508950958252,2.689056L22.68248950958252,8.93906C22.80318950958252,9.20384,22.75968950958252,9.5145,22.57118950958252,9.73609ZM11.99998950958252,19.8428L21.11978950958252,9.127030000000001L18.67008950958252,3.75L5.32991950958252,3.75L2.88018950958252,9.127030000000001L11.99998950958252,19.8428Z" fill-rule="evenodd" fill="#000000" fill-opacity="0.8999999761581421" style="mix-blend-mode:passthrough"/></g><g><path d="M7.25,9C7.25,9.183686,7.3174089,9.36098,7.439443,9.49827L11.439440000000001,13.99827C11.71463,14.30786,12.188690000000001,14.33575,12.49827,14.060559999999999C12.520240000000001,14.04103,12.54103,14.020240000000001,12.560559999999999,13.99827L16.560560000000002,9.49827C16.682589999999998,9.36098,16.75,9.183686,16.75,9C16.75,8.585786,16.41421,8.25,16,8.25C15.78577,8.25,15.58177,8.3416108,15.43944,8.501727L12,12.3711L8.56056,8.501727C8.41823,8.3416108,8.214228,8.25,8,8.25C7.585786,8.25,7.25,8.585786,7.25,9Z" fill-rule="evenodd" fill="#915123" fill-opacity="1" style="mix-blend-mode:passthrough"/></g></g></svg>