<svg xmlns="http://www.w3.org/2000/svg" xmlns:xlink="http://www.w3.org/1999/xlink" fill="none" version="1.1" width="24" height="24" viewBox="0 0 24 24"><defs><clipPath id="master_svg0_2252_135832"><rect x="0" y="0" width="24" height="24" rx="0"/></clipPath></defs><g clip-path="url(#master_svg0_2252_135832)"><g><path d="M22.52994,16.46928L20.03048,13.969824C19.88968,13.8290176,19.698909999999998,13.75,19.5,13.75C19.08579,13.75,18.75,14.085786,18.75,14.5C18.75,14.698912,18.82902,14.88968,18.96967,15.03033L20.18934,16.25L15,16.25C14.585786,16.25,14.25,16.58579,14.25,17C14.25,17.41421,14.585786,17.75,15,17.75L20.18934,17.75L18.96967,18.96967C18.82902,19.11032,18.75,19.301090000000002,18.75,19.5C18.75,19.91421,19.08579,20.25,19.5,20.25C19.698909999999998,20.25,19.88968,20.17098,20.03033,20.03033L22.5298,17.53086C22.67098,17.38968,22.75,17.19891,22.75,17C22.75,16.98799,22.74971,16.97597,22.74913,16.96397C22.740180000000002,16.77774,22.66217,16.60151,22.52994,16.46928Z" fill-rule="evenodd" fill="#9C6239" fill-opacity="1" style="mix-blend-mode:passthrough"/></g><g><path d="M2,3.75L22,3.75C22.4142,3.75,22.75,4.085786,22.75,4.5L22.75,4.501691L22.75,11.99831L22.75,12C22.75,12.41421,22.4142,12.75,22,12.75C21.5858,12.75,21.25,12.41421,21.25,12L21.25,6L12.45,12.6C12.1833,12.8,11.8167,12.8,11.55,12.6L2.75,6L2.75,18.75L12,18.75C12.4142,18.75,12.75,19.0858,12.75,19.5C12.75,19.698900000000002,12.671,19.8897,12.5303,20.0303C12.3897,20.171,12.1989,20.25,12,20.25L2,20.25C1.585786,20.25,1.25,19.9142,1.25,19.5L1.25,4.5C1.25,4.085786,1.585786,3.75,2,3.75ZM4.25,5.25L12,11.0625L19.75,5.25L4.25,5.25Z" fill-rule="evenodd" fill="#000000" fill-opacity="0.8999999761581421" style="mix-blend-mode:passthrough"/></g></g></svg>