<svg xmlns="http://www.w3.org/2000/svg" xmlns:xlink="http://www.w3.org/1999/xlink" fill="none" version="1.1" width="24" height="24" viewBox="0 0 24 24"><defs><clipPath id="master_svg0_2252_092486"><rect x="0" y="0" width="24" height="24" rx="0"/></clipPath></defs><g clip-path="url(#master_svg0_2252_092486)"><g><path d="M22.25029296875,2.5C22.25029296875,2.698912,22.171292968750002,2.8896800000000002,22.03059296875,3.03033L11.58062296875,13.4803C11.43997296875,13.621,11.24920496875,13.7,11.05029296875,13.7C10.63607896875,13.7,10.30029296875,13.3642,10.30029296875,12.95C10.30029296875,12.7511,10.37931056875,12.5603,10.51996296875,12.4197L20.96999296875,1.96967C21.110592968749998,1.8290177,21.30139296875,1.75,21.50029296875,1.75C21.91449296875,1.75,22.25029296875,2.085786,22.25029296875,2.5Z" fill-rule="evenodd" fill="#9C5E00" fill-opacity="1" style="mix-blend-mode:passthrough"/></g><g><path d="M2.2522368807907105,8.442109523162841L21.25219988079071,1.792106123162842C21.43999988079071,1.7263954231628418,21.64609988079071,1.7379574231628419,21.82539988079071,1.8242485231628418C22.00459988079071,1.9105395231628417,22.14219988079071,2.064491523162842,22.20789988079071,2.252237523162842C22.26399988079071,2.4126415231628418,22.26399988079071,2.587358523162842,22.20789988079071,2.7477625231628418L15.55789988079071,21.747799523162843C15.42109988079071,22.138699523162842,14.99319988079071,22.34469952316284,14.60219988079071,22.20789952316284C14.40699988079071,22.139599523162843,14.24869988079071,21.993599523162843,14.16459988079071,21.804599523162842L10.48179988079071,13.518199523162842L2.1953958807907106,9.835359523162841C2.01362788079071,9.754569523162841,1.8713958807907105,9.604889523162843,1.7999908807907103,9.41922952316284C1.7285853807907106,9.233579523162842,1.7338552807907104,9.027159523162842,1.8146413807907105,8.845399523162842C1.8986518807907105,8.65636952316284,2.0569988807907107,8.510439523162841,2.2522368807907105,8.442109523162841ZM11.35459988079071,12.264599523162842L4.533309880790711,9.23294952316284L20.27749988079071,3.722479523162842L14.76699988079071,19.46669952316284L11.73535988079071,12.645399523162842C11.65994988079071,12.475699523162842,11.52427988079071,12.340099523162841,11.35459988079071,12.264599523162842Z" fill-rule="evenodd" fill="#000000" fill-opacity="0.8999999761581421" style="mix-blend-mode:passthrough"/></g></g></svg>