<svg xmlns="http://www.w3.org/2000/svg" xmlns:xlink="http://www.w3.org/1999/xlink" fill="none" version="1.1" width="24" height="24" viewBox="0 0 24 24"><defs><clipPath id="master_svg0_2252_092427"><rect x="0" y="0" width="24" height="24" rx="0"/></clipPath></defs><g clip-path="url(#master_svg0_2252_092427)"><g><path d="M9.75,7L9.75,3.25L3.25,3.25L3.25,9.75L7,9.75L7,11.25L2.5,11.25C2.085786,11.25,1.75,10.91421,1.75,10.5L1.75,2.5C1.75,2.085786,2.085786,1.75,2.5,1.75L10.5,1.75C10.91421,1.75,11.25,2.085786,11.25,2.5L11.25,7L9.75,7Z" fill-rule="evenodd" fill="#000000" fill-opacity="0.8999999761581421" style="mix-blend-mode:passthrough"/></g><g><path d="M14.25,16L14.25,20.75L20.75,20.75L20.75,14.25L16,14.25C15.58579,14.25,15.25,13.91421,15.25,13.5C15.25,13.085786,15.58579,12.75,16,12.75L21.5,12.75C21.91421,12.75,22.25,13.085786,22.25,13.5L22.25,21.5C22.25,21.91421,21.91421,22.25,21.5,22.25L13.5,22.25C13.085786,22.25,12.75,21.91421,12.75,21.5L12.75,16C12.75,15.58579,13.085786,15.25,13.5,15.25C13.91421,15.25,14.25,15.58579,14.25,16Z" fill-rule="evenodd" fill="#000000" fill-opacity="0.8999999761581421" style="mix-blend-mode:passthrough"/></g><g><path d="M6.25,16L6.25,7C6.25,6.585786,6.585786,6.25,7,6.25L16,6.25C16.4142,6.25,16.75,6.585786,16.75,7L16.75,16C16.75,16.4142,16.4142,16.75,16,16.75L7,16.75C6.585786,16.75,6.25,16.4142,6.25,16ZM7.75,7.75L7.75,15.25L15.25,15.25L15.25,7.75L7.75,7.75Z" fill-rule="evenodd" fill="#9C5E00" fill-opacity="1" style="mix-blend-mode:passthrough"/></g></g></svg>