<svg xmlns="http://www.w3.org/2000/svg" xmlns:xlink="http://www.w3.org/1999/xlink" fill="none" version="1.1" width="24" height="24" viewBox="0 0 24 24"><g><g><rect x="0" y="0" width="24" height="24" rx="12" fill="#07C160" fill-opacity="1"/><rect x="0.5" y="0.5" width="23" height="23" rx="11.5" fill-opacity="0" stroke-opacity="1" stroke="#07C160" fill="none" stroke-width="1"/></g><g><path d="M4.9830322265625,4.9830322265625L10.1915122265625,4.9830322265625L10.1915122265625,7.125612226562501L10.1915422265625,18.9494322265625L8.108152226562499,18.9494322265625L8.108152226562499,10.2998022265625L7.1465522265625,10.2998022265625L7.1465522265625,15.8546322265625L4.9830322265625,15.8546322265625L4.9830322265625,8.1572222265625L8.108152226562499,8.1572222265625L8.108152226562499,7.125612226562501L4.9830322265625,7.125612226562501L4.9830322265625,4.9830322265625ZM11.1530722265625,4.9830322265625L19.4866322265625,4.9830322265625L19.4866322265625,7.125612226562501L16.4416322265625,7.125612226562501L16.4416322265625,8.1572222265625L19.4866322265625,8.1572222265625L19.4866322265625,10.2204522265625L16.4416322265625,10.2204522265625L16.4416322265625,18.9494322265625L14.1980022265625,18.9494322265625L14.1980022265625,10.2204522265625L11.1530722265625,10.2204622265625L11.1530722265625,8.1572222265625L14.1980022265625,8.1572222265625L14.1980022265625,7.125612226562501L11.1530722265625,7.125612226562501L11.1530722265625,4.9830322265625ZM11.1530722265625,10.2204622265625L13.3165922265625,10.2204622265625L13.3165922265625,17.6798322265625L11.1530722265625,17.6798322265625L11.1530722265625,10.2204622265625ZM17.243032226562498,17.6798322265625L17.243032226562498,10.2204622265625L19.4866322265625,10.2204522265625L19.486732226562502,17.6798322265625L17.243032226562498,17.6798322265625ZM7.1465522265625,18.8910322265625C7.1465522265625,17.6961322265625,6.1779122265624995,16.727532226562502,4.9830322265625,16.727532226562502L4.9830322265625,18.9494322265625L7.1465522265625,18.9494322265625L7.1465522265625,18.8910322265625Z" fill-rule="evenodd" fill="#FFFFFF" fill-opacity="1"/></g></g></svg>