<svg xmlns="http://www.w3.org/2000/svg" xmlns:xlink="http://www.w3.org/1999/xlink" fill="none" version="1.1" width="24" height="24" viewBox="0 0 24 24"><g><g></g><g><path d="M4.9830322265625,4.98291015625L10.1915122265625,4.98291015625L10.1915122265625,7.125490156250001L10.1915422265625,18.94931015625L8.108152226562499,18.94931015625L8.108152226562499,10.29980015625L7.1465522265625,10.29980015625L7.1465522265625,15.85431015625L4.9830322265625,15.85431015625L4.9830322265625,8.15723015625L8.108152226562499,8.15723015625L8.108152226562499,7.125490156250001L4.9830322265625,7.125490156250001L4.9830322265625,4.98291015625ZM19.4866322265625,4.98291015625L11.1530722265625,4.98291015625L11.1530722265625,7.125490156250001L14.1980022265625,7.125490156250001L14.1980022265625,8.15723015625L11.1530722265625,8.15723015625L11.1530722265625,17.67951015625L13.3165922265625,17.67951015625L13.3165922265625,10.22045015625L14.1980022265625,10.22045015625L14.1980022265625,18.94931015625L16.4416322265625,18.94931015625L16.4416322265625,10.22045015625L17.243032226562498,10.22045015625L17.243032226562498,17.67951015625L19.486732226562502,17.67951015625L19.486732226562502,10.220210156250001L19.4866322265625,8.15723015625L16.4416322265625,8.15723015625L16.4416322265625,7.125490156250001L19.4866322265625,7.125490156250001L19.4866322265625,4.98291015625Z" fill-rule="evenodd" fill="#79797B" fill-opacity="1"/></g><g><path d="M4.9830322265625 16.7275390625C4.9830322265625 16.7275390625 4.9830322265625 16.7275390625 4.9830322265625 16.7275390625L6.06479275226593 16.7275390625C6.662232593580876 16.7275390625 7.14655327796936 17.211859746888482 7.14655327796936 17.80929958820343L7.14655327796936 18.949471950531006C7.14655327796936 18.949471950531006 7.14655327796936 18.949471950531006 7.14655327796936 18.949471950531006L4.9830322265625 18.949471950531006C4.9830322265625 18.949471950531006 4.9830322265625 18.949471950531006 4.9830322265625 18.949471950531006Z" fill="#B6B6B9" fill-opacity="1"/></g></g></svg>