<svg xmlns="http://www.w3.org/2000/svg" xmlns:xlink="http://www.w3.org/1999/xlink" fill="none" version="1.1" width="24" height="24" viewBox="0 0 24 24"><defs><clipPath id="master_svg0_1994_018780"><rect x="0" y="0" width="24" height="24" rx="0"/></clipPath></defs><g clip-path="url(#master_svg0_1994_018780)"><g><path d="M1.25,18L1.25,3C1.25,2.585786,1.585786,2.25,2,2.25L22,2.25C22.4142,2.25,22.75,2.585786,22.75,3L22.75,18C22.75,18.4142,22.4142,18.75,22,18.75L14.8107,18.75L12.5303,21.0303C12.2374,21.3232,11.7626,21.3232,11.4697,21.0303L9.18934,18.75L2,18.75C1.585786,18.75,1.25,18.4142,1.25,18ZM9.5,17.25L2.75,17.25L2.75,3.75L21.25,3.75L21.25,17.25L14.5,17.25C14.3011,17.25,14.1103,17.329,13.9697,17.4697L12,19.4393L10.03033,17.4697C9.88968,17.329,9.69891,17.25,9.5,17.25Z" fill-rule="evenodd" fill="#808080" fill-opacity="1" style="mix-blend-mode:passthrough"/></g><g><path d="M11.49999828125,9.75C11.08578828125,9.75,10.74999828125,10.085786,10.74999828125,10.5C10.74999828125,10.91421,11.08578828125,11.25,11.49999828125,11.25L12.50124828125,11.25C12.91546828125,11.25,13.25124828125,10.91421,13.25124828125,10.5C13.25124828125,10.085786,12.91546828125,9.75,12.50124828125,9.75L11.49999828125,9.75ZM16.50048828125,9.75C16.08628828125,9.75,15.75048828125,10.085786,15.75048828125,10.5C15.75048828125,10.91421,16.08628828125,11.25,16.50048828125,11.25L17.499988281249998,11.25C17.91418828125,11.25,18.249988281249998,10.91421,18.249988281249998,10.5C18.249988281249998,10.085786,17.91418828125,9.75,17.499988281249998,9.75L16.50048828125,9.75ZM6.50048828125,9.75C6.08627428125,9.75,5.75048828125,10.085786,5.75048828125,10.5C5.75048828125,10.91421,6.08627428125,11.25,6.50048828125,11.25L7.4999382812499995,11.25C7.91414828125,11.25,8.24993828125,10.91421,8.24993828125,10.5C8.24993828125,10.085786,7.91414828125,9.75,7.4999382812499995,9.75L6.50048828125,9.75Z" fill-rule="evenodd" fill="#BFBFBF" fill-opacity="1" style="mix-blend-mode:passthrough"/></g></g></svg>