<svg xmlns="http://www.w3.org/2000/svg" xmlns:xlink="http://www.w3.org/1999/xlink" fill="none" version="1.1" width="24" height="24" viewBox="0 0 24 24"><defs><clipPath id="master_svg0_2113_74742"><rect x="0" y="0" width="24" height="24" rx="0"/></clipPath></defs><g clip-path="url(#master_svg0_2113_74742)"><g><path d="M15.499978125,5.5C15.499978125,7.433,13.932978125,9,11.999998125,9C10.067008125000001,9,8.499998125000001,7.433,8.499998125000001,5.5C8.499998125000001,3.567,10.067008125000001,2,11.999998125,2C13.932978125,2,15.499978125,3.567,15.499978125,5.5ZM3.267578125,15.6006L3.267578125,20.6006C3.267578125,21.1529,3.715293125,21.6006,4.267578125,21.6006L16.267578125,21.6006C19.028978125000002,21.6006,21.267578125,19.362,21.267578125,16.6006L21.267578125,11.60059C21.267578125,11.0483,20.819878125,10.60059,20.267578125,10.60059L8.267578125,10.60059C5.506158125,10.60059,3.267578125,12.8392,3.267578125,15.6006Z" fill="#07C160" fill-opacity="1"/></g><g><path d="M9.267578125,16.35064697265625C9.267578125,16.76485697265625,9.603364125,17.10064697265625,10.017578125,17.10064697265625L14.517578125,17.10064697265625C14.931788125,17.10064697265625,15.267578125,16.76485697265625,15.267578125,16.35064697265625C15.267578125,15.93643297265625,14.931788125,15.60064697265625,14.517578125,15.60064697265625L10.017578125,15.60064697265625C9.603364125,15.60064697265625,9.267578125,15.93643297265625,9.267578125,16.35064697265625Z" fill="#FFFFFF" fill-opacity="1"/></g></g></svg>