<svg xmlns="http://www.w3.org/2000/svg" xmlns:xlink="http://www.w3.org/1999/xlink" fill="none" version="1.1" width="24" height="24" viewBox="0 0 24 24"><defs><clipPath id="master_svg0_1994_018749"><rect x="0" y="0" width="24" height="24" rx="0"/></clipPath></defs><g clip-path="url(#master_svg0_1994_018749)"><g><path d="M7.75,5.5Q7.7499999403954,3.73959,8.99479,2.4947999999999997Q10.23959,1.250000119209,12,1.25Q13.76041,1.25,15.0052,2.4947999999999997Q16.25,3.73959,16.25,5.5Q16.25,7.26041,15.0052,8.5052Q13.76041,9.75,12,9.75Q10.23959,9.75,8.99479,8.5052Q7.749999701977,7.26041,7.75,5.5ZM9.25,5.5Q9.25,6.63909,10.05545,7.44454Q10.86091,8.25,12,8.25Q13.13909,8.25,13.94454,7.44454Q14.75,6.63909,14.75,5.5Q14.75,4.3609100000000005,13.94454,3.55546Q13.13909,2.75,12,2.75Q10.86091,2.75,10.05546,3.55546Q9.25,4.3609100000000005,9.25,5.5Z" fill-rule="evenodd" fill="#000000" fill-opacity="0.5" style="mix-blend-mode:passthrough"/></g><g><path d="M4.267578125,21.60064697265625C3.715293125,21.60064697265625,3.267578125,21.152946972656252,3.267578125,20.60064697265625L3.267578125,15.60064697265625C3.267578125,12.839226972656249,5.506158125,10.60064697265625,8.267578125,10.60064697265625L20.267578125,10.60064697265625C20.819878125,10.60064697265625,21.267578125,11.04836197265625,21.267578125,11.60064697265625L21.267578125,16.60064697265625C21.267578125,19.36206697265625,19.028978125000002,21.60064697265625,16.267578125,21.60064697265625L4.267578125,21.60064697265625ZM4.767578125,20.10064697265625L16.267578125,20.10064697265625Q17.717278125,20.10064697265625,18.742478124999998,19.07551697265625Q19.767578125,18.05039697265625,19.767578125,16.60064697265625L19.767578125,12.10064697265625L8.267578125,12.10064697265625Q6.817828125,12.10064697265625,5.792708125,13.12577697265625Q4.767578125,14.15089697265625,4.767578125,15.60064697265625L4.767578125,20.10064697265625Z" fill-rule="evenodd" fill="#000000" fill-opacity="0.5"/></g><g><path d="M9.267578125,16.35064697265625C9.267578125,16.76485697265625,9.603364125,17.10064697265625,10.017578125,17.10064697265625L14.517578125,17.10064697265625C14.931788125,17.10064697265625,15.267578125,16.76485697265625,15.267578125,16.35064697265625C15.267578125,15.93643297265625,14.931788125,15.60064697265625,14.517578125,15.60064697265625L10.017578125,15.60064697265625C9.603364125,15.60064697265625,9.267578125,15.93643297265625,9.267578125,16.35064697265625Z" fill="#000000" fill-opacity="0.25"/></g></g></svg>