<svg xmlns="http://www.w3.org/2000/svg" xmlns:xlink="http://www.w3.org/1999/xlink" fill="none" version="1.1" width="24" height="24" viewBox="0 0 24 24"><defs><clipPath id="master_svg0_1994_018770"><rect x="0" y="0" width="24" height="24" rx="0"/></clipPath></defs><g clip-path="url(#master_svg0_1994_018770)"><g><path d="M8.603424881740626,19.2725830078125C8.863784072265625,20.9819330078125,10.370004072265624,22.2232130078125,12.099994072265625,22.1495330078125C13.816824072265625,22.1850730078125,15.301034072265626,20.9618830078125,15.596044072265624,19.272583007812496L14.066214072265625,19.2725830078125C13.803554072265625,20.1208580078125,12.997644072265626,20.6927230078125,12.099994072265625,20.6495330078125C11.189354072265624,20.6671030078125,10.370554072265625,20.1128670078125,10.043654072265625,19.272583007812504L8.603424881740626,19.2725830078125Z" fill-rule="evenodd" fill="#000000" fill-opacity="0.5" style="mix-blend-mode:passthrough"/></g><g><path d="M19.699975831604004,12.900035546875C19.706875831604005,13.571335546875,19.773775831604002,14.240635546875,19.899975831604003,14.900035546875C20.884275831604004,15.165935546875,21.550275831604004,16.081735546875002,21.499975831604004,17.100035546875C21.516475831604005,18.102135546875,20.880175831604003,18.958935546875,19.988675831604002,19.272735546875L4.264605831604004,19.272735546875C3.361508831604004,18.960135546875,2.7111886316040037,18.107135546875,2.6999937056040038,17.100035546875C2.6898535316040038,16.094135546875002,3.339886831604004,15.200335546875,4.299995831604004,14.900035546875C4.426215831604004,14.240635546875,4.493145831604004,13.571335546875,4.499995831604004,12.900035546875L4.499995831604004,10.600045546875C4.501425831604004,7.537475546875,6.2477458316040035,4.743355546875,8.999995831604004,3.400045546875C9.387535831604005,2.015889546875,10.662925831604003,1.069631646875,12.099995831604003,1.100045246875C13.549475831604004,1.029763146875,14.846975831604004,1.992453546875,15.199975831604004,3.400045546875C17.952275831604005,4.743355546875,19.698575831604003,7.537475546875,19.699975831604004,10.600045546875L19.699975831604004,12.900035546875ZM4.999995831604004,17.800035546875L19.199975831604004,17.800035546875C19.676475831604005,17.848735546875,20.092475831604006,17.478935546875,20.099975831604002,17.000035546875C20.056975831604003,16.538235546875,19.663675831604003,16.188535546875002,19.199975831604004,16.200035546875Q18.299975831604,16.200035546875,18.299975831604,12.900035546875L18.299975831604,10.600045546875C18.278075831604006,7.838455546875,16.513575831604005,5.392185546875,13.899975831604005,4.5000455468750005L13.899975831604005,4.200045546875C13.895675831604004,3.223295546875,13.075375831604005,2.4486255468750002,12.099995831604003,2.500045546875C11.138375831604003,2.485115546875,10.339995831604003,3.239145546875,10.299995831604004,4.200045546875L10.299995831604004,4.5000455468750005C7.6732358316040035,5.374355546875,5.900795831604004,7.831605546875,5.899995831604004,10.600045546875L5.899995831604004,12.900035546875Q5.899995831604004,16.100035546875,4.999995831604004,16.200035546875C4.523485831604004,16.151335546875,4.107475831604004,16.521135546875,4.099995831604004,17.000035546875C4.142975831604004,17.461835546875,4.536305831604004,17.811535546875,4.999995831604004,17.800035546875Z" fill-rule="evenodd" fill="#000000" fill-opacity="0.5" style="mix-blend-mode:passthrough"/></g><g><path d="M9.15639877319336,15.421874671875C9.15639877319336,15.010223671875,9.49010877319336,14.676513671875,9.90175977319336,14.676513671875L14.098238773193358,14.676513671875C14.50988877319336,14.676513671875,14.84359877319336,15.010223671875,14.84359877319336,15.421874671875C14.84359877319336,15.833523671875,14.50988877319336,16.167233671875,14.098238773193358,16.167233671875L9.90175977319336,16.167233671875C9.49010877319336,16.167233671875,9.15639877319336,15.833523671875,9.15639877319336,15.421874671875Z" fill="#000000" fill-opacity="0.25"/></g></g></svg>