<svg xmlns="http://www.w3.org/2000/svg" xmlns:xlink="http://www.w3.org/1999/xlink" fill="none" version="1.1" width="24" height="24" viewBox="0 0 24 24"><defs><clipPath id="master_svg0_2113_74658"><rect x="0" y="0" width="24" height="24" rx="0"/></clipPath></defs><g clip-path="url(#master_svg0_2113_74658)"><g><path d="M19.899929578399657,14.90027944908142C19.773729578399657,14.24087944908142,19.70682957839966,13.57157944908142,19.699929578399658,12.90027944908142L19.699929578399658,10.600289449081421C19.698529578399658,7.537719449081421,17.95222957839966,4.743599449081421,15.199929578399658,3.400289449081421C14.846929578399658,1.9926974490814209,13.549429578399659,1.0300070490814208,12.099949578399658,1.1002891490814208C10.662879578399657,1.069875549081421,9.38748957839966,2.016133449081421,8.999949578399658,3.400289449081421C6.247699578399658,4.743599449081421,4.501379578399658,7.537719449081421,4.499949578399658,10.600289449081421L4.499949578399658,12.90027944908142C4.493099578399658,13.57157944908142,4.426169578399659,14.24087944908142,4.299949578399659,14.90027944908142C3.339840578399658,15.20057944908142,2.689807278399658,16.094379449081423,2.699947452399658,17.10027944908142C2.711142378399658,18.10737944908142,3.3614625783996583,18.960379449081422,4.264559578399658,19.272979449081422L8.603449578399658,19.272979449081422C8.86402957839966,20.98207944908142,10.37012957839966,22.22307944908142,12.099949578399658,22.149379449081422C13.816629578399658,22.18497944908142,15.300729578399658,20.961979449081422,15.595929578399659,19.272979449081422L19.988629578399657,19.272979449081422C20.880129578399657,18.95917944908142,21.51642957839966,18.102379449081422,21.49992957839966,17.10027944908142C21.55022957839966,16.081979449081423,20.88422957839966,15.16617944908142,19.899929578399657,14.90027944908142ZM14.066029578399657,19.272979449081422L10.043799578399657,19.272979449081422C10.370829578399658,20.112979449081422,11.189489578399659,20.66697944908142,12.099949578399658,20.649379449081422C12.997429578399657,20.69257944908142,13.803229578399659,20.12097944908142,14.066029578399657,19.272979449081422Z" fill-rule="evenodd" fill="#07C160" fill-opacity="1"/></g><g><rect x="9.15639877319336" y="14.6767578125" width="5.687202453613281" height="1.49072265625" rx="0.745361328125" fill="#FFFFFF" fill-opacity="1"/></g></g></svg>