<svg xmlns="http://www.w3.org/2000/svg" xmlns:xlink="http://www.w3.org/1999/xlink" fill="none" version="1.1" width="48" height="48" viewBox="0 0 48 48"><g><g><path d="M0,40L0,8C0,3.58172,3.58172,0,8,0L40,0C44.4183,0,48,3.58172,48,8L48,40C48,44.4183,44.4183,48,40,48L8,48C3.58172,48,0,44.4183,0,40Z" fill="#F2F2F6" fill-opacity="1"/></g><g><path d="M9.1156005859375,9.115722656L20.163900585937498,9.115722656L20.163900585937498,13.661134375L9.1156005859375,13.660584375L9.1156005859375,9.115722656ZM39.880900585937496,9.115722656L22.2036005859375,9.115722656L22.2036005859375,13.660584375L39.880900585937496,13.660584375L39.880900585937496,9.115722656ZM20.163900585937498,13.661134375L15.7446305859375,13.661134375L15.7446305859375,15.849614375L9.1156005859375,15.849614375L9.1156005859375,32.177134375L13.7048905859375,32.177134375L13.7048905859375,20.394434375L15.7446305859375,20.394434375L15.7446305859375,38.742034375L20.163900585937498,38.742034375L20.163900585937498,13.661134375ZM28.6625005859375,13.661134375L33.421800585937504,13.661134375L33.421800585937504,15.849614375L39.880900585937496,15.849614375L39.880900585937496,20.226134375L39.8808005859375,36.048434375L35.1216005859375,36.048434375L35.1216005859375,20.226134375L33.421800585937504,20.226134375L33.421800585937504,38.742034375L28.6625005859375,38.742034375L28.6625005859375,20.226134375L26.7929005859375,20.226134375L26.7929005859375,36.048434375L22.2036005859375,36.048434375L22.2036005859375,15.849614375L28.6625005859375,15.849614375L28.6625005859375,13.661134375Z" fill-rule="evenodd" fill="#0B4883" fill-opacity="1"/></g><g><path d="M9.1156005859375,34.02880859375C11.6501905859375,34.02880859375,13.7048905859375,36.08349859375,13.7048905859375,38.61809859375L13.7048905859375,38.74199859375L9.1156005859375,38.74199859375L9.1156005859375,34.02880859375Z" fill="#CF0200" fill-opacity="1"/></g></g></svg>