<svg xmlns="http://www.w3.org/2000/svg" xmlns:xlink="http://www.w3.org/1999/xlink" fill="none" version="1.1" width="20" height="20" viewBox="0 0 20 20"><g><g><rect x="0" y="0" width="20" height="20" rx="10" fill="#F2F2F6" fill-opacity="1"/></g><g><path d="M3.79815673828125,3.79882812475L8.401606738281249,3.79882812475L8.401606738281249,5.69237984375L8.40162673828125,16.14273984375L6.56023673828125,16.14273984375L6.56023673828125,8.49818984375L5.71035673828125,8.49818984375L5.71035673828125,13.40759984375L3.79815673828125,13.40759984375L3.79815673828125,6.604489843750001L6.56023673828125,6.604489843750001L6.56023673828125,5.69251984375L3.79815673828125,5.69251984375L3.79815673828125,3.79882812475ZM16.61695673828125,3.79882812475L9.25146673828125,3.79882812475L9.25146673828125,5.69251984375L11.94268673828125,5.69251984375L11.94268673828125,6.604489843750001L9.25146673828125,6.604489843750001L9.25146673828125,15.02053984375L11.16366673828125,15.02053984375L11.16366673828125,8.42804984375L11.94268673828125,8.42804984375L11.94268673828125,16.14273984375L13.92575673828125,16.14273984375L13.92575673828125,8.42804984375L14.63395673828125,8.42804984375L14.63395673828125,15.02053984375L16.61695673828125,15.02053984375L16.61695673828125,8.42772984375L16.61695673828125,6.604489843750001L13.92575673828125,6.604489843750001L13.92575673828125,5.69251984375L16.61695673828125,5.69251984375L16.61695673828125,3.79882812475Z" fill-rule="evenodd" fill="#0B4883" fill-opacity="1"/></g><g><path d="M3.79815673828125,14.17919921875C4.85423673828125,14.17919921875,5.71035673828125,15.03532121875,5.71035673828125,16.09139921875L5.71035673828125,16.14302921875L3.79815673828125,16.14302921875L3.79815673828125,14.17919921875Z" fill="#CF0200" fill-opacity="1"/></g></g></svg>