<svg xmlns="http://www.w3.org/2000/svg" xmlns:xlink="http://www.w3.org/1999/xlink" fill="none" version="1.1" width="20" height="20" viewBox="0 0 20 20"><defs><clipPath id="master_svg0_2719_089614"><rect x="0" y="0" width="20" height="20" rx="0"/></clipPath></defs><g clip-path="url(#master_svg0_2719_089614)"><g><path d="M1.75,6.66667L1.75,3.33333Q1.75,2.677495,2.213748,2.213748Q2.677495,1.7500000596046,3.33333,1.7500000596046L6.66667,1.75C7.08088,1.75,7.41667,2.085786,7.41667,2.5C7.41667,2.9142099999999997,7.08088,3.25,6.66667,3.25L3.33333,3.25Q3.25,3.25,3.25,3.33333L3.25,6.66667C3.25,7.08088,2.9142099999999997,7.41667,2.5,7.41667C2.085786,7.41667,1.75,7.08088,1.75,6.66667ZM2.5,12.5835C2.085786,12.5835,1.75,12.9193,1.75,13.3335L1.75,16.666800000000002Q1.75,17.322699999999998,2.21375,17.7864Q2.677496,18.2502,3.33333,18.2502L6.66667,18.2502C7.08088,18.2502,7.41667,17.9144,7.41667,17.5002C7.41667,17.085900000000002,7.08088,16.7502,6.66667,16.7502L3.33333,16.7502Q3.29881,16.7502,3.27441,16.7258Q3.25,16.7014,3.25,16.666800000000002L3.25,13.3335C3.25,12.9193,2.9142099999999997,12.5835,2.5,12.5835ZM17.5002,12.5835C17.085900000000002,12.5835,16.7502,12.9193,16.7502,13.3335L16.7502,16.666800000000002Q16.7502,16.7014,16.7258,16.7258Q16.7014,16.7502,16.666800000000002,16.7502L13.3335,16.7502C12.9193,16.7502,12.5835,17.085900000000002,12.5835,17.5002C12.5835,17.9144,12.9193,18.2502,13.3335,18.2502L16.666800000000002,18.2502Q17.322699999999998,18.2502,17.7864,17.7864Q18.2502,17.322699999999998,18.2502,16.666800000000002L18.2502,13.3335C18.2502,12.9193,17.9144,12.5835,17.5002,12.5835ZM16.666800000000002,1.7500000596046L13.3335,1.75C12.9193,1.75,12.5835,2.085786,12.5835,2.5C12.5835,2.9142099999999997,12.9193,3.25,13.3335,3.25L16.666800000000002,3.25Q16.7502,3.25,16.7502,3.33333L16.7502,6.66667C16.7502,7.08088,17.085900000000002,7.41667,17.5002,7.41667C17.9144,7.41667,18.2502,7.08088,18.2502,6.66667L18.2502,3.33333Q18.2502,2.677496,17.7864,2.2137510000000002Q17.322699999999998,1.7500000596046,16.666800000000002,1.7500000596046ZM5.8335,9.25L14.1668,9.25C14.581,9.25,14.9168,9.58579,14.9168,10C14.9168,10.41421,14.581,10.75,14.1668,10.75L5.8335,10.75C5.4192800000000005,10.75,5.0835,10.41421,5.0835,10C5.0835,9.58579,5.4192800000000005,9.25,5.8335,9.25ZM8.75,5.9165L11.25,5.9165C11.66421,5.9165,12,6.25229,12,6.6665C12,7.08072,11.66421,7.4165,11.25,7.4165L8.75,7.4165C8.33579,7.4165,8,7.08072,8,6.6665C8,6.25229,8.33579,5.9165,8.75,5.9165ZM8.75,12.5835L11.25,12.5835C11.66421,12.5835,12,12.9193,12,13.3335C12,13.7477,11.66421,14.0835,11.25,14.0835L8.75,14.0835C8.33579,14.0835,8,13.7477,8,13.3335C8,12.9193,8.33579,12.5835,8.75,12.5835Z" fill-rule="evenodd" fill="#000000" fill-opacity="0.8999999761581421" style="mix-blend-mode:passthrough"/></g></g></svg>