<svg xmlns="http://www.w3.org/2000/svg" xmlns:xlink="http://www.w3.org/1999/xlink" fill="none" version="1.1" width="48" height="48" viewBox="0 0 48 48"><g><g><path d="M0,40L0,8C0,3.58172,3.58172,0,8,0L40,0C44.4183,0,48,3.58172,48,8L48,40C48,44.4183,44.4183,48,40,48L8,48C3.58172,48,0,44.4183,0,40Z" fill="#07C160" fill-opacity="1"/></g><g><path d="M28.97015546875,20.49822171875C29.29025546875,20.49822171875,29.60695546875,20.52204171875,29.92115546875,20.55770171875C29.06705546875,16.57911171875,24.814255468749998,13.62451171875,19.960295468749997,13.62451171875C14.534115468749999,13.62451171875,10.08935546875,17.32299171875,10.08935546875,22.019711718750003C10.08935546875,24.731611718750003,11.56838546875,26.95601171875,14.03995546875,28.68391171875L13.05246546875,31.65291171875L16.50299546875,29.92261171875C17.73824546875,30.16711171875,18.72919546875,30.41841171875,19.960295468749997,30.41841171875C20.27105546875,30.41841171875,20.57745546875,30.40301171875,20.88225546875,30.37941171875C20.68955546875,29.71971171875,20.57745546875,29.02851171875,20.57745546875,28.31111171875C20.57745546875,23.99791171875,24.28095546875,20.49822171875,28.97015546875,20.49822171875ZM23.59325546875,17.62170171875C24.43635546875,17.62170171875,25.11905546875,18.30524171875,25.11905546875,19.14838171875C25.11905546875,19.99136171875,24.43635546875,20.67490171875,23.59325546875,20.67490171875C22.750255468749998,20.67490171875,22.06675546875,19.99050171875,22.06675546875,19.14838171875C22.06675546875,18.30524171875,22.750255468749998,17.62170171875,23.59325546875,17.62170171875ZM16.68628546875,20.70550171875C15.84330546875,20.70550171875,15.16063546875,20.02196171875,15.16063546875,19.17882171875C15.16063546875,18.33671171875,15.84330546875,17.653171718750002,16.68628546875,17.653171718750002C17.529435468750002,17.653171718750002,18.21210546875,18.33671171875,18.21210546875,19.17882171875C18.21210546875,20.02196171875,17.529435468750002,20.70550171875,16.68628546875,20.70550171875ZM37.910555468750005,28.22451171875C37.910555468750005,24.27821171875,33.961655468749996,21.06040171875,29.52535546875,21.06040171875C24.82865546875,21.06040171875,21.13015546875,24.27821171875,21.13015546875,28.22451171875C21.13015546875,32.17751171875,24.82865546875,35.38691171875,29.52535546875,35.38691171875C30.50865546875,35.38691171875,31.50035546875,35.13911171875,32.48765546875,34.89201171875L35.19535546875,36.375211718749995L34.45325546875,33.90781171875C36.434955468750005,32.42221171875,37.910555468750005,30.45071171875,37.910555468750005,28.22451171875ZM26.94605546875,27.11741171875C26.34575546875,27.11741171875,25.85925546875,26.631711718749997,25.85925546875,26.030611718750002C25.85925546875,25.43111171875,26.34575546875,24.94391171875,26.94605546875,24.94391171875C27.54645546875,24.94391171875,28.03275546875,25.43111171875,28.03275546875,26.030611718750002C28.03275546875,26.631711718749997,27.54645546875,27.11741171875,26.94605546875,27.11741171875ZM32.373055468749996,27.18021171875C31.77195546875,27.18021171875,31.28635546875,26.69281171875,31.28635546875,26.09251171875C31.28635546875,25.492311718750003,31.77195546875,25.00661171875,32.373055468749996,25.00661171875C32.97265546875,25.00661171875,33.45985546875,25.492311718750003,33.45985546875,26.09251171875C33.45985546875,26.69281171875,32.97255546875,27.18021171875,32.373055468749996,27.18021171875Z" fill="#FFFFFF" fill-opacity="1" style="mix-blend-mode:passthrough"/></g></g></svg>