<svg xmlns="http://www.w3.org/2000/svg" xmlns:xlink="http://www.w3.org/1999/xlink" fill="none" version="1.1" width="93.58399963378906" height="13.920000076293945" viewBox="0 0 93.58399963378906 13.920000076293945"><g><path d="M12.816,2.336L10.336,2.336L10.016,5.712L13.392,5.712L13.216,7.248L9.872,7.248L9.248,13.808L7.6,13.808L8.224,7.248L4.672,7.248Q4.4,9.12,3.536,11.056Q2.736,12.8,1.696,13.84L0.192,13.184Q1.264,12.128,2.032,10.528Q2.816,8.896,3.024,7.248L0,7.248L0.192,5.712L3.216,5.712L3.6,2.336L1.28,2.336L1.456,0.848L12.992,0.848L12.816,2.336ZM8.688,2.336L5.248,2.336L4.864,5.712L8.368,5.712L8.688,2.336ZM19.728,0.0959997L19.392,2.496L20.752,2.496Q21.488,2.496,21.848,2.896Q22.208,3.296,22.128,4.064L21.184,11.872Q21.168,11.92,21.168,12Q21.168,12.112,21.232,12.144Q21.296,12.176,21.456,12.176L25.28,12.176Q26.288,12.176,27.344,12.064Q28.608,11.952,29.456,11.632L29.296,13.248Q27.84,13.648,25.152,13.648L20.928,13.648Q20.224,13.648,19.904,13.296Q19.584,12.944,19.648,12.272L20.608,3.936L19.2,3.936L18.848,6.56Q18.144,11.072,16.544,13.776L15.12,13.36Q15.968,11.936,16.536,10.256Q17.104,8.576,17.424,6.528L17.76,3.936L16.304,3.936L16.48,2.496L17.936,2.496L18.256,0.0959997L19.728,0.0959997ZM28.224,10.624L22.4,10.624L23.424,2.224Q23.504,1.44,23.792,1.12Q24.08,0.799999,24.8,0.799999L28.064,0.799999Q28.704,0.799999,28.992,1.112Q29.28,1.424,29.28,2.032Q29.28,2.256,29.264,2.384L28.224,10.624ZM27.888,2.176L24.816,2.176L24.464,5.024L27.52,5.024L27.888,2.176ZM23.952,9.248L27.008,9.248L27.36,6.336L24.304,6.336L23.952,9.248ZM32.896,1.488L34.768,1.488L34.96,0L36.368,0L36.176,1.488L37.584,1.488L37.44,2.56Q37.872,1.904,38.256,0.96L39.696,0.96Q39.056,2.608,37.952,4.016L39.152,4.016L39.008,5.344L36.768,5.344Q36.16,5.936,35.824,6.208L37.2,6.208Q37.712,6.192,37.976,6.392Q38.24,6.592,38.24,6.912Q38.24,7.296,37.888,7.648L36.272,9.056Q37.584,8.88,38.592,8.672L38.416,10.032Q37.616,10.176,36.08,10.368L35.824,12.64Q35.728,13.216,35.4,13.488Q35.072,13.76,34.544,13.712Q33.488,13.632,32.48,13.232L32.656,11.888Q33.568,12.272,34.176,12.352L34.24,12.352Q34.352,12.352,34.4,12.304Q34.448,12.256,34.48,12.096L34.656,10.528L33.168,10.688L31.776,10.816L31.936,9.504Q32.912,9.44,34.816,9.248L34.88,8.752L36.336,7.456L34.224,7.456Q33.296,8.112,32.352,8.608L31.216,7.696Q32.368,7.136,33.232,6.584Q34.096,6.032,34.912,5.344L32,5.344L32.16,4.016L34.432,4.016L34.608,2.736L32.752,2.736L32.896,1.488ZM44.848,3.36Q44.208,6.8,42.736,9.328Q43.856,11.44,45.568,13.36L43.968,13.808Q42.624,11.968,41.872,10.64Q40.576,12.464,38.704,13.856L37.248,13.232Q39.712,11.456,41.168,9.2Q40.56,7.824,40.192,6.464L39.856,7.216L38.352,7.216Q40.096,3.408,41.072,0.127999L42.56,0.127999Q42.384,0.719999,41.968,1.968L45.808,1.968L45.632,3.36L44.848,3.36ZM36.288,4.016Q36.88,3.408,37.328,2.736L36.016,2.736L35.856,4.016L36.288,4.016ZM41.04,4.448Q41.44,6.288,42,7.712Q42.96,5.744,43.424,3.36L41.472,3.36L41.04,4.448ZM52.256,6.528Q51.952,8.752,51.296,10.624Q50.64,12.496,49.648,13.888L48.192,13.456Q50.288,10.496,50.8,6.496L51.52,0.112L53.008,0.112L52.256,6.528ZM61.76,0.752L61.616,2.208L58.416,2.208L58.192,4L59.856,4Q60.544,4,60.896,4.344Q61.248,4.688,61.184,5.36L60.544,10.592Q60.464,11.136,60.136,11.424Q59.808,11.712,59.296,11.712Q58.944,11.712,58.48,11.64Q58.016,11.568,57.712,11.44L57.824,10.032Q58.272,10.192,58.816,10.256L58.88,10.256Q58.976,10.256,59.032,10.208Q59.088,10.16,59.136,10.016L59.712,5.472L58.016,5.472L56.992,13.808L55.456,13.808L56.48,5.472L54.944,5.472L54.176,11.648L52.672,11.648L53.456,5.296Q53.52,4.704,53.888,4.352Q54.256,4,54.864,4L56.656,4L56.88,2.208L53.504,2.208L53.664,0.752L61.76,0.752ZM48.832,1.632L50.32,1.632L49.392,9.536L47.904,9.536L48.832,1.632ZM65.536,13.712Q65.024,13.712,64.44,13.552Q63.856,13.392,63.376,13.136L63.568,11.616Q64.4,12.064,65.008,12.064Q65.152,12.064,65.216,12.008Q65.28,11.952,65.312,11.776L65.712,8.416Q64.72,8.72,63.792,8.992L64,7.312Q64.912,7.104,65.92,6.784L66.256,4.048L64.4,4.048L64.576,2.544L66.432,2.544L66.736,0.112L68.256,0.112L67.968,2.544L69.392,2.544L69.216,4.048L67.776,4.048L67.52,6.256L68.224,6Q68.464,5.92,68.944,5.728L68.768,7.392L68.048,7.632L67.312,7.888L66.768,12.496Q66.688,13.088,66.368,13.4Q66.048,13.712,65.536,13.712ZM69.904,2.032L70.064,0.575999L76.24,0.575999Q76.928,0.575999,77.208,0.848Q77.488,1.12,77.488,1.76Q77.488,2.256,77.344,3.296L77.264,3.904Q77.152,4.88,76.96,5.696Q76.832,6.192,76.52,6.48Q76.208,6.768,75.744,6.768Q75.44,6.768,75.016,6.704Q74.592,6.64,74.208,6.56Q73.328,6.384,72.992,6.224L73.2,4.816Q73.488,4.976,74.24,5.12Q75.04,5.28,75.136,5.28Q75.344,5.28,75.424,5.208Q75.504,5.136,75.552,4.928Q75.616,4.64,75.776,3.52L75.872,2.688Q75.888,2.432,75.904,2.28Q75.92,2.128,75.936,2.032L73.488,2.032Q73.152,3.312,72.16,4.976Q71.312,6.368,70.4,7.248L69.088,6.432Q70.144,5.472,70.872,4.352Q71.6,3.232,71.952,2.032L69.904,2.032ZM76.16,13.744L68.592,13.744L69.184,9.072Q69.264,8.336,69.624,7.976Q69.984,7.616,70.688,7.616L75.536,7.616Q76.88,7.616,76.736,9.056L76.16,13.744ZM70.304,12.336L74.752,12.336L75.2,9.024L70.704,9.024L70.304,12.336ZM92.96,6.384L85.792,6.384L86.32,1.952Q86.368,1.552,86.656,1.288Q86.944,1.024,87.376,1.024L89.312,1.024L89.424,0.0159998L90.752,0.0159998L90.64,1.024L92.56,1.024Q92.992,1.024,93.232,1.248Q93.472,1.472,93.472,1.872Q93.472,2.032,93.456,2.112L92.96,6.384ZM82.864,11.2Q81.184,11.616,79.36,11.952L79.552,10.528L79.84,10.464L80.112,10.416L81.136,2L80.256,2L80.432,0.639999L86.08,0.639999L85.904,2L85.376,2L84.48,9.36L85.424,9.104L85.264,10.528L84.304,10.8L83.952,13.776L82.544,13.776L82.864,11.2ZM84.032,2L82.464,2L82.24,3.728L83.808,3.728L84.032,2ZM89.168,2.192L87.632,2.192L87.504,3.2L89.056,3.2L89.168,2.192ZM91.968,3.2L92.096,2.192L90.512,2.192L90.4,3.2L91.968,3.2ZM88.928,4.288L87.36,4.288L87.248,5.216L88.816,5.216L88.928,4.288ZM90.192,5.216L91.712,5.216L91.824,4.288L90.288,4.288L90.192,5.216ZM83.648,5.008L82.08,5.008L81.872,6.72L83.44,6.72L83.648,5.008ZM87.408,10.592Q86.352,10.592,86.352,9.824Q86.352,9.616,86.416,9.408L86.784,8.416L85.2,8.416L85.344,7.104L93.584,7.104L93.424,8.416L88.24,8.416L87.872,9.392L91.168,9.392Q92.544,9.392,92.4,10.656Q92.304,11.52,92.272,11.776Q92.096,12.656,92.048,12.848Q91.776,13.92,90.672,13.92Q90.112,13.92,88.832,13.632Q87.792,13.392,87.376,13.248L87.52,11.824Q88.16,12.016,88.976,12.192Q89.584,12.32,90.272,12.432L90.384,12.448Q90.512,12.448,90.576,12.368Q90.64,12.288,90.672,12.112Q90.752,11.776,90.824,11.416Q90.896,11.056,90.944,10.592L87.408,10.592ZM81.712,8L81.456,10.128L83.056,9.744L83.28,8L81.712,8Z" fill="#171A1D" fill-opacity="0.20000000298023224"/></g></svg>