<svg xmlns="http://www.w3.org/2000/svg" xmlns:xlink="http://www.w3.org/1999/xlink" fill="none" version="1.1" width="21" height="21" viewBox="0 0 21 21"><g style="opacity:0.6000000238418579;"><g><rect x="0" y="0.00028244307031854987" width="21" height="21" rx="10.5" fill="#F2F2F6" fill-opacity="1"/></g><g><g><rect x="3.988088369369507" y="3.988529122376349" width="4.833623886108398" height="1.988377571105957" rx="0" fill="#0B4883" fill-opacity="1"/></g><g><rect x="9.71409010887146" y="3.988529122376349" width="7.733798027038574" height="1.988377571105957" rx="0" fill="#0B4883" fill-opacity="1"/></g><g><rect x="9.71409010887146" y="6.934567451477051" width="7.733798027038574" height="1.9147340059280396" rx="0" fill="#0B4883" fill-opacity="1"/></g><g><rect x="12.539875745773315" y="5.976991176605225" width="2.082176446914673" height="10.972896575927734" rx="0" fill="#0B4883" fill-opacity="1"/></g><g><rect x="9.71409010887146" y="8.849060773849487" width="2.007812738418579" height="6.92249870300293" rx="0" fill="#0B4883" fill-opacity="1"/></g><g><rect x="3.988088369369507" y="7.891704559326172" width="2.007812738418579" height="6.186062812805176" rx="0" fill="#0B4883" fill-opacity="1"/></g><g><rect x="3.988088369369507" y="6.934567451477051" width="3.4207184314727783" height="1.988377571105957" rx="0" fill="#0B4883" fill-opacity="1"/></g><g><rect x="6.88827657699585" y="5.976991176605225" width="1.9334495067596436" height="10.972896575927734" rx="0" fill="#0B4883" fill-opacity="1"/></g><g><rect x="15.365703344345093" y="8.849060773849487" width="2.082176446914673" height="6.92249870300293" rx="0" fill="#0B4883" fill-opacity="1"/></g><g><path d="M3.988088369369507 14.888007879257202C3.988088369369507 14.888007879257202 3.988088369369507 14.888007879257202 3.988088369369507 14.888007879257202L4.991994738578796 14.888007879257202C5.546436916551089 14.888007879257202 5.995901107788086 15.337472070494199 5.995901107788086 15.891914248466492L5.995901107788086 16.950029134750366C5.995901107788086 16.950029134750366 5.995901107788086 16.950029134750366 5.995901107788086 16.950029134750366L3.988088369369507 16.950029134750366C3.988088369369507 16.950029134750366 3.988088369369507 16.950029134750366 3.988088369369507 16.950029134750366Z" fill="#CF0200" fill-opacity="1"/></g></g></g></svg>