<svg xmlns="http://www.w3.org/2000/svg" xmlns:xlink="http://www.w3.org/1999/xlink" fill="none" version="1.1" width="30.333332061767578" height="28" viewBox="0 0 30.333332061767578 28"><defs><clipPath id="master_svg0_2719_089596"><rect x="0" y="0" width="30.333332061767578" height="28" rx="0"/></clipPath></defs><g clip-path="url(#master_svg0_2719_089596)"><g transform="matrix(0.7071067690849304,-0.7071067690849304,0.7071067690849304,0.7071067690849304,-10.318783450151962,3.1431597088844754)"><path d="M4.625497372398376,26.853353422546387L4.625497372398376,26.853353422546387C4.766537372398377,26.99435342254639,4.957307372398376,27.073353422546386,5.156217372398377,27.073353422546386C5.570427372398377,27.073353422546386,5.906217372398377,26.737653422546387,5.906217372398377,26.323353422546386C5.906217372398377,26.124453422546388,5.827197372398376,25.93375342254639,5.686547372398376,25.793053422546386L5.686547372398376,25.793053422546386L1.0576473723983764,21.16414342254639Q0.11714737239837647,20.223673422546387,0.13527737239837645,18.871193422546387Q0.15356737239837637,17.506943422546385,1.1340273723983763,16.526503422546387Q2.1145073723983763,15.546033422546387,3.4787473723983764,15.527753422546386Q4.831187372398376,15.509623422546387,5.771667372398377,16.450113422546387L11.102937372398376,21.781383422546387L11.102937372398376,21.781383422546387C11.110837372398377,21.789223422546385,11.118437372398377,21.796533422546386,11.126137372398377,21.80367342254639Q11.570837372398376,22.257253422546384,11.803037372398377,22.846263422546386Q12.034137372398376,23.432453422546388,12.025537372398377,24.073453422546386Q12.016937372398376,24.71735342254639,11.767737372398376,25.315253422546387Q11.509337372398376,25.935653422546388,11.026737372398376,26.41815342254639C10.886137372398377,26.55875342254639,10.807137372398376,26.749553422546384,10.807137372398376,26.948453422546386C10.807137372398376,27.362653422546387,11.142937372398377,27.698453422546386,11.557137372398376,27.698453422546386C11.756037372398376,27.698453422546386,11.946737372398376,27.619453422546385,12.087437372398377,27.478753422546387L12.087437372398377,27.478753422546387Q12.779937372398377,26.786053422546388,13.152437372398376,25.892153422546386Q13.512837372398376,25.026953422546384,13.525437372398377,24.093553422546385Q13.537937372398376,23.157143422546387,13.198537372398377,22.296103422546388Q12.845937372398376,21.401913422546386,12.163837372398376,20.71979342254639C12.155537372398376,20.711463422546387,12.147037372398376,20.703333422546386,12.138337372398377,20.695403422546388L6.832337372398376,15.389463422546386Q5.444167372398376,14.001270622546386,3.4586373723983765,14.027884900546386Q1.4848873723983766,14.054341222546388,0.07336737239837654,15.465833422546387Q-1.3381304276016235,16.877313422546386,-1.3645866516016236,18.851093422546388Q-1.3912008276016234,20.836653422546387,-0.0030126276016235742,22.224803422546387L4.625497372398376,26.853353422546387ZM9.793137372398377,24.41515342254639C9.793137372398377,24.614053422546387,9.714137372398376,24.804853422546387,9.573537372398377,24.945453422546386Q9.090937372398377,25.427953422546388,8.832437372398376,26.048353422546384Q8.583367372398376,26.646253422546387,8.574727372398376,27.29015342254639Q8.566137372398376,27.931153422546387,8.797237372398376,28.517353422546385Q9.035437372398377,29.121453422546388,9.497037372398376,29.58315342254639C9.510237372398377,29.596253422546386,9.522837372398376,29.609853422546387,9.534937372398376,29.623853422546386C9.548037372398376,29.635253422546384,9.560737372398377,29.64715342254639,9.573037372398376,29.659453422546385L14.904737372398376,34.991053422546386Q15.845237372398376,35.93165342254639,17.197637372398376,35.91345342254638Q18.561937372398376,35.895153422546386,19.542337372398375,34.91475342254638Q20.522837372398378,33.93425342254639,20.541137372398378,32.57005342254639Q20.559237372398375,31.217553422546388,19.61873737239838,30.277053422546388L14.989837372398377,25.648153422546386C14.849137372398378,25.507453422546387,14.770137372398377,25.316653422546388,14.770137372398377,25.117753422546386C14.770137372398377,24.703553422546385,15.105937372398376,24.367753422546386,15.520137372398377,24.367753422546386C15.719037372398375,24.367753422546386,15.909837372398375,24.446753422546387,16.050437372398378,24.58745342254639L20.679437372398375,29.216353422546387Q22.067637372398377,30.604553422546388,22.040937372398375,32.590153422546386Q22.014537372398376,34.56385342254639,20.603037372398376,35.97535342254639Q19.191537372398376,37.38685342254639,17.217737372398375,37.413353422546386Q15.232237372398377,37.43995342254639,13.844037372398377,36.05175342254638L8.512367372398376,30.720053422546385C8.499247372398376,30.706953422546388,8.486617372398376,30.693353422546387,8.474497372398377,30.679253422546388C8.461397372398377,30.667853422546386,8.448697372398376,30.656053422546385,8.436417372398376,30.643753422546386L8.436417372398376,30.643753422546386Q7.754187372398377,29.961353422546388,7.401777372398376,29.067453422546386Q7.062317372398377,28.20645342254639,7.074867372398376,27.270053422546386Q7.087377372398377,26.336653422546387,7.447857372398376,25.47145342254639Q7.820487372398377,24.577153422546388,8.512837372398376,23.884823422546386C8.653437372398377,23.744163422546386,8.844237372398377,23.66515342254639,9.043137372398377,23.66515342254639C9.457337372398376,23.66515342254639,9.793137372398377,24.00093342254639,9.793137372398377,24.41515342254639Z" fill-rule="evenodd" fill="#000000" fill-opacity="0.20000000298023224" style="mix-blend-mode:passthrough"/></g></g></svg>