<svg xmlns="http://www.w3.org/2000/svg" xmlns:xlink="http://www.w3.org/1999/xlink" fill="none" version="1.1" width="110" height="110" viewBox="0 0 110 110"><defs><clipPath id="master_svg0_3662_013250"><rect x="0" y="0" width="110" height="110" rx="20.13726234436035"/></clipPath></defs><g clip-path="url(#master_svg0_3662_013250)"><rect x="0" y="0" width="110" height="110" rx="20.13726234436035" fill="#1477FF" fill-opacity="1"/><g><path d="M46.75243437500001,80.33926875L43.242034375,80.72936875L41.779434375,91.26056875L29.493034375,91.26056875L30.760634375000002,81.89946875L9.308234375000001,84.04476875L11.063434375,71.95336875L13.696234375,71.75836875L19.156834375000003,32.16886875L16.621534375000003,32.16886875L17.889234375,22.90526875L53.090734375,22.90526875L51.823034375000006,32.16886875L49.97033437499999,32.16886875L44.899734375,68.63796875L48.507634374999995,68.24796875L46.75243437500001,80.33926875ZM71.130234375,25.73316875L71.227734375,24.85556875L68.399934375,21.34516875L82.831234375,21.34516875L82.246534375,25.73316875L98.921234375,25.73316875L94.728234375,55.37646875L50.360334374999994,55.37646875L54.553334375000006,25.73316875L71.130234375,25.73316875ZM94.630234375,57.22916875L93.460234375,65.61516875L67.522334375,65.61516875L65.864634375,69.12556875L91.022234375,69.12556875L90.047234375,75.95136875L84.099234375,91.06556875L58.843834375,91.06556875L64.499534375,83.45966875L74.933134375,83.45966875L77.761034375,76.53636875L49.190234375,76.53636875L54.163334375000005,65.61516875L48.800234375,65.61516875L49.97033437499999,57.22916875L94.630234375,57.22916875ZM28.420434375,54.40136875L34.563634375,54.40136875L35.636234375,46.99056875L29.395534374999997,46.99056875L28.420434375,54.40136875ZM26.177634374999997,70.49066875L32.418334375,69.90566875L33.295934375,63.66496875L27.152734375,63.66496875L26.177634374999997,70.49066875ZM30.760634375000002,37.72696875L36.903834375,37.72696875L37.683934375,32.16886875L31.540734375,32.16886875L30.760634375000002,37.72696875ZM84.879234375,46.99056875L85.269234375,44.26026875L79.613734375,44.26026875L79.223634375,46.99056875L84.879234375,46.99056875ZM68.107434375,46.99056875L68.497434375,44.26026875L62.939334375,44.26026875L62.549234375,46.99056875L68.107434375,46.99056875ZM81.076334375,34.02156875L80.686334375,36.65436875L86.342234375,36.65436875L86.732234375,34.02156875L81.076334375,34.02156875ZM64.011934375,36.65436875L69.570034375,36.65436875L69.960134375,34.02156875L64.401934375,34.02156875L64.011934375,36.65436875Z" fill="#FFFFFF" fill-opacity="1"/></g></g></svg>