<svg xmlns="http://www.w3.org/2000/svg" xmlns:xlink="http://www.w3.org/1999/xlink" fill="none" version="1.1" width="110" height="110" viewBox="0 0 110 110"><defs><clipPath id="master_svg0_1795_021828"><rect x="0" y="0" width="110" height="110" rx="20.13726234436035"/></clipPath></defs><g clip-path="url(#master_svg0_1795_021828)"><rect x="0" y="0" width="110" height="110" rx="20.13726234436035" fill="#07C160" fill-opacity="1"/><g><path d="M92.485234375,57.61926875L87.999234375,89.50536875L40.609234375,89.50536875L45.094834375,57.61926875L92.485234375,57.61926875ZM20.619534375,58.00926875L22.959734374999996,41.43236875L16.329034375,41.43236875L17.694134374999997,32.16886875L24.227434375,32.16886875L25.397534375,24.07546875L23.057334375000003,21.24766875L42.364434375,21.24766875L40.804334375,32.16886875L45.387334375,32.16886875L44.022134375,41.43236875L39.536634375,41.43236875L37.781434375,53.71876875L42.462034375,52.54866875L41.096834375,62.78736875L36.318834375,63.957468750000004L33.393434375,84.82486875Q33.003434375,87.65266875,30.809434375000002,89.45656875Q28.615434375,91.26056875,25.885134375,91.26056875L9.600734374999998,91.26056875L17.206634375,82.48456875L19.156834375000003,68.15046875L12.428634375000001,69.80816875L13.793734375,59.66696875L20.619534375,58.00926875ZM95.215234375,46.99056875Q94.825234375,49.81836875,92.680234375,51.76856875Q90.535234375,53.71876875,87.707234375,53.71876875L74.250634375,53.71876875L80.686334375,47.38056875L82.831234375,32.26636875L72.300334375,32.26636875L63.134334374999995,54.30386875L47.337534375000004,54.30386875L56.503634375000004,32.26636875L49.190234375,32.26636875L50.457934374999994,23.00286875L98.628234375,23.00286875L95.215234375,46.99056875ZM74.543134375,80.63186875L76.395834375,67.17536875L59.03883437499999,67.17536875L57.186134374999995,80.63186875L74.543134375,80.63186875Z" fill="#FFFFFF" fill-opacity="1"/></g></g></svg>